# Blender v2.79 (sub 0) OBJ File: 'Vehicle-2018-03-28.blend'
# www.blender.org
o Armour-lvl1-1_Plane.012
v 1.124005 -2.071641 1.589304
v 1.202110 -0.704875 -0.605849
v 0.991726 -2.067247 1.621899
v 1.022133 -0.960451 -0.560493
v 1.252729 -0.042708 -1.878797
v 1.170967 -0.199094 -1.987883
v 1.018849 -0.939374 -0.564422
v 1.145843 -0.667360 -0.646438
v 1.177712 -2.092784 1.573839
v 1.113436 -2.107744 1.552404
v 1.346049 0.073190 -2.281636
v 0.832315 -1.373172 -1.018805
v 0.500365 -2.049057 1.526089
v 0.743801 -0.667612 -2.239528
v 0.831036 -1.302714 -0.993557
v 0.710612 -2.093045 1.426080
v 0.602239 0.296894 -2.840369
v 0.361770 -1.650042 -1.432224
v 0.274705 -2.019885 1.484297
v 0.347520 -0.787778 -2.450500
v 0.341064 -1.577013 -1.341141
v 0.355306 -2.080245 1.358032
v 0.246926 0.356582 -2.793288
v 1.271336 -1.444463 0.398230
v 1.191793 -1.552108 0.407453
v 0.818502 -1.869433 -0.051313
v 0.347651 -1.976390 -0.238091
v 1.255763 -0.046818 -1.852033
v 1.178206 -0.217753 -1.972097
v 0.842172 -0.767550 -2.298133
v 0.377581 -0.981446 -2.617481
v 1.169066 0.099473 -2.589349
v 0.643343 0.274324 -2.915785
v 0.385215 0.275896 -2.977574
v 0.000000 -2.000320 1.463595
v -1.124005 -2.071641 1.589304
v 0.000000 -1.649574 -1.654511
v -1.202110 -0.704875 -0.605849
v -0.991726 -2.067247 1.621899
v -1.022133 -0.960451 -0.560493
v -1.252729 -0.042708 -1.878797
v 0.000000 -0.803152 -2.476148
v -1.170967 -0.199094 -1.987883
v 0.000000 -1.514277 -1.386235
v -1.018849 -0.939374 -0.564422
v -1.145843 -0.667360 -0.646438
v 0.000000 -2.043255 1.363171
v -1.177712 -2.092784 1.573839
v -1.113436 -2.107744 1.552404
v 0.000000 0.382438 -2.694490
v -1.346049 0.073190 -2.281636
v -0.832315 -1.373172 -1.018805
v -0.500365 -2.049057 1.526089
v -0.743801 -0.667612 -2.239528
v -0.831036 -1.302714 -0.993557
v -0.710612 -2.093045 1.426080
v -0.602239 0.296894 -2.840369
v -0.361770 -1.650042 -1.432224
v -0.274705 -2.019885 1.484297
v -0.347520 -0.787778 -2.450500
v -0.341064 -1.577013 -1.341141
v -0.355306 -2.080245 1.358032
v -0.246926 0.356582 -2.793288
v -1.271336 -1.444463 0.398230
v 0.000000 -1.985310 -0.325327
v -1.191793 -1.552108 0.407453
v -0.818502 -1.869433 -0.051313
v -0.347651 -1.976390 -0.238091
v -1.255763 -0.046818 -1.852033
v 0.000000 -0.960161 -2.778739
v -1.178206 -0.217753 -1.972097
v -0.842172 -0.767550 -2.298133
v -0.377581 -0.981446 -2.617481
v 0.000000 0.278327 -3.107690
v -1.169066 0.099473 -2.589349
v -0.643343 0.274324 -2.915785
v -0.385215 0.275896 -2.977574
v 1.269403 -1.375119 1.687223
v 1.407746 -2.078477 1.461583
v 1.168773 -2.086947 1.448329
v 1.331730 -0.199911 -0.400658
v 1.485542 -1.234751 -0.775685
v 1.172625 -1.279542 -0.701194
v 1.289572 1.377019 -2.729208
v 1.481929 0.434729 -3.078816
v 1.063329 0.073420 -2.720093
v 1.209987 1.411363 -2.771583
v 1.168746 0.547942 -3.135806
v 0.613872 0.230723 -2.948780
v 1.339689 -1.576712 1.630733
v 1.422601 -0.547861 -0.587145
v 1.444927 0.913740 -3.017704
v 1.203010 0.983190 -3.037936
v 1.234870 1.706195 -2.027145
v 1.002229 1.746319 -2.035924
v 1.256107 1.580131 -1.921620
v 1.020288 1.620255 -1.911339
v 1.324380 1.116472 -2.139257
v 1.458773 0.294824 -2.867883
v 1.316277 -0.044246 -2.610799
v 1.443386 0.812874 -2.849969
v -1.269403 -1.375119 1.687223
v -1.407746 -2.078477 1.461583
v -1.168773 -2.086947 1.448329
v -1.331730 -0.199911 -0.400658
v -1.485542 -1.234751 -0.775685
v -1.172625 -1.279542 -0.701194
v -1.289572 1.377019 -2.729208
v -1.481929 0.434729 -3.078816
v -1.063329 0.073420 -2.720093
v -1.209987 1.411363 -2.771583
v -1.168746 0.547942 -3.135806
v -0.613872 0.230723 -2.948780
v 0.000000 1.375095 -2.921811
v 0.000000 0.533105 -3.036655
v 0.000000 0.288745 -3.058956
v -1.339689 -1.576712 1.630733
v -1.422601 -0.547861 -0.587145
v -1.444927 0.913740 -3.017704
v -1.203010 0.983190 -3.037936
v 0.000000 0.974675 -3.047677
v -1.234870 1.706195 -2.027145
v -1.002229 1.746319 -2.035924
v 0.000000 1.782907 -2.051170
v -1.256107 1.580131 -1.921620
v -1.020288 1.620255 -1.911339
v 0.000000 1.656843 -1.926584
v -1.324380 1.116472 -2.139257
v -1.458773 0.294824 -2.867883
v -1.316277 -0.044246 -2.610799
v -1.443386 0.812874 -2.849969
vt 0.777989 0.489303
vt 0.777871 0.359750
vt 0.789438 0.353598
vt 0.850021 0.388254
vt 0.428271 0.876079
vt 0.486712 0.927905
vt 0.415364 0.887815
vt 0.771700 0.678243
vt 0.747519 0.677039
vt 0.746530 0.673945
vt 0.355789 0.604028
vt 0.346877 0.634953
vt 0.354451 0.602253
vt 0.838768 0.518714
vt 0.847659 0.517682
vt 0.167510 0.657979
vt 0.188751 0.624441
vt 0.180404 0.683062
vt 0.179132 0.609921
vt 0.185209 0.608660
vt 0.513312 0.879214
vt 0.522432 0.946838
vt 0.504529 0.884118
vt 0.498813 0.853322
vt 0.161574 0.700368
vt 0.178173 0.709984
vt 0.781461 0.900953
vt 0.826927 0.959561
vt 0.767474 0.903423
vt 0.399491 0.828801
vt 0.369438 0.832388
vt 0.993059 0.819820
vt 0.876681 0.761386
vt 0.998608 0.764452
vt 0.986827 0.861014
vt 0.867960 0.815674
vt 0.395935 0.787341
vt 0.355789 0.787341
vt 0.781835 0.860263
vt 0.746530 0.860263
vt 0.164542 0.742758
vt 0.177408 0.742758
vt 0.486712 0.807365
vt 0.522161 0.836824
vt 0.009292 0.701282
vt 0.035021 0.645108
vt 0.551378 0.992623
vt 0.599324 0.858681
vt 0.600101 1.000000
vt 0.607708 0.999759
vt 0.712669 0.747069
vt 0.565979 0.700876
vt 0.721619 0.706312
vt 0.572385 0.646844
vt 0.724923 0.649500
vt 0.750278 0.513154
vt 0.775952 0.490857
vt 0.335552 0.739723
vt 0.199443 0.695098
vt 0.336253 0.698391
vt 0.204557 0.664483
vt 0.342578 0.652014
vt 0.770573 0.680961
vt 0.755739 0.725569
vt 0.246354 0.602253
vt 0.321270 0.602933
vt 1.000000 0.151924
vt 0.961229 0.269353
vt 0.990898 0.141082
vt 0.953368 0.728541
vt 0.881400 0.626424
vt 0.951007 0.598859
vt 0.486712 0.646777
vt 0.428271 0.698603
vt 0.415364 0.686867
vt 0.875165 0.436387
vt 0.851009 0.437249
vt 0.874035 0.433707
vt 0.981596 0.296900
vt 0.960741 0.271504
vt 0.942114 0.597852
vt 0.188751 0.861074
vt 0.167510 0.827536
vt 0.180404 0.802453
vt 0.185209 0.876855
vt 0.179132 0.875594
vt 0.522432 0.667892
vt 0.513312 0.735516
vt 0.504529 0.730612
vt 0.498813 0.761408
vt 0.522161 0.777906
vt 0.161574 0.785147
vt 0.178173 0.775531
vt 0.826927 0.760965
vt 0.781461 0.819573
vt 0.767474 0.817103
vt 0.399491 0.745881
vt 0.369438 0.742294
vt 0.993059 0.902732
vt 0.876681 0.959886
vt 0.867960 0.901953
vt 0.850021 0.858205
vt 0.533393 0.807365
vt 0.009292 0.784233
vt 0.000000 0.742758
vt 0.035021 0.840407
vt 0.943021 0.008362
vt 0.943679 0.146881
vt 1.000000 0.000092
vt 0.992197 0.000000
vt 0.566525 0.790924
vt 0.551378 0.745600
vt 0.722113 0.787651
vt 0.573604 0.847691
vt 0.853731 0.601939
vt 0.879362 0.624890
vt 0.953368 0.430030
vt 0.199443 0.786968
vt 0.188751 0.740682
vt 0.336253 0.781272
vt 0.204557 0.817915
vt 0.859265 0.388128
vt 0.873696 0.353598
vt 0.342578 0.829404
vt 0.246354 0.881065
vt 0.667236 0.304692
vt 0.745441 0.583321
vt 0.694129 0.618047
vt 0.318276 0.356651
vt 0.343749 0.600503
vt 0.315188 0.600337
vt 0.588827 0.028386
vt 0.611807 0.019298
vt 0.305894 0.075317
vt 0.352938 0.043663
vt 0.336278 0.094318
vt 0.901899 0.004414
vt 0.940043 0.037364
vt 0.898683 0.033276
vt 0.318083 0.000000
vt 0.355789 0.014376
vt 0.900230 0.176799
vt 0.252140 0.043363
vt 0.177938 0.009987
vt 0.831585 0.176799
vt 0.834320 0.032444
vt 0.840479 0.022949
vt 0.746530 0.274293
vt 0.671777 0.000000
vt 0.615708 0.571547
vt 0.612549 0.867140
vt 0.636401 0.917539
vt 0.607708 0.917539
vt 0.747792 0.057230
vt 0.749925 0.029475
vt 0.957792 0.623024
vt 0.974601 0.503455
vt 0.979025 0.625179
vt 0.961983 0.650779
vt 0.981632 0.653313
vt 0.632132 0.646844
vt 0.696122 0.641275
vt 0.355789 0.346526
vt 0.746530 0.613335
vt 0.551378 0.602628
vt 0.550258 0.062405
vt 0.471956 0.341711
vt 0.498896 0.027859
vt 0.006592 0.602253
vt 0.037431 0.358108
vt 0.035265 0.601790
vt 0.393298 0.619303
vt 0.416382 0.627973
vt 0.003560 0.045476
vt 0.051226 0.076638
vt 0.021028 0.095953
vt 0.901899 0.349183
vt 0.940043 0.316234
vt 0.943021 0.353598
vt 0.038167 0.001452
vt 0.000865 0.016217
vt 0.898683 0.320322
vt 0.105116 0.044126
vt 0.834320 0.321154
vt 0.840479 0.330649
vt 0.551378 0.371604
vt 0.476476 0.646777
vt 0.420273 0.075235
vt 0.425683 0.335347
vt 0.660254 0.867140
vt 0.636401 0.917539
vt 0.653100 0.847691
vt 0.747792 0.296368
vt 0.749925 0.324123
vt 0.957792 0.383886
vt 0.953368 0.503455
vt 0.961983 0.356131
vt 0.979025 0.381732
vt 0.436663 0.000000
vt 0.000000 0.348372
vt 0.551378 0.032237
vt 0.500893 0.004595
vt 0.355789 0.044759
vt 0.751818 0.506473
vt 0.486600 0.927041
vt 0.355789 0.637979
vt 0.182263 0.602253
vt 0.549533 0.967953
vt 0.834510 0.959408
vt 0.556091 0.853534
vt 0.607708 0.847691
vt 0.850021 0.686208
vt 0.770238 0.760965
vt 0.892921 0.761386
vt 0.486600 0.647641
vt 0.850021 0.440335
vt 0.974438 0.303032
vt 0.182263 0.883262
vt 0.549533 0.646777
vt 0.834510 0.761118
vt 0.998608 0.959657
vt 0.726126 0.847691
vt 0.321270 0.882198
vt 0.621109 0.311645
vt 0.943021 0.000000
vt 0.931781 0.176799
vt 0.178713 0.029785
vt 0.619703 0.847691
vt 0.746530 0.176799
vt 0.556027 0.583501
vt 0.665095 0.917539
vt 0.981632 0.353598
vt 0.360468 0.063782
vn 0.8177 -0.2936 -0.4951
vn 0.7213 -0.5683 -0.3958
vn 0.7273 -0.6234 -0.2868
vn 0.5812 -0.7750 -0.2480
vn 0.3890 0.1182 -0.9136
vn 0.8720 -0.2913 -0.3934
vn 0.6642 -0.1208 -0.7377
vn 0.9191 -0.3853 -0.0828
vn 0.9331 -0.3390 -0.1201
vn 0.6534 -0.2830 -0.7021
vn 0.4782 -0.4829 -0.7335
vn 0.8718 -0.1498 -0.4663
vn 0.7726 -0.2105 -0.5989
vn 0.0308 -0.9994 -0.0162
vn -0.0902 -0.9296 0.3573
vn -0.1054 -0.9576 0.2679
vn 0.1341 -0.9854 0.1042
vn 0.0435 -0.7203 0.6923
vn 0.2047 0.9581 -0.2002
vn 0.7492 0.1857 -0.6357
vn 0.4260 0.4193 -0.8016
vn 0.2563 0.3737 -0.8914
vn -0.0763 -0.9918 0.1021
vn -0.1236 -0.9231 0.3640
vn 0.4035 0.1021 -0.9092
vn 0.5349 -0.2146 -0.8171
vn 0.2378 0.1701 -0.9563
vn 0.3915 -0.2264 -0.8919
vn 0.2108 -0.9584 -0.1925
vn 0.0000 -0.9863 -0.1649
vn 0.0000 0.2583 -0.9660
vn 0.0000 -0.0188 -0.9998
vn 0.0000 -0.1560 -0.9877
vn 0.0000 -0.0856 -0.9963
vn 0.0000 -0.9847 0.1741
vn 0.0000 -0.9195 0.3931
vn 0.0000 0.3254 -0.9456
vn 0.0719 0.9531 -0.2940
vn 0.2489 -0.9685 0.0079
vn 0.7626 -0.4810 -0.4325
vn 0.8296 -0.4025 -0.3870
vn 0.7285 -0.5928 -0.3433
vn -0.7213 -0.5683 -0.3958
vn -0.8177 -0.2936 -0.4951
vn -0.7273 -0.6234 -0.2868
vn -0.5812 -0.7750 -0.2480
vn -0.7726 -0.2105 -0.5989
vn -0.8720 -0.2913 -0.3934
vn -0.3890 0.1182 -0.9136
vn -0.6642 -0.1208 -0.7377
vn -0.9191 -0.3853 -0.0828
vn -0.8296 -0.4025 -0.3870
vn -0.4782 -0.4829 -0.7335
vn -0.6534 -0.2830 -0.7021
vn -0.8718 -0.1498 -0.4663
vn 0.0902 -0.9296 0.3573
vn -0.0308 -0.9994 -0.0162
vn 0.1054 -0.9576 0.2679
vn -0.0435 -0.7203 0.6923
vn -0.1341 -0.9854 0.1042
vn -0.7492 0.1857 -0.6357
vn -0.2047 0.9581 -0.2002
vn -0.4260 0.4193 -0.8016
vn -0.2563 0.3737 -0.8914
vn -0.0719 0.9531 -0.2940
vn 0.0763 -0.9918 0.1021
vn 0.1236 -0.9231 0.3640
vn -0.4035 0.1021 -0.9092
vn -0.5349 -0.2146 -0.8171
vn -0.2378 0.1701 -0.9563
vn -0.3915 -0.2264 -0.8919
vn -0.2108 -0.9584 -0.1925
vn 0.0000 0.9697 -0.2443
vn -0.2489 -0.9685 0.0080
vn -0.7626 -0.4810 -0.4325
vn -0.7285 -0.5928 -0.3433
vn 0.9877 0.1264 0.0919
vn 0.8161 -0.4740 -0.3305
vn 0.9880 0.1316 0.0806
vn 0.0266 -0.9019 -0.4310
vn 0.6060 -0.6968 0.3837
vn 0.0078 -0.9338 0.3575
vn 0.8978 0.1909 0.3968
vn 0.6524 -0.0776 0.7538
vn 0.0818 -0.6675 -0.7401
vn 0.4503 -0.6605 -0.6008
vn 0.7534 0.3306 -0.5684
vn 0.0504 -0.1954 -0.9794
vn 0.1292 0.3864 -0.9132
vn 0.6893 -0.3213 -0.6494
vn 0.0000 0.1666 -0.9860
vn 0.0198 -0.4554 -0.8901
vn 0.0000 -0.0475 -0.9988
vn 0.0000 0.6650 -0.7468
vn 0.3100 0.7223 -0.6182
vn 0.7885 0.5156 -0.3352
vn 0.7254 -0.6135 -0.3122
vn 0.9835 0.1709 0.0590
vn 0.0841 0.9801 0.1796
vn 0.6011 0.7772 0.1861
vn 0.0000 0.7030 0.7111
vn 0.0693 0.6945 0.7161
vn 0.8194 0.4427 0.3640
vn -0.8161 -0.4740 -0.3305
vn -0.9877 0.1264 0.0919
vn -0.9880 0.1316 0.0806
vn -0.6060 -0.6968 0.3837
vn -0.0266 -0.9019 -0.4310
vn -0.0078 -0.9338 0.3575
vn -0.8978 0.1909 0.3968
vn -0.6524 -0.0776 0.7538
vn -0.0818 -0.6675 -0.7401
vn -0.4503 -0.6605 -0.6008
vn -0.7534 0.3306 -0.5684
vn -0.0504 -0.1954 -0.9794
vn -0.6893 -0.3213 -0.6494
vn -0.1292 0.3864 -0.9132
vn -0.0198 -0.4554 -0.8901
vn -0.3100 0.7223 -0.6182
vn -0.7885 0.5156 -0.3352
vn -0.7254 -0.6135 -0.3122
vn -0.9835 0.1709 0.0590
vn -0.9740 0.1830 0.1332
vn -0.0841 0.9801 0.1796
vn -0.6011 0.7772 0.1861
vn 0.0000 0.9857 0.1681
vn -0.0693 0.6945 0.7161
vn -0.9331 -0.3390 -0.1201
vn 0.9740 0.1830 0.1332
vn 0.0000 0.0909 -0.9958
vn -0.8194 0.4427 0.3640
s 1
f 4/1/1 24/2/2 25/3/3
f 26/4/4 4/1/1 25/3/3
f 14/5/5 29/6/6 30/7/7
f 29/8/6 5/9/8 28/10/9
f 7/11/10 2/12/11 4/13/1
f 15/14/12 4/1/1 12/15/13
f 16/16/14 3/17/15 13/18/16
f 10/19/17 1/20/18 3/17/15
f 17/21/19 32/22/20 33/23/21
f 34/24/22 17/21/19 33/23/21
f 22/25/23 13/18/16 19/26/24
f 21/27/25 12/28/13 18/29/26
f 20/30/27 30/7/7 31/31/28
f 27/32/29 12/33/13 26/34/4
f 65/35/30 18/36/26 27/32/29
f 42/37/31 31/31/28 70/38/32
f 44/39/33 18/29/26 37/40/34
f 47/41/35 19/26/24 35/42/36
f 74/43/37 23/44/38 34/24/22
f 47/41/35 27/45/29 22/25/23
f 22/25/23 26/46/4 16/16/14
f 16/47/14 25/48/3 10/49/17
f 25/48/3 9/50/39 10/49/17
f 44/51/33 31/52/28 21/53/25
f 21/53/25 30/54/7 15/55/12
f 29/8/6 8/56/40 7/57/10
f 15/14/12 29/8/6 7/57/10
f 42/58/31 34/59/22 20/60/27
f 20/60/27 33/61/21 14/62/5
f 6/63/41 11/64/42 5/9/8
f 14/62/5 32/65/20 6/66/41
f 64/67/43 40/68/44 66/69/45
f 67/70/46 40/71/44 52/72/47
f 71/73/48 54/74/49 72/75/50
f 71/76/48 41/77/51 43/78/52
f 38/79/53 45/80/54 40/68/44
f 40/71/44 55/81/55 52/72/47
f 39/82/56 56/83/57 53/84/58
f 36/85/59 49/86/60 39/82/56
f 75/87/61 57/88/62 76/89/63
f 77/90/64 57/88/62 63/91/65
f 53/84/58 62/92/66 59/93/67
f 52/94/47 61/95/68 58/96/69
f 72/75/50 60/97/70 73/98/71
f 68/99/72 52/100/47 58/101/69
f 65/35/30 58/101/69 37/102/34
f 73/98/71 42/37/31 70/38/32
f 58/96/69 44/39/33 37/40/34
f 59/93/67 47/41/35 35/42/36
f 74/43/37 63/91/65 50/103/73
f 47/41/35 68/104/72 65/105/30
f 62/92/66 67/106/46 68/104/72
f 56/107/57 66/69/45 67/108/46
f 48/109/74 66/69/45 49/110/60
f 44/51/33 73/111/71 70/112/32
f 61/113/68 72/114/50 73/111/71
f 46/115/75 71/76/48 45/116/54
f 55/81/55 71/76/48 72/117/50
f 42/58/31 77/118/64 74/119/37
f 60/120/70 76/121/63 77/118/64
f 43/78/52 51/122/76 75/123/61
f 54/124/49 75/125/61 76/121/63
f 91/126/77 99/127/78 101/128/79
f 83/129/80 79/130/81 80/131/82
f 91/126/77 78/132/83 90/133/84
f 86/134/85 99/135/78 100/136/86
f 92/137/87 88/138/88 93/139/89
f 86/134/85 88/140/88 85/141/90
f 88/138/88 121/142/91 93/139/89
f 89/143/92 115/144/93 88/140/88
f 93/139/89 114/145/94 87/146/95
f 84/147/96 93/139/89 87/146/95
f 82/148/97 90/133/84 79/149/81
f 98/150/98 91/126/77 101/128/79
f 90/151/84 80/152/82 79/153/81
f 114/145/94 95/154/99 87/146/95
f 87/146/95 94/155/100 84/147/96
f 95/156/99 127/157/101 97/158/102
f 94/159/100 97/158/102 96/160/103
f 84/161/96 101/128/79 92/162/87
f 100/136/86 82/163/97 83/129/80
f 101/128/79 85/164/90 92/162/87
f 94/165/100 98/150/98 84/161/96
f 129/166/104 118/167/105 131/168/106
f 103/169/107 107/170/108 104/171/109
f 102/172/110 118/167/105 117/173/111
f 129/174/104 110/175/112 130/176/113
f 119/177/114 112/178/115 109/179/116
f 112/180/115 110/175/112 109/181/116
f 121/142/91 112/178/115 120/182/117
f 115/144/93 113/183/118 112/180/115
f 114/145/94 120/182/117 111/184/119
f 108/185/120 120/182/117 119/177/114
f 117/173/111 106/186/121 103/187/107
f 128/188/122 118/167/105 105/189/123
f 117/190/111 104/191/109 102/192/110
f 123/193/124 114/145/94 111/184/119
f 122/194/125 111/184/119 108/185/120
f 123/195/124 127/157/101 124/196/126
f 122/197/125 126/198/127 123/195/124
f 108/199/120 131/168/106 128/188/122
f 106/200/121 130/176/113 107/170/108
f 109/201/116 131/168/106 119/202/114
f 128/188/122 122/203/125 108/199/120
f 4/1/1 2/204/11 24/2/2
f 26/4/4 12/15/13 4/1/1
f 14/5/5 6/205/41 29/6/6
f 29/8/6 6/63/41 5/9/8
f 7/11/10 8/206/40 2/12/11
f 15/14/12 7/57/10 4/1/1
f 16/16/14 10/19/17 3/17/15
f 10/19/17 9/207/39 1/20/18
f 17/21/19 11/208/42 32/22/20
f 34/24/22 23/44/38 17/21/19
f 22/25/23 16/16/14 13/18/16
f 21/27/25 15/209/12 12/28/13
f 20/30/27 14/5/5 30/7/7
f 27/32/29 18/36/26 12/33/13
f 65/35/30 37/102/34 18/36/26
f 42/37/31 20/30/27 31/31/28
f 44/39/33 21/27/25 18/29/26
f 47/41/35 22/25/23 19/26/24
f 74/43/37 50/103/73 23/44/38
f 47/41/35 65/105/30 27/45/29
f 22/25/23 27/45/29 26/46/4
f 16/47/14 26/210/4 25/48/3
f 25/48/3 24/211/2 9/50/39
f 44/51/33 70/112/32 31/52/28
f 21/53/25 31/52/28 30/54/7
f 29/8/6 28/10/9 8/56/40
f 15/14/12 30/212/7 29/8/6
f 42/58/31 74/119/37 34/59/22
f 20/60/27 34/59/22 33/61/21
f 6/63/41 32/213/20 11/64/42
f 14/62/5 33/61/21 32/65/20
f 64/67/43 38/79/53 40/68/44
f 67/70/46 66/214/45 40/71/44
f 71/73/48 43/215/52 54/74/49
f 71/76/48 69/216/128 41/77/51
f 38/79/53 46/217/75 45/80/54
f 40/71/44 45/116/54 55/81/55
f 39/82/56 49/86/60 56/83/57
f 36/85/59 48/218/74 49/86/60
f 75/87/61 51/219/76 57/88/62
f 77/90/64 76/89/63 57/88/62
f 53/84/58 56/83/57 62/92/66
f 52/94/47 55/220/55 61/95/68
f 72/75/50 54/74/49 60/97/70
f 68/99/72 67/221/46 52/100/47
f 65/35/30 68/99/72 58/101/69
f 73/98/71 60/97/70 42/37/31
f 58/96/69 61/95/68 44/39/33
f 59/93/67 62/92/66 47/41/35
f 74/43/37 77/90/64 63/91/65
f 47/41/35 62/92/66 68/104/72
f 62/92/66 56/83/57 67/106/46
f 56/107/57 49/110/60 66/69/45
f 48/109/74 64/67/43 66/69/45
f 44/51/33 61/113/68 73/111/71
f 61/113/68 55/222/55 72/114/50
f 46/115/75 69/216/128 71/76/48
f 55/81/55 45/116/54 71/76/48
f 42/58/31 60/120/70 77/118/64
f 60/120/70 54/124/49 76/121/63
f 43/78/52 41/77/51 51/122/76
f 54/124/49 43/223/52 75/125/61
f 91/126/77 82/148/97 99/127/78
f 83/129/80 82/163/97 79/130/81
f 91/126/77 81/224/129 78/132/83
f 86/134/85 85/141/90 99/135/78
f 92/137/87 85/225/90 88/138/88
f 86/134/85 89/143/92 88/140/88
f 88/138/88 115/226/93 121/142/91
f 89/143/92 116/227/130 115/144/93
f 93/139/89 121/142/91 114/145/94
f 84/147/96 92/137/87 93/139/89
f 82/148/97 91/126/77 90/133/84
f 98/150/98 81/224/129 91/126/77
f 90/151/84 78/228/83 80/152/82
f 114/145/94 124/229/126 95/154/99
f 87/146/95 95/154/99 94/155/100
f 95/156/99 124/196/126 127/157/101
f 94/159/100 95/156/99 97/158/102
f 84/161/96 98/150/98 101/128/79
f 100/136/86 99/135/78 82/163/97
f 101/128/79 99/127/78 85/164/90
f 94/165/100 96/230/103 98/150/98
f 129/166/104 106/186/121 118/167/105
f 103/169/107 106/200/121 107/170/108
f 102/172/110 105/189/123 118/167/105
f 129/174/104 109/181/116 110/175/112
f 119/177/114 120/182/117 112/178/115
f 112/180/115 113/183/118 110/175/112
f 121/142/91 115/226/93 112/178/115
f 115/144/93 116/227/130 113/183/118
f 114/145/94 121/142/91 120/182/117
f 108/185/120 111/184/119 120/182/117
f 117/173/111 118/167/105 106/186/121
f 128/188/122 131/168/106 118/167/105
f 117/190/111 103/231/107 104/191/109
f 123/193/124 124/229/126 114/145/94
f 122/194/125 123/193/124 111/184/119
f 123/195/124 126/198/127 127/157/101
f 122/197/125 125/232/131 126/198/127
f 108/199/120 119/202/114 131/168/106
f 106/200/121 129/174/104 130/176/113
f 109/201/116 129/166/104 131/168/106
f 128/188/122 125/233/131 122/203/125
