# Blender v2.79 (sub 0) OBJ File: 'Vehicle-2018-03-29.blend'
# www.blender.org
o Cylinder.016_Cylinder.004
v 0.876750 -0.082750 -2.102365
v 0.962665 -0.099225 -2.062910
v 0.969740 -0.116325 -1.968740
v 0.890895 -0.116950 -1.914030
v 0.804975 -0.100475 -1.953485
v 0.797905 -0.083375 -2.047655
v -0.992750 -0.418425 -1.304765
v -1.077850 -0.459385 -1.287725
v -0.952330 -0.547995 -1.480370
v -0.884620 -0.657340 -1.643265
v -0.961010 -0.714980 -1.650470
v -1.035700 -0.594590 -1.470990
v -0.785235 -0.728625 -1.796605
v -0.663785 -0.747865 -1.941175
v -0.711175 -0.817320 -1.987440
v -0.848725 -0.795345 -1.823590
v -0.531950 -0.715780 -2.078505
v -0.382065 -0.641685 -2.209950
v -0.402585 -0.701690 -2.281980
v -0.565405 -0.782030 -2.139345
v -0.189920 -0.560320 -2.301595
v 0.024640 -0.492615 -2.327285
v 0.038730 -0.539850 -2.409630
v -0.193380 -0.613165 -2.381635
v 0.237380 -0.434880 -2.303450
v 0.436555 -0.378610 -2.244990
v 0.477155 -0.418465 -2.322280
v 0.265855 -0.478180 -2.384225
v 0.611115 -0.312530 -2.169935
v 0.709140 -0.237820 -2.113670
v 0.784820 -0.249550 -2.171505
v 0.665160 -0.347095 -2.241310
v -0.913225 -0.454780 -1.265220
v -0.874185 -0.579775 -1.434620
v -0.810215 -0.682920 -1.588315
v -0.714365 -0.751525 -1.736085
v -0.594180 -0.770420 -1.879070
v -0.462030 -0.738300 -2.016745
v -0.321615 -0.668905 -2.140560
v -0.153675 -0.597670 -2.220965
v 0.037130 -0.537585 -2.243425
v 0.233600 -0.484310 -2.221275
v 0.424130 -0.430455 -2.165195
v 0.597845 -0.364450 -2.090320
v 0.712815 -0.268890 -2.022940
v -0.918795 -0.532090 -1.208630
v -0.879405 -0.658160 -1.379495
v -0.812195 -0.766150 -1.540570
v -0.706980 -0.841140 -1.702550
v -0.571965 -0.862430 -1.863235
v -0.425570 -0.827070 -2.015825
v -0.281685 -0.756135 -2.143205
v -0.120890 -0.687865 -2.220370
v 0.063710 -0.629790 -2.241915
v 0.258290 -0.577040 -2.219875
v 0.452305 -0.522165 -2.162685
v 0.638620 -0.450935 -2.082080
v 0.792165 -0.311685 -1.990050
v -1.003895 -0.573050 -1.191590
v -0.962780 -0.704760 -1.370115
v -0.888585 -0.823790 -1.547775
v -0.770465 -0.907860 -1.729535
v -0.619350 -0.931885 -1.909500
v -0.459025 -0.893315 -2.076670
v -0.302205 -0.816140 -2.215235
v -0.124350 -0.740710 -2.300410
v 0.077800 -0.677025 -2.324260
v 0.286765 -0.620340 -2.300650
v 0.492905 -0.562020 -2.239970
v 0.692670 -0.485500 -2.153455
v 0.867845 -0.323415 -2.047890
v -1.083425 -0.536700 -1.231140
v -1.040925 -0.672975 -1.415865
v -0.962995 -0.798210 -1.602725
v -0.841340 -0.884960 -1.790055
v -0.688955 -0.909330 -1.971600
v -0.528945 -0.870795 -2.138430
v -0.362655 -0.788915 -2.284625
v -0.160590 -0.703355 -2.381040
v 0.065310 -0.632055 -2.408115
v 0.290550 -0.570910 -2.382825
v 0.505330 -0.510170 -2.319770
v 0.705940 -0.433580 -2.233070
v 0.864170 -0.292345 -2.138615
vt 0.268517 0.022298
vt 0.282518 0.005646
vt 0.285736 0.014478
vt 0.254567 0.033750
vt 0.236127 0.044152
vt 0.247809 0.027212
vt 0.232996 0.086805
vt 0.228305 0.063604
vt 0.237206 0.066306
vt 0.233361 0.109142
vt 0.230299 0.132480
vt 0.224142 0.110170
vt 0.248385 0.147633
vt 0.252802 0.167752
vt 0.240247 0.151572
vt 0.283692 0.184169
vt 0.266981 0.181778
vt 0.273370 0.175901
vt 0.232566 0.954307
vt 0.240446 0.933883
vt 0.241084 0.954138
vt 0.231520 0.917884
vt 0.241084 0.901163
vt 0.239986 0.915914
vt 0.855015 0.253357
vt 0.853725 0.231367
vt 0.860165 0.235702
vt 0.852130 0.272587
vt 0.845857 0.294325
vt 0.844972 0.272187
vt 0.856026 0.311238
vt 0.853335 0.333356
vt 0.849190 0.314878
vt 0.277276 0.169205
vt 0.224852 0.954205
vt 0.231962 0.935196
vt 0.872040 0.218589
vt 0.861877 0.205826
vt 0.870893 0.203173
vt 0.863753 0.254577
vt 0.869032 0.236478
vt 0.860979 0.272995
vt 0.852940 0.292262
vt 0.864835 0.310815
vt 0.859995 0.328911
vt 0.872040 0.346032
vt 0.861120 0.356660
vt 0.862970 0.344963
vt 0.137406 0.202438
vt 0.123913 0.186715
vt 0.140507 0.193601
vt 0.090161 0.164170
vt 0.109500 0.175389
vt 0.102940 0.182118
vt 0.081245 0.143123
vt 0.085386 0.120500
vt 0.089968 0.140128
vt 0.081735 0.082069
vt 0.085416 0.101917
vt 0.076314 0.101206
vt 0.103671 0.049305
vt 0.099119 0.068394
vt 0.091112 0.064816
vt 0.119033 0.034528
vt 0.142527 0.025957
vt 0.125260 0.040020
vt 0.948392 0.157120
vt 0.940955 0.134106
vt 0.949324 0.133701
vt 0.949477 0.200739
vt 0.939543 0.178720
vt 0.947851 0.180153
vt 0.879809 0.824960
vt 0.881232 0.802024
vt 0.886363 0.819763
vt 0.873244 0.760862
vt 0.878785 0.782667
vt 0.871632 0.784166
vt 0.099224 0.042456
vt 0.086154 0.058623
vt 0.132294 0.013219
vt 0.114625 0.027621
vt 0.956330 0.157012
vt 0.957224 0.134519
vt 0.955824 0.178303
vt 0.870917 0.824808
vt 0.874388 0.806150
vt 0.864414 0.759681
vt 0.862768 0.783628
vt 0.873550 0.715683
vt 0.877400 0.738226
vt 0.868601 0.736854
vt 0.875822 0.681922
vt 0.886363 0.695946
vt 0.877261 0.696243
vt 0.949393 0.111074
vt 0.957292 0.112071
vt 0.941024 0.112237
vt 0.159347 0.197979
vt 0.157091 0.207010
vt 0.224624 0.975469
vt 0.232341 0.975389
vt 0.240847 0.975990
vt 0.305556 0.009066
vt 0.303203 0.000000
vt 0.940066 0.156373
vt 0.119109 0.194834
vt 0.224217 0.934179
vt 0.263552 0.014272
vt 0.873367 0.839977
vt 0.882485 0.841603
vt 0.084063 0.165598
vt 0.098099 0.159350
vt 0.862894 0.219549
vt 0.856451 0.215252
vt 0.244268 0.048709
vt 0.865611 0.806387
vt 0.076268 0.121749
vt 0.848250 0.250197
vt 0.223737 0.085859
vt 0.880250 0.761820
vt 0.090384 0.084455
vt 0.861774 0.292024
vt 0.239064 0.129753
vt 0.882431 0.716705
vt 0.110945 0.053799
vt 0.868876 0.328810
vt 0.264167 0.156246
vt 0.260224 0.162881
vt 0.298363 0.194629
vt 0.279972 0.192087
vt 0.289869 0.179173
vt 0.868647 0.361939
vt 0.852336 0.368305
vt 0.138912 0.018356
vt 0.159347 0.012658
vt 0.149016 0.000000
vt 0.867475 0.667418
vt 0.883498 0.676542
vt 0.156579 0.004371
vt 0.232611 0.903300
vt 0.941161 0.199122
vt 0.957292 0.196882
vt 0.223737 0.915211
vt 0.075167 0.144591
vt 0.884114 0.740821
vt 0.295552 0.203173
vt 0.305556 0.190331
vt 0.858072 0.374786
vt 0.873392 0.660450
vn -0.0140 0.8663 -0.4993
vn -0.8201 0.3083 -0.4821
vn 0.0287 0.8212 -0.5700
vn -0.1078 0.9272 -0.3587
vn -0.7347 0.1921 -0.6507
vn -0.7572 0.1973 -0.6226
vn -0.4222 0.9064 -0.0150
vn -0.7165 0.2091 -0.6655
vn -0.3790 0.9246 -0.0391
vn -0.3564 0.9330 -0.0499
vn -0.1366 0.4567 -0.8791
vn -0.3813 0.3783 -0.8435
vn -0.2589 0.9650 -0.0421
vn 0.1312 0.5228 -0.8423
vn 0.0352 0.5013 -0.8645
vn -0.6609 0.7147 -0.2287
vn 0.1451 0.4999 -0.8538
vn -0.4412 0.8909 -0.1078
vn 0.8595 0.5053 -0.0776
vn 0.6691 0.6834 0.2920
vn -0.2476 0.9519 -0.1804
vn 0.1964 0.6437 0.7397
vn 0.3590 0.6827 0.6365
vn 0.0213 0.5806 0.8139
vn -0.2816 0.9582 -0.0504
vn -0.2968 0.4624 0.8355
vn -0.2974 0.9536 -0.0463
vn -0.5635 0.3301 0.7573
vn 0.8004 -0.3370 0.4958
vn 0.7954 0.6005 0.0826
vn 0.7207 -0.2770 0.6355
vn 0.7268 -0.2841 0.6253
vn 0.6182 -0.3034 0.7251
vn 0.7172 -0.2690 0.6428
vn 0.3855 -0.3975 0.8327
vn -0.1490 0.5131 0.8453
vn -0.0265 -0.5249 0.8507
vn -0.4261 0.4124 0.8052
vn -0.0736 -0.5574 0.8270
vn -0.7060 0.2122 0.6757
vn -0.0736 -0.8267 0.5577
vn 0.7608 -0.3005 0.5752
vn 0.2156 -0.9645 0.1526
vn 0.0594 -0.9429 0.3279
vn 0.3540 -0.9352 0.0086
vn 0.2807 -0.9596 -0.0194
vn 0.3328 -0.9421 -0.0422
vn 0.3094 -0.9508 0.0137
vn 0.2685 -0.9632 -0.0101
vn 0.4785 -0.8721 0.1018
vn 0.0171 -0.4679 0.8836
vn -0.7914 -0.6064 -0.0777
vn -0.8639 -0.4985 0.0728
vn -0.4863 -0.7379 -0.4680
vn -0.6534 -0.7058 -0.2737
vn -0.3445 -0.6988 -0.6268
vn 0.3844 -0.9216 -0.0544
vn 0.1365 -0.4747 -0.8695
vn -0.0528 -0.5246 -0.8497
vn 0.4269 -0.4161 -0.8029
vn 0.2929 -0.4416 -0.8480
vn 0.7446 -0.2646 -0.6129
vn 0.5913 -0.3786 -0.7121
vn -0.7935 0.2397 -0.5593
vn -0.2259 -0.6067 -0.7621
vn 0.0672 0.4243 -0.9030
vn -0.7924 0.0085 0.6099
vn -0.7465 0.6497 0.1437
vn -0.1365 -0.2812 0.9499
vn 0.5620 0.0699 0.8242
vn 0.6072 0.7082 0.3602
vn -0.0451 0.9988 0.0193
vn -0.0425 -0.8786 0.4756
vn 0.5099 0.7078 0.4889
vn -0.6142 0.2784 -0.7384
vn 0.1408 -0.4764 0.8679
vn -0.1143 -0.5538 0.8248
vn -0.4981 0.8572 -0.1310
vn -0.4840 0.6260 0.6114
vn 0.7154 -0.6484 0.2603
vn 0.1947 0.3488 0.9168
vn 0.7972 0.5083 -0.3258
vn 0.1103 0.7868 -0.6073
vn 0.8403 0.3068 0.4469
s 1
f 10/1/1 12/2/2 9/3/3
f 13/4/4 15/5/5 16/6/6
f 18/7/7 20/8/8 17/9/9
f 21/10/10 23/11/11 24/12/12
f 25/13/13 27/14/14 28/15/15
f 30/16/16 32/17/17 29/18/18
f 34/19/19 10/20/1 9/21/3
f 36/22/20 14/23/21 13/24/4
f 39/25/22 17/26/9 38/27/23
f 40/28/24 22/29/25 21/30/10
f 42/31/26 26/32/27 25/33/13
f 44/34/28 30/16/16 29/18/18
f 47/35/29 35/36/30 34/19/19
f 50/37/31 36/38/20 49/39/32
f 52/40/33 38/27/23 51/41/34
f 53/42/35 41/43/36 40/28/24
f 55/44/37 43/45/38 42/31/26
f 57/46/39 45/47/40 44/48/28
f 60/49/41 48/50/42 47/51/29
f 63/52/43 49/53/32 62/54/44
f 64/55/45 52/56/33 51/57/34
f 67/58/46 53/59/35 66/60/47
f 69/61/48 55/62/37 68/63/49
f 70/64/50 58/65/51 57/66/39
f 74/67/52 60/68/41 73/69/53
f 76/70/54 62/71/44 75/72/55
f 77/73/56 65/74/57 64/75/45
f 80/76/58 66/77/47 79/78/59
f 82/79/60 68/63/49 81/80/61
f 84/81/62 70/64/50 83/82/63
f 11/83/64 73/69/53 12/84/2
f 16/85/6 76/70/54 75/72/55
f 20/86/8 78/87/65 77/73/56
f 23/88/11 79/78/59 24/89/12
f 27/90/14 81/91/61 28/92/15
f 31/93/66 83/94/63 32/95/17
f 12/84/2 72/96/67 8/97/68
f 73/69/53 59/98/69 72/96/67
f 60/49/41 46/99/70 59/100/69
f 46/101/70 34/19/19 33/102/71
f 33/102/71 9/21/3 7/103/72
f 7/104/72 12/2/2 8/105/68
f 16/85/6 74/67/52 11/83/64
f 75/72/55 61/106/73 74/67/52
f 61/107/73 49/53/32 48/50/42
f 48/108/42 36/22/20 35/36/30
f 35/36/30 13/24/4 10/20/1
f 13/4/4 11/109/64 10/1/1
f 15/110/5 77/73/56 76/111/54
f 76/112/54 64/55/45 63/52/43
f 64/55/45 50/113/31 63/52/43
f 51/41/34 37/114/74 50/37/31
f 38/27/23 14/115/21 37/114/74
f 14/116/21 20/8/8 15/5/5
f 19/117/75 79/78/59 78/87/65
f 78/87/65 66/77/47 65/74/57
f 65/118/57 53/59/35 52/56/33
f 53/42/35 39/25/22 52/40/33
f 40/28/24 18/119/7 39/25/22
f 21/10/10 19/120/75 18/7/7
f 28/92/15 80/76/58 23/88/11
f 81/91/61 67/121/46 80/76/58
f 68/63/49 54/122/76 67/58/46
f 54/123/76 42/31/26 41/43/36
f 41/43/36 25/33/13 22/29/25
f 22/124/25 28/15/15 23/11/11
f 32/95/17 82/125/60 27/90/14
f 83/82/63 69/61/48 82/79/60
f 69/61/48 57/66/39 56/126/77
f 56/127/77 44/48/28 43/45/38
f 43/128/38 29/18/18 26/129/27
f 29/18/18 27/14/14 26/129/27
f 6/130/78 31/131/66 30/16/16
f 45/132/40 6/130/78 30/16/16
f 58/133/51 5/134/79 45/47/40
f 71/135/80 4/136/81 58/65/51
f 2/137/82 71/135/80 84/81/62
f 1/138/83 84/139/62 31/93/66
f 33/102/71 7/103/72 72/96/67
f 3/140/84 1/138/83 4/136/81
f 10/1/1 11/109/64 12/2/2
f 13/4/4 14/116/21 15/5/5
f 18/7/7 19/120/75 20/8/8
f 21/10/10 22/124/25 23/11/11
f 25/13/13 26/129/27 27/14/14
f 30/16/16 31/131/66 32/17/17
f 34/19/19 35/36/30 10/20/1
f 36/22/20 37/141/74 14/23/21
f 39/25/22 18/119/7 17/26/9
f 40/28/24 41/43/36 22/29/25
f 42/31/26 43/45/38 26/32/27
f 44/34/28 45/132/40 30/16/16
f 47/35/29 48/108/42 35/36/30
f 50/37/31 37/114/74 36/38/20
f 52/40/33 39/25/22 38/27/23
f 53/42/35 54/123/76 41/43/36
f 55/44/37 56/127/77 43/45/38
f 57/46/39 58/133/51 45/47/40
f 60/49/41 61/107/73 48/50/42
f 63/52/43 50/113/31 49/53/32
f 64/55/45 65/118/57 52/56/33
f 67/58/46 54/122/76 53/59/35
f 69/61/48 56/126/77 55/62/37
f 70/64/50 71/135/80 58/65/51
f 74/67/52 61/106/73 60/68/41
f 76/70/54 63/142/43 62/71/44
f 77/73/56 78/87/65 65/74/57
f 80/76/58 67/121/46 66/77/47
f 82/79/60 69/61/48 68/63/49
f 84/81/62 71/135/80 70/64/50
f 11/83/64 74/67/52 73/69/53
f 16/85/6 15/143/5 76/70/54
f 20/86/8 19/117/75 78/87/65
f 23/88/11 80/76/58 79/78/59
f 27/90/14 82/125/60 81/91/61
f 31/93/66 84/139/62 83/94/63
f 12/84/2 73/69/53 72/96/67
f 73/69/53 60/68/41 59/98/69
f 60/49/41 47/51/29 46/99/70
f 46/101/70 47/35/29 34/19/19
f 33/102/71 34/19/19 9/21/3
f 7/104/72 9/3/3 12/2/2
f 16/85/6 75/72/55 74/67/52
f 75/72/55 62/71/44 61/106/73
f 61/107/73 62/54/44 49/53/32
f 48/108/42 49/144/32 36/22/20
f 35/36/30 36/22/20 13/24/4
f 13/4/4 16/6/6 11/109/64
f 15/110/5 20/86/8 77/73/56
f 76/112/54 77/145/56 64/55/45
f 64/55/45 51/57/34 50/113/31
f 51/41/34 38/27/23 37/114/74
f 38/27/23 17/26/9 14/115/21
f 14/116/21 17/9/9 20/8/8
f 19/117/75 24/89/12 79/78/59
f 78/87/65 79/78/59 66/77/47
f 65/118/57 66/60/47 53/59/35
f 53/42/35 40/28/24 39/25/22
f 40/28/24 21/30/10 18/119/7
f 21/10/10 24/12/12 19/120/75
f 28/92/15 81/91/61 80/76/58
f 81/91/61 68/146/49 67/121/46
f 68/63/49 55/62/37 54/122/76
f 54/123/76 55/44/37 42/31/26
f 41/43/36 42/31/26 25/33/13
f 22/124/25 25/13/13 28/15/15
f 32/95/17 83/94/63 82/125/60
f 83/82/63 70/64/50 69/61/48
f 69/61/48 70/64/50 57/66/39
f 56/127/77 57/46/39 44/48/28
f 43/128/38 44/34/28 29/18/18
f 29/18/18 32/17/17 27/14/14
f 6/130/78 1/147/83 31/131/66
f 45/132/40 5/148/79 6/130/78
f 58/133/51 4/149/81 5/134/79
f 71/135/80 3/140/84 4/136/81
f 2/137/82 3/140/84 71/135/80
f 1/138/83 2/150/82 84/139/62
f 72/96/67 59/100/69 46/99/70
f 46/99/70 33/102/71 72/96/67
f 7/103/72 8/105/68 72/96/67
f 5/148/79 4/136/81 1/138/83
f 3/140/84 2/137/82 1/138/83
f 1/138/83 6/130/78 5/148/79
