# Blender v2.79 (sub 0) OBJ File: 'Vehicle-2018-03-04.blend'
# www.blender.org
o Plane.007_Plane.009
v -1.304393 -1.033486 0.469381
v -0.698209 -1.033486 0.469381
v -1.103363 -1.033486 0.469381
v 0.410676 -0.036173 0.515538
v -0.320911 -0.625158 0.529141
v -0.322079 -0.065797 0.314750
v -1.151138 -0.397954 0.113799
v -1.304393 0.320190 -0.884295
v -0.698209 0.320190 -0.884295
v -1.103363 0.320190 -0.884295
v 0.410676 0.366346 0.113018
v -0.320911 0.379949 -0.475966
v -0.322079 0.165559 0.083395
v -1.151138 -0.018474 -0.279002
v -1.304393 -0.165469 -0.016277
v -0.698208 -0.165469 -0.016277
v -1.198341 -0.165469 -0.016277
v 0.638095 0.305516 0.454707
v -0.287317 0.076081 0.225273
v -1.302661 -0.190231 -0.041040
v -1.302661 -1.058249 0.444618
v -1.101631 -1.058249 0.444618
v -0.696476 -1.058249 0.444618
v -0.696476 -0.190231 -0.041040
v -1.302661 0.295427 -0.909057
v -1.101631 0.295427 -0.909057
v -0.696476 0.295427 -0.909057
v -1.112890 -0.347390 0.205308
v -1.112890 -0.085560 0.003555
v 0.401149 -0.016342 0.535370
v 0.628567 0.325347 0.474539
v -0.330439 -0.605326 0.548973
v -0.296845 0.095913 0.245105
v -1.112890 -1.013654 0.489213
v -0.331607 -0.045965 0.334582
v -1.112890 0.056116 -0.198199
v 0.401149 0.386178 0.132850
v -0.330439 0.399781 -0.456134
v -1.112890 0.340022 -0.864462
v -0.331607 0.185391 0.103227
v -1.304393 -0.018474 -0.279002
v -0.698209 -0.018474 -0.279002
v -1.304393 -0.397954 0.113799
v -0.698209 -0.397954 0.113799
vt 0.039461 0.512251
vt 0.063374 0.595348
vt 0.031114 0.514285
vt 0.255657 0.237224
vt 0.266311 0.000000
vt 0.294404 0.248750
vt 0.244360 0.472030
vt 0.304424 0.466887
vt 0.419453 0.266416
vt 0.329040 0.067171
vt 0.071721 0.472538
vt 0.080374 0.568989
vt 0.071721 0.569497
vt 0.008346 0.726975
vt 0.000000 0.729009
vt 0.016974 0.693210
vt 0.214294 0.246366
vt 0.170375 0.463447
vt 0.071424 0.256060
vt 0.189663 0.063024
vt 0.468725 0.691862
vt 0.484760 0.470726
vt 0.582137 0.467313
vt 0.614418 0.686756
vt 0.582137 0.928043
vt 0.080374 0.617099
vt 0.071721 0.617607
vt 0.950585 0.931240
vt 0.941974 0.931242
vt 0.893112 0.760790
vt 0.023454 0.472030
vt 0.015107 0.474063
vt 0.709617 0.233056
vt 0.719967 0.272829
vt 0.468725 0.233127
vt 0.922722 0.222655
vt 0.924944 0.302359
vt 0.732448 0.405763
vt 0.534143 0.302269
vt 0.719967 0.193250
vt 0.924944 0.163566
vt 0.732449 0.060040
vt 0.534143 0.163815
vt 0.950585 0.679080
vt 0.976220 0.466729
vt 0.957830 0.680189
vt 0.992749 0.466693
vt 0.986013 0.562021
vt 0.978762 0.563094
vt 0.827281 0.760803
vt 0.868496 0.931244
vt 0.801760 0.767836
vt 0.810300 0.698463
vt 0.791275 0.688108
vt 0.829606 0.627983
vt 0.801760 0.629043
vt 0.983471 0.790285
vt 0.976220 0.791358
vt 0.968974 0.981470
vt 0.960612 0.899483
vt 0.976220 0.982579
vt 0.953367 0.898374
vt 0.868496 0.465623
vt 0.875238 0.465620
vt 1.000000 0.998927
vt 0.992749 1.000000
vt 0.634736 0.628071
vt 0.644601 0.465620
vt 0.742633 0.465669
vt 0.742633 0.931289
vt 0.634243 0.760896
vt 0.743835 0.760952
vt 0.630454 0.698583
vt 0.744328 0.628127
vt 0.751467 0.698644
vt 0.071721 0.823885
vt 0.063375 0.825918
vt 0.019182 0.758341
vt 0.883849 0.698436
vt 0.875238 0.698437
vt 0.895437 0.627970
vt 0.071721 0.593314
vt 0.468725 0.472029
vt 0.080374 0.472030
vt 0.000000 0.458082
vt 0.630454 0.465620
vt 0.484760 0.931456
vt 0.630454 0.926350
vt 0.939091 0.465620
vt 0.939092 0.000000
vt 0.968974 0.465620
vt 1.000000 0.465620
vt 0.875238 0.931240
vt 0.791275 0.465694
vt 0.781410 0.628146
vt 0.780917 0.760970
vt 0.791275 0.931314
vt 0.644601 0.931239
vt 0.777128 0.698657
vt 0.941974 0.465621
vt 0.950585 0.465620
vn 0.0000 -0.9905 -0.1372
vn 0.5753 -0.1038 0.8113
vn -0.0844 -0.4593 0.8842
vn 0.3393 -0.6652 -0.6652
vn 0.9780 -0.1474 -0.1474
vn 0.3217 -0.4450 -0.8357
vn -0.1976 0.7077 0.6783
vn -0.3993 0.4252 0.8123
vn 0.5636 -0.8209 -0.0916
vn 0.7126 -0.6898 -0.1280
vn 0.5753 0.8113 -0.1037
vn 0.0000 -0.1372 -0.9905
vn -0.0841 0.8840 -0.4598
vn 0.7921 -0.4316 -0.4316
vn 0.6347 0.5464 0.5464
vn 0.6887 0.3540 0.6327
vn 0.3207 -0.8357 -0.4458
vn -0.3780 0.7963 0.4722
vn 0.5631 -0.0927 -0.8211
vn 0.7126 -0.1280 -0.6898
vn 0.5783 -0.8089 -0.1059
vn -0.7546 -0.4640 -0.4640
vn -0.5499 -0.1203 -0.8265
vn -0.6106 0.7831 -0.1176
vn -0.5499 -0.8265 -0.1203
vn -0.6106 -0.1176 0.7831
vn -0.7250 0.3363 0.6010
vn -0.3364 0.6649 0.6668
vn -0.3071 0.4562 0.8352
vn 0.5272 0.6008 0.6008
vn -0.5342 0.6459 0.5454
vn -0.6509 0.3352 0.6811
vn 0.0708 -0.1563 0.9852
vn 0.2289 -0.0822 0.9700
vn -0.3031 0.8376 0.4543
vn -0.6772 0.6481 0.3484
vn 0.0708 0.9852 -0.1563
vn 0.2289 0.9700 -0.0822
vn -0.6409 0.6862 -0.3439
vn -0.6420 -0.3437 0.6853
vn 0.6887 0.6327 0.3540
vn 0.5783 -0.1059 -0.8089
vn -0.6665 0.5271 0.5271
vn -0.7250 0.6010 0.3363
s 1
f 22/1/1 2/2/2 3/3/3
f 19/4/4 18/5/5 6/6/6
f 17/7/7 6/6/6 7/8/8
f 5/9/9 7/8/8 6/6/6
f 4/10/10 6/6/6 18/5/5
f 9/11/11 26/12/12 10/13/13
f 24/14/14 16/15/15 44/16/16
f 19/4/4 13/17/17 18/5/5
f 17/7/7 13/17/17 19/4/4
f 14/18/18 12/19/19 13/17/17
f 13/17/17 11/20/20 18/5/5
f 24/21/14 23/22/21 22/23/1
f 20/24/22 26/25/12 24/21/14
f 10/13/13 25/26/23 8/27/24
f 21/28/25 1/29/26 43/30/27
f 21/31/25 3/3/3 1/32/26
f 33/33/28 35/34/29 31/35/30
f 29/36/31 35/34/29 33/33/28
f 28/37/32 32/38/33 35/34/29
f 35/34/29 30/39/34 31/35/30
f 33/33/28 31/35/30 40/40/35
f 29/36/31 40/40/35 36/41/36
f 38/42/37 36/41/36 40/40/35
f 37/43/38 40/40/35 31/35/30
f 12/44/19 39/45/39 38/46/37
f 18/47/5 30/48/34 4/49/10
f 7/50/8 34/51/40 28/52/32
f 17/53/7 28/52/32 29/54/31
f 14/55/18 29/54/31 36/56/36
f 4/49/10 32/57/33 5/58/9
f 18/59/5 37/60/38 31/61/30
f 11/62/20 38/46/37 37/60/38
f 14/55/18 39/63/39 10/64/13
f 5/58/9 34/65/40 3/66/3
f 42/67/41 9/68/11 10/69/13
f 3/70/3 44/71/16 7/72/8
f 16/73/15 42/67/41 14/74/18
f 7/72/8 16/73/15 17/75/7
f 27/76/42 9/77/11 42/78/41
f 20/79/22 15/80/43 41/81/44
f 22/1/1 23/82/21 2/2/2
f 17/7/7 19/4/4 6/6/6
f 5/9/9 3/83/3 7/8/8
f 4/10/10 5/9/9 6/6/6
f 9/11/11 27/84/42 26/12/12
f 44/16/16 2/2/2 23/82/21
f 23/82/21 24/14/14 44/16/16
f 17/7/7 14/18/18 13/17/17
f 14/18/18 10/85/13 12/19/19
f 13/17/17 12/19/19 11/20/20
f 22/23/1 21/86/25 20/24/22
f 20/24/22 24/21/14 22/23/1
f 27/87/42 24/21/14 26/25/12
f 20/24/22 25/88/23 26/25/12
f 10/13/13 26/12/12 25/26/23
f 43/30/27 15/80/43 20/79/22
f 20/79/22 21/28/25 43/30/27
f 21/31/25 22/1/1 3/3/3
f 29/36/31 28/37/32 35/34/29
f 28/37/32 34/89/40 32/38/33
f 35/34/29 32/38/33 30/39/34
f 29/36/31 33/33/28 40/40/35
f 38/42/37 39/90/39 36/41/36
f 37/43/38 38/42/37 40/40/35
f 12/44/19 10/91/13 39/45/39
f 18/47/5 31/92/30 30/48/34
f 7/50/8 3/93/3 34/51/40
f 17/53/7 7/50/8 28/52/32
f 14/55/18 17/53/7 29/54/31
f 4/49/10 30/48/34 32/57/33
f 18/59/5 11/62/20 37/60/38
f 11/62/20 12/44/19 38/46/37
f 14/55/18 36/56/36 39/63/39
f 5/58/9 32/57/33 34/65/40
f 8/94/24 41/95/44 14/74/18
f 14/74/18 42/67/41 10/69/13
f 10/69/13 8/94/24 14/74/18
f 7/72/8 43/96/27 1/97/26
f 3/70/3 2/98/2 44/71/16
f 7/72/8 1/97/26 3/70/3
f 41/95/44 15/99/43 17/75/7
f 17/75/7 16/73/15 14/74/18
f 14/74/18 41/95/44 17/75/7
f 17/75/7 15/99/43 43/96/27
f 7/72/8 44/71/16 16/73/15
f 17/75/7 43/96/27 7/72/8
f 42/78/41 16/15/15 24/14/14
f 24/14/14 27/76/42 42/78/41
f 41/81/44 8/100/24 25/101/23
f 25/101/23 20/79/22 41/81/44
