# Blender v2.79 (sub 0) OBJ File: 'Vehicle-2018-03-29.blend'
# www.blender.org
o Chassis-Lvl1-Base.008_Chassis-Lvl1_Cube.016
v -0.112907 -0.634097 1.117796
v -0.117282 -0.709752 1.181271
v -0.052542 -0.632947 1.292611
v -0.050152 -0.544062 1.177516
v 0.075368 -0.544062 1.177516
v 0.076943 -0.632947 1.292611
v 0.141688 -0.709752 1.181271
v 0.138128 -0.634097 1.117796
v 0.140303 -0.739547 1.173956
v 0.137313 -0.803917 1.158156
v 0.074553 -0.743937 1.067501
v 0.076188 -0.736922 1.067031
v -0.050152 -0.724272 1.058291
v -0.052542 -0.733677 1.066816
v 0.076188 -0.743317 1.304421
v 0.074553 -0.863897 1.248816
v -0.052042 -0.736922 1.067031
v -0.050962 -0.743937 1.067501
v -0.113722 -0.803917 1.158156
v -0.116157 -0.739547 1.173956
v 0.076943 -0.733677 1.066816
v 0.075368 -0.724272 1.058291
v 0.074553 -1.075482 0.848146
v -0.050962 -1.075482 0.848146
v 0.137313 -1.135462 0.938806
v -0.113722 -1.135462 0.938806
v -0.050962 -0.863897 1.248816
v -0.050962 -1.195442 1.029461
v -0.092422 0.270518 -0.351359
v -0.027842 0.182233 -0.406834
v 0.074553 -1.195442 1.029461
v -0.052042 -0.743317 1.304421
v -0.014817 0.805953 -1.394619
v 0.109983 0.810388 -1.390624
v 0.095773 0.244858 -0.493629
v -0.023892 0.989893 -1.279714
v -0.034557 0.364643 -0.291794
v 0.087888 0.370613 -0.287924
v 0.100908 0.994198 -1.275499
v 0.153633 0.339023 -0.434129
v 0.167848 0.904513 -1.331059
v -0.081757 0.895773 -1.339274
v -0.032112 1.118948 -1.477378
v -0.089972 1.024828 -1.536943
v -0.565732 1.241178 -1.388354
v -0.507867 1.335303 -1.328789
v -0.004192 1.108328 -1.355469
v -0.479947 1.324683 -1.206879
v -0.092002 0.909468 -1.352679
v -0.034137 1.003588 -1.293118
v -0.509892 1.219943 -1.144529
v -0.567757 1.125823 -1.204089
v -0.119917 0.920083 -1.474594
v -0.595677 1.136438 -1.326004
v 0.078523 1.058198 -1.347383
v -0.025832 0.998843 -1.288644
v -0.085527 0.901748 -1.350089
v -0.040862 0.864008 -1.470274
v 0.060718 0.923703 -1.526854
v 0.120408 1.020798 -1.465409
v 0.079703 0.135103 -0.435214
v 0.107438 0.124553 -0.314099
v 0.093498 0.130338 -0.310454
v 0.164923 0.218058 -0.254929
v 0.150873 0.223708 -0.251349
v 0.166938 0.332663 -0.437984
v 0.109453 0.239158 -0.497154
v 0.194673 0.322113 -0.316869
v 0.371523 0.070938 -0.473604
v 0.324168 0.104528 -0.583959
v 0.144448 -0.007227 -0.540849
v 0.191803 -0.040817 -0.430494
v 0.305343 -0.001732 -0.396869
v 0.210633 0.065443 -0.617579
v -0.052247 -0.683207 1.363131
v 0.076503 -0.683207 1.363131
v -0.116622 -0.727162 1.176996
v 0.076503 -0.735572 1.066941
v -0.052247 -0.735572 1.066941
v 0.140878 -0.727162 1.176996
vt 0.665606 0.645386
vt 0.655386 0.648026
vt 0.657268 0.641145
vt 0.649634 0.641136
vt 0.643538 0.650280
vt 0.641754 0.644326
vt 0.643046 0.651959
vt 0.633101 0.652789
vt 0.633086 0.652178
vt 0.674912 0.655208
vt 0.675710 0.653998
vt 0.650800 0.647670
vt 0.649269 0.657424
vt 0.650371 0.652399
vt 0.674781 0.656342
vt 0.663077 0.653957
vt 0.674869 0.655629
vt 0.622301 0.655359
vt 0.633078 0.651801
vt 0.632577 0.650759
vt 0.647699 0.705314
vt 0.622540 0.655881
vt 0.642991 0.655671
vt 0.643026 0.672834
vt 0.662098 0.658195
vt 0.652979 0.673071
vt 0.654687 0.658148
vt 0.651125 0.669440
vt 0.666503 0.517571
vt 0.676259 0.517503
vt 0.646038 0.669501
vt 0.654819 0.652881
vt 0.622028 0.653907
vt 0.648624 0.669057
vt 0.617465 0.425389
vt 0.627180 0.509389
vt 0.617465 0.517963
vt 0.654645 0.422521
vt 0.647406 0.517671
vt 0.644405 0.427262
vt 0.676179 0.424212
vt 0.656865 0.517614
vt 0.638689 0.411065
vt 0.643814 0.387872
vt 0.646111 0.393149
vt 0.645161 0.414940
vt 0.648451 0.394499
vt 0.654438 0.420526
vt 0.654023 0.390280
vt 0.665556 0.419009
vt 0.652355 0.366799
vt 0.674092 0.411271
vt 0.650800 0.393245
vt 0.622397 0.407105
vt 0.631912 0.408516
vt 0.654332 0.421430
vt 0.665822 0.419878
vt 0.677515 0.417332
vt 0.619253 0.415727
vt 0.629713 0.417991
vt 0.635930 0.419673
vt 0.643247 0.420726
vt 0.665687 0.421016
vt 0.627231 0.429095
vt 0.635950 0.429631
vt 0.931622 0.140431
vt 0.943489 0.148244
vt 0.925542 0.152668
vt 0.944019 0.146695
vt 0.955888 0.149946
vt 0.969382 0.133517
vt 0.968550 0.121440
vt 0.970917 0.133765
vt 0.964799 0.143184
vt 0.955607 0.148390
vt 0.960185 0.109323
vt 0.967004 0.122062
vt 0.972731 0.150547
vt 0.638055 0.526143
vt 0.234960 0.722535
vt 0.234969 0.707247
vt 0.243771 0.722541
vt 0.951746 0.131297
vt 0.952096 0.128190
vt 0.944412 0.130657
vt 0.948804 0.132468
vt 0.951049 0.124559
vt 0.940655 0.120738
vt 0.628747 0.526366
vt 0.651669 0.649984
vt 0.662793 0.651984
vt 0.654027 0.650609
vt 0.633080 0.651991
vt 0.622131 0.654996
vt 0.663035 0.653128
vt 0.643194 0.651248
vt 0.622217 0.655178
vt 0.674894 0.655420
vt 0.637416 0.509283
vt 0.972731 0.102696
vt 0.252510 0.714909
vt 0.243852 0.707247
vt 0.226283 0.714891
vt 0.618861 0.518104
vn -0.9986 0.0535 -0.0046
vn -0.5242 0.6816 0.5106
vn -0.4910 0.7197 0.4909
vn 0.4966 0.7085 0.5014
vn 0.9980 0.0444 0.0452
vn 0.9987 0.0441 0.0270
vn 0.9979 -0.0508 -0.0402
vn 0.5296 0.1555 -0.8339
vn 0.4779 -0.1688 -0.8621
vn -0.5754 -0.3224 -0.7516
vn -0.4894 -0.6324 -0.6005
vn 0.5282 0.6829 0.5046
vn 0.4924 -0.4224 0.7610
vn 0.5221 -0.4992 0.6916
vn -0.5384 0.1721 -0.8249
vn -0.9984 -0.0424 -0.0385
vn -0.4845 -0.1319 -0.8648
vn 0.5765 -0.3565 -0.7352
vn 0.4979 -0.6421 -0.5829
vn -0.3962 -0.1301 -0.9089
vn 0.9985 -0.0340 0.0440
vn 0.3962 -0.1301 -0.9089
vn -0.9985 -0.0302 0.0462
vn -0.7924 -0.5087 -0.3366
vn -0.4930 -0.4212 0.7613
vn -0.3962 -0.8874 0.2357
vn -0.9992 -0.0275 -0.0305
vn -0.3444 -0.7940 -0.5009
vn 0.7924 -0.5087 -0.3366
vn -0.5225 -0.4979 0.6922
vn 0.3962 -0.8874 0.2357
vn -0.4172 -0.7730 -0.4780
vn 0.2705 -0.7813 -0.5624
vn -0.5321 0.6323 0.5630
vn 0.4952 0.7563 0.4276
vn 0.5030 0.7257 0.4695
vn -0.5434 0.7142 0.4412
vn 0.3432 0.7612 -0.5503
vn -0.7267 0.3143 -0.6108
vn -0.3535 0.9046 -0.2383
vn 0.4680 0.7770 0.4209
vn -0.1644 0.8330 0.5282
vn -0.0214 0.1082 0.9939
vn -0.7233 -0.4217 0.5468
vn -0.5218 -0.7130 0.4683
vn -0.9115 -0.3480 -0.2193
vn -0.4703 -0.7119 -0.5216
vn -0.3495 0.1692 0.9215
vn -0.1012 0.0568 -0.9932
vn -0.3607 0.5020 0.7861
vn -0.8799 -0.3982 0.2592
vn -0.3679 -0.7342 -0.5706
vn 0.3661 -0.2619 -0.8930
vn 0.7813 0.4160 -0.4652
vn 0.5410 0.7565 0.3675
vn -0.9878 -0.1097 0.1104
vn 0.5576 -0.6314 -0.5390
vn 0.9930 0.0779 -0.0887
vn -0.7597 -0.5474 -0.3510
vn 0.3497 -0.9293 -0.1184
vn -0.3532 -0.7913 -0.4991
vn -0.2845 -0.7416 0.6075
vn 0.9038 -0.0680 0.4225
vn 0.4118 0.7725 -0.4833
vn 0.3789 -0.5234 -0.7632
vn 0.9068 0.3605 -0.2184
vn 0.6727 0.6226 0.3998
vn 0.3964 -0.0946 0.9132
vn -0.2923 0.2356 -0.9268
vn 0.5766 0.6882 0.4403
vn 0.8991 -0.0482 0.4350
vn 0.0904 -0.9923 -0.0849
vn 0.1154 -0.5125 -0.8509
vn 0.7933 0.0951 0.6014
vn 0.9800 -0.1937 -0.0448
vn 0.6693 0.0317 -0.7423
vn -0.1711 -0.9678 0.1848
vn 0.5775 -0.7024 0.4162
vn -0.0865 -0.2368 -0.9677
vn -0.5047 -0.7077 -0.4944
vn 0.3624 -0.9246 -0.1172
vn 0.4703 0.0815 0.8787
vn -0.9985 0.0361 0.0416
vn -0.4705 0.0819 0.8786
vn 0.4848 -0.1646 -0.8590
vn -0.9974 -0.0395 -0.0608
vn 0.9970 -0.0481 -0.0605
vn -0.4898 -0.1270 -0.8625
vn 0.9900 0.1126 0.0855
vn -0.8637 0.4337 0.2566
vn 0.7895 0.5951 -0.1504
vn -0.9013 0.3727 0.2210
s 1
f 1/1/1 3/2/2 4/3/3
f 5/4/4 7/5/5 8/6/6
f 9/7/7 11/8/8 12/9/9
f 14/10/10 1/1/1 13/11/11
f 4/3/3 6/12/12 5/4/4
f 16/13/13 9/7/7 15/14/14
f 18/15/15 20/16/16 17/17/17
f 11/8/8 17/18/17 12/9/9
f 8/6/6 21/19/18 22/20/19
f 11/8/8 24/21/20 18/22/15
f 10/23/21 23/24/22 11/8/8
f 19/25/23 24/21/20 26/26/24
f 27/27/25 26/26/24 28/28/26
f 13/11/11 29/29/27 30/30/28
f 16/13/13 25/31/29 10/23/21
f 20/16/16 27/27/25 32/32/30
f 21/19/18 13/33/11 22/20/19
f 27/27/25 31/34/31 16/13/13
f 33/35/32 35/36/33 30/37/28
f 36/38/34 38/39/35 39/40/36
f 29/29/27 33/41/32 30/30/28
f 37/42/37 5/4/4 38/39/35
f 43/43/38 45/44/39 46/45/40
f 47/46/41 46/45/40 48/47/42
f 50/48/43 52/49/44 49/50/45
f 49/50/45 54/51/46 53/52/47
f 50/48/43 48/47/42 51/53/48
f 53/54/47 45/44/39 44/55/49
f 39/40/36 56/56/50 36/38/34
f 50/48/43 57/57/51 56/56/50
f 49/50/45 58/58/52 57/57/51
f 58/59/52 44/55/49 59/60/53
f 59/60/53 43/43/38 60/61/54
f 43/43/38 55/62/55 60/61/54
f 56/56/50 42/63/56 36/38/34
f 57/57/51 33/41/32 42/63/56
f 58/59/52 34/64/57 33/35/32
f 34/64/57 60/61/54 41/65/58
f 41/65/58 55/62/55 39/40/36
f 55/62/55 50/48/43 56/56/50
f 61/66/59 63/67/60 30/68/61
f 62/69/62 65/70/63 63/67/60
f 66/71/64 35/72/65 40/73/66
f 68/74/67 65/70/63 64/75/68
f 61/76/59 35/72/65 67/77/69
f 68/74/67 40/73/66 38/78/70
f 22/20/19 65/79/71 8/6/6
f 1/1/1 37/42/37 29/29/27
f 63/80/72 35/81/73 65/82/74
f 42/63/56 37/42/37 36/38/34
f 66/71/64 69/83/75 70/84/76
f 61/66/59 72/85/77 62/69/62
f 62/69/62 73/86/78 64/75/68
f 67/77/69 70/84/76 74/87/79
f 64/75/68 69/83/75 68/74/67
f 61/76/59 74/87/79 71/88/80
f 65/79/71 5/4/4 8/6/6
f 13/33/11 63/89/81 22/20/19
f 3/2/2 76/90/82 6/12/12
f 2/91/83 75/92/84 3/2/2
f 78/93/85 14/94/10 21/19/18
f 14/10/10 77/95/86 2/91/83
f 76/90/82 7/5/5 6/12/12
f 80/96/87 21/19/18 7/5/5
f 75/92/84 15/14/14 76/90/82
f 77/95/86 32/32/30 75/92/84
f 12/9/9 79/97/88 78/93/85
f 79/98/88 20/16/16 77/95/86
f 15/14/14 80/96/87 76/90/82
f 9/7/7 78/93/85 80/96/87
f 32/32/30 16/13/13 15/14/14
f 39/40/36 40/99/89 41/65/58
f 34/64/57 40/99/89 35/36/33
f 26/26/24 25/31/29 31/34/31
f 74/87/79 69/83/75 72/85/77
f 51/53/48 46/45/40 52/49/44
f 1/1/1 2/91/83 3/2/2
f 5/4/4 6/12/12 7/5/5
f 9/7/7 10/23/21 11/8/8
f 14/10/10 2/91/83 1/1/1
f 4/3/3 3/2/2 6/12/12
f 16/13/13 10/23/21 9/7/7
f 18/15/15 19/25/23 20/16/16
f 11/8/8 18/22/15 17/18/17
f 8/6/6 7/5/5 21/19/18
f 11/8/8 23/24/22 24/21/20
f 10/23/21 25/31/29 23/24/22
f 19/25/23 18/15/15 24/21/20
f 27/27/25 19/25/23 26/26/24
f 13/11/11 1/1/1 29/29/27
f 16/13/13 31/34/31 25/31/29
f 20/16/16 19/25/23 27/27/25
f 21/19/18 14/94/10 13/33/11
f 27/27/25 28/28/26 31/34/31
f 33/35/32 34/64/57 35/36/33
f 36/38/34 37/42/37 38/39/35
f 29/29/27 42/63/56 33/41/32
f 37/42/37 4/3/3 5/4/4
f 43/43/38 44/55/49 45/44/39
f 47/46/41 43/43/38 46/45/40
f 50/48/43 51/53/48 52/49/44
f 49/50/45 52/49/44 54/51/46
f 50/48/43 47/46/41 48/47/42
f 53/54/47 54/51/46 45/44/39
f 39/40/36 55/62/55 56/56/50
f 50/48/43 49/50/45 57/57/51
f 49/50/45 53/52/47 58/58/52
f 58/59/52 53/54/47 44/55/49
f 59/60/53 44/55/49 43/43/38
f 43/43/38 47/46/41 55/62/55
f 56/56/50 57/57/51 42/63/56
f 57/57/51 58/58/52 33/41/32
f 58/59/52 59/60/53 34/64/57
f 34/64/57 59/60/53 60/61/54
f 41/65/58 60/61/54 55/62/55
f 55/62/55 47/46/41 50/48/43
f 61/66/59 62/69/62 63/67/60
f 62/69/62 64/75/68 65/70/63
f 66/71/64 67/77/69 35/72/65
f 68/74/67 38/78/70 65/70/63
f 61/76/59 30/100/61 35/72/65
f 68/74/67 66/71/64 40/73/66
f 22/20/19 63/89/81 65/79/71
f 1/1/1 4/3/3 37/42/37
f 38/101/90 65/82/74 40/102/91
f 63/80/72 30/103/92 35/81/73
f 35/81/73 40/102/91 65/82/74
f 42/63/56 29/29/27 37/42/37
f 66/71/64 68/74/67 69/83/75
f 61/66/59 71/88/80 72/85/77
f 62/69/62 72/85/77 73/86/78
f 67/77/69 66/71/64 70/84/76
f 64/75/68 73/86/78 69/83/75
f 61/76/59 67/77/69 74/87/79
f 65/79/71 38/39/35 5/4/4
f 13/33/11 30/104/28 63/89/81
f 3/2/2 75/92/84 76/90/82
f 2/91/83 77/95/86 75/92/84
f 78/93/85 79/97/88 14/94/10
f 14/10/10 79/98/88 77/95/86
f 76/90/82 80/96/87 7/5/5
f 80/96/87 78/93/85 21/19/18
f 75/92/84 32/32/30 15/14/14
f 77/95/86 20/16/16 32/32/30
f 12/9/9 17/18/17 79/97/88
f 79/98/88 17/17/17 20/16/16
f 15/14/14 9/7/7 80/96/87
f 9/7/7 12/9/9 78/93/85
f 32/32/30 27/27/25 16/13/13
f 39/40/36 38/39/35 40/99/89
f 34/64/57 41/65/58 40/99/89
f 31/34/31 28/28/26 26/26/24
f 26/26/24 24/21/20 23/24/22
f 23/24/22 25/31/29 26/26/24
f 72/85/77 71/88/80 74/87/79
f 74/87/79 70/84/76 69/83/75
f 69/83/75 73/86/78 72/85/77
f 54/51/46 52/49/44 46/45/40
f 51/53/48 48/47/42 46/45/40
f 46/45/40 45/44/39 54/51/46
