# Blender v2.79 (sub 0) OBJ File: ''
# www.blender.org
o Chassis-Lvl1-Base.006_Chassis-Lvl1_Cube.000_cell.002_Chassis-Lvl1-Base.006_Chassis-Lvl1_Cube.000_cell.001
v 0.616591 -0.621019 0.693735
v -0.580341 0.390708 0.824573
v -0.665735 -0.345815 1.088544
v -0.319602 -0.201310 1.061126
v -0.349548 0.181409 1.026355
v -0.167876 -0.559610 0.863899
v -0.323554 0.393473 0.762880
v -0.704341 -0.190505 0.794420
v -0.621476 0.125262 0.755929
v -0.012287 -0.554624 0.626857
v -0.724649 -0.580143 0.853848
v -0.644921 -0.502352 1.087056
v -0.577384 0.211032 1.063391
v -0.582137 0.413531 0.717389
v -0.755422 -0.453249 0.764368
v -0.713826 -0.412740 0.857016
v 0.607098 0.378866 0.773446
v 0.600688 0.199353 1.064583
v 0.603253 -0.199958 1.078569
v 0.655728 0.145920 -1.000408
v -0.762111 -0.499659 -0.942100
v -0.738727 -0.379510 -0.947434
v -0.740722 -0.646806 -0.936748
v 0.009843 -0.606930 -0.956072
v -0.368009 -0.622924 -0.946507
v 0.610928 -0.686618 -0.967048
v 0.616538 -0.620592 0.694730
v 0.318663 -0.642168 -0.961968
v 0.608682 0.369215 0.716465
v 0.609572 0.112931 0.753859
v 0.608681 0.369230 0.716465
v -0.511980 0.150937 -0.973957
v -0.676480 0.150283 -0.969991
v -0.703469 0.005324 -0.963584
v -0.744030 -0.176422 -0.955392
v 0.609572 0.112932 0.753929
v -0.754760 -0.410236 -0.945883
v -0.741208 -0.646987 -0.936735
v 0.655925 0.145877 -1.000565
v -0.011496 -0.604878 -0.955656
v 0.608688 0.370333 0.716388
v 0.661157 -0.679071 -0.968481
v 0.662252 -0.686799 -0.968235
v 0.606936 0.378182 0.780534
v 0.603186 -0.199198 1.078594
v 0.600691 0.197505 1.064379
v -0.674781 0.151425 -0.970139
vt 0.804110 0.083027
vt 1.000000 0.106162
vt 0.777169 0.546447
vt 0.000000 0.903635
vt 0.223124 0.914834
vt 0.002080 0.916916
vt 0.135130 0.544821
vt 0.223124 0.605949
vt 0.015923 0.644635
vt 0.998502 0.546447
vt 0.735065 0.090291
vt 0.733072 0.075129
vt 0.784166 0.000000
vt 0.891280 0.000387
vt 0.009087 0.546063
vt 0.048493 0.540290
vt 0.080716 0.546382
vt 0.183879 0.555409
vt 0.222755 0.562435
vt 0.011570 0.826290
vt 0.020651 0.744573
vt 0.646024 0.934099
vt 0.601121 0.936516
vt 0.611862 0.910440
vt 0.326410 0.682485
vt 0.319455 0.597190
vt 0.326410 0.540290
vt 0.582980 0.463062
vt 0.646024 0.464278
vt 0.383435 0.938648
vt 0.376288 0.910685
vt 0.454487 0.917277
vt 0.724015 0.788624
vt 0.646024 0.778931
vt 0.724015 0.463062
vt 0.540934 0.922055
vt 0.625962 0.998643
vt 0.854396 0.559145
vt 0.960030 0.559915
vt 0.850625 0.801895
vt 0.223144 0.541390
vt 0.307031 0.786907
vt 0.232575 0.792541
vt 0.951975 0.809417
vt 0.376288 0.463062
vt 0.709548 0.000000
vt 0.733072 0.463062
vt 0.654396 0.463918
vt 0.290364 0.854783
vt 0.431065 0.463648
vt 0.584601 0.999374
vt 0.433789 1.000000
vt 0.319455 0.540290
vt 0.319455 0.855394
vt 0.750927 0.757063
vt 0.769808 0.887871
vt 0.811590 0.893560
vt 0.960030 0.870320
vt 0.302448 0.540796
vt 0.227054 0.059654
vt 0.184753 0.120699
vt 0.016359 0.104999
vt 0.376288 0.064566
vt 0.355472 0.000000
vt 0.223124 0.852951
vt 0.733072 0.546447
vt 0.379613 0.007030
vt 0.376288 0.533505
vt 0.000000 0.540290
vt 0.180616 0.534687
vn 0.9996 0.0074 0.0264
vn -0.0227 -0.0388 -0.9990
vn -0.0237 -0.0398 -0.9989
vn 0.9996 0.0076 0.0265
vn 0.9996 0.0073 0.0265
vn 0.9996 0.0074 0.0265
vn -0.0228 -0.0388 -0.9990
vn -0.0236 -0.0398 -0.9989
vn -0.0239 -0.0397 -0.9989
vn -0.0234 -0.0396 -0.9989
vn -0.6534 -0.7086 0.2662
vn -0.9470 0.0962 0.3065
vn -0.9882 0.0093 0.1526
vn -0.8819 0.4363 -0.1785
vn -0.8652 0.2466 0.4366
vn -0.9988 0.0489 0.0045
vn -0.6601 -0.7508 0.0227
vn -0.5643 0.7352 0.3757
vn -0.5152 0.6467 -0.5624
vn 0.0018 0.6724 -0.7402
vn -0.3799 -0.5116 0.7707
vn 0.0276 -0.3118 0.9497
vn -0.0169 0.4924 0.8702
vn 0.0817 -0.1166 0.9898
vn 0.0422 0.9095 0.4135
vn 0.0653 0.4592 0.8860
vn -0.6374 0.7702 0.0204
vn 0.0046 0.9998 0.0189
vn 0.0090 0.5927 -0.8054
vn -0.6385 0.0528 0.7678
vn -0.4668 0.4410 0.7665
vn 0.0752 -0.8732 0.4814
vn 0.0118 0.9753 0.2206
vn -0.0421 -0.9991 -0.0069
vn -0.0168 -0.9356 0.3527
vn -0.1173 -0.9926 0.0326
vn -0.0323 -0.9990 0.0317
s off
f 30/1/1 27/2/1 20/3/1
f 26/4/2 20/5/2 42/6/2
f 35/7/3 32/8/3 25/9/3
f 42/10/4 20/3/4 27/2/4
f 30/1/5 31/11/5 17/12/5
f 17/12/5 18/13/5 30/1/5
f 19/14/6 27/2/6 30/1/6
f 30/1/5 18/13/5 19/14/5
f 26/4/7 32/8/7 20/5/7
f 23/15/8 21/16/8 25/9/8
f 22/17/8 35/7/8 25/9/8
f 34/18/9 33/19/9 32/8/9
f 32/8/10 26/4/10 28/20/10
f 32/8/8 28/20/8 24/21/8
f 35/7/9 34/18/9 32/8/9
f 25/9/8 21/16/8 22/17/8
f 32/8/8 24/21/8 25/9/8
s 1
f 11/22/11 16/23/12 15/24/13
f 9/25/14 8/26/15 16/27/12
f 37/28/16 38/29/17 15/24/13
f 2/30/18 14/31/19 9/32/14
f 9/33/14 14/34/19 36/35/20
f 16/23/12 8/36/15 15/24/13
f 16/23/12 11/22/11 12/37/21
f 45/38/22 46/39/23 4/40/24
f 46/41/23 7/42/25 5/43/26
f 5/44/26 4/40/24 46/39/23
f 47/45/27 36/46/20 39/47/28
f 14/34/19 41/48/29 36/35/20
f 7/42/25 2/49/18 5/43/26
f 9/32/14 47/50/27 8/36/15
f 16/23/12 12/37/21 3/51/30
f 9/32/14 3/51/30 13/52/31
f 7/42/25 41/53/29 14/54/19
f 6/55/32 4/40/24 12/56/21
f 3/57/30 5/44/26 13/58/31
f 7/42/25 44/59/33 41/53/29
f 6/60/32 10/61/34 1/62/35
f 9/32/14 16/23/12 3/51/30
f 13/52/31 2/30/18 9/32/14
f 3/57/30 4/40/24 5/44/26
f 11/63/11 10/61/34 6/60/32
f 11/63/11 6/60/32 12/64/21
f 3/57/30 12/56/21 4/40/24
f 13/65/31 5/43/26 2/49/18
f 6/55/32 45/38/22 4/40/24
f 2/49/18 7/42/25 14/54/19
f 37/28/16 8/36/15 47/50/27
f 46/41/23 44/59/33 7/42/25
f 6/55/32 1/66/35 45/38/22
f 36/46/20 47/45/27 9/67/14
f 38/29/17 11/22/11 15/24/13
f 38/68/17 10/61/34 11/63/11
f 15/24/13 8/36/15 37/28/16
f 10/61/34 43/69/36 1/62/35
f 38/68/17 40/70/37 10/61/34
f 10/61/34 40/70/37 43/69/36
l 31 29
