# Blender v2.79 (sub 0) OBJ File: ''
# www.blender.org
o Chassis-Lvl1-Base.006_Chassis-Lvl1_Cube.000_cell_Chassis-Lvl1-Base.006_Chassis-Lvl1_Cube.000_cell.005
v 0.190459 0.412439 -0.694300
v -0.386780 -0.710462 -1.033676
v 0.318595 0.135833 -0.678354
v 0.027986 0.142465 -0.683647
v 0.235150 0.412388 -0.778542
v 0.047315 0.411341 -0.768641
v 0.096027 0.403697 -0.700898
v 0.351941 -0.424687 1.001939
v 0.374528 -0.540778 1.001269
v 0.365147 -0.667678 0.998877
v -0.372766 -0.647005 0.962166
v -0.796973 -0.698321 0.941807
v 0.380113 -0.593836 -1.022047
v 0.354723 -0.738981 -1.010523
v 0.357138 -0.215639 1.005445
v 0.287479 0.111102 1.007025
v 0.140150 0.110645 0.999635
v -0.010978 0.171355 -1.097497
v 0.007206 0.240175 -1.102759
v -0.020342 0.140889 -1.095160
v -0.950542 0.141419 -1.120633
v -0.866539 -0.785828 -1.040516
v -0.872162 0.107642 0.948827
v 0.397634 -0.212026 -1.053739
v 0.234846 0.393269 -1.109303
v 0.353005 -0.688023 0.997904
v -0.376216 -0.647603 0.962005
v -0.801748 -0.698962 0.939864
v -0.847181 -0.761562 -0.452316
v 0.383082 -0.579872 -1.023173
v 0.355133 -0.739487 -1.010496
v 0.357138 -0.215639 1.005445
v 0.287513 0.110650 1.007024
v 0.026992 0.265476 -1.104338
v -0.951443 0.142005 -1.118176
v -0.936580 0.138811 -0.749002
v -0.863671 -0.787745 -1.039829
v -0.397654 -0.710526 -1.033938
v -0.871483 0.107659 0.948842
v 0.398888 -0.211410 -1.053792
v 0.288423 0.200389 -1.091550
v 0.233775 0.393487 -1.109364
v 0.037868 0.390237 -1.114537
v 0.037837 0.390436 -1.114544
vt 0.289832 0.714906
vt 0.041999 0.829379
vt 0.066717 0.604217
vt 0.776185 0.809462
vt 0.686515 0.793292
vt 0.686278 0.757462
vt 0.033861 0.589926
vt 0.000000 0.584448
vt 0.004261 0.536991
vt 0.040266 0.595289
vt 0.058551 0.528180
vt 0.174303 0.511177
vt 0.278346 0.524128
vt 0.317406 0.533581
vt 0.298727 0.829379
vt 0.833433 0.807706
vt 0.892550 0.630942
vt 0.905567 0.807343
vt 0.865287 0.812925
vt 0.684616 0.511273
vt 0.905567 0.527679
vt 0.349801 0.497551
vt 0.603892 0.518538
vt 0.350234 0.587295
vt 0.577099 1.000000
vt 0.356760 1.000000
vt 0.596057 0.661245
vt 0.270218 0.409466
vt 0.032090 0.008905
vt 0.349801 0.000000
vt 0.664880 0.498269
vt 0.603892 0.581736
vt 0.604478 0.497551
vt 0.000000 0.511177
vt 0.684616 0.410298
vt 0.763890 0.408957
vt 0.685167 0.430824
vt 0.684616 0.009172
vt 0.684616 0.497551
vt 0.482143 0.487861
vt 0.482092 0.002880
vt 0.365051 0.481535
vt 0.645579 0.598599
vt 0.657863 0.619037
vt 0.619677 0.600229
vt 0.876813 0.003228
vt 0.785946 0.000000
vt 0.606873 0.715552
vt 0.678853 0.700697
vt 0.603892 0.738486
vt 0.606405 0.616723
vt 0.957284 0.498747
vt 0.857200 0.503129
vt 1.000000 0.008611
vt 1.000000 0.496956
vt 0.603892 0.700697
vt 0.657863 0.699333
vt 0.349801 0.000000
vt 0.678853 0.771280
vt 0.687193 0.511273
vt 0.606767 0.598599
vt 0.349801 0.409475
vt 0.678790 0.598599
vt 0.257560 0.509855
vn 0.0245 -0.0825 -0.9963
vn -0.0500 -0.0155 0.9986
vn 0.0277 -0.0838 -0.9961
vn 0.0278 -0.0840 -0.9961
vn 0.0261 -0.0815 -0.9963
vn 0.0278 -0.0839 -0.9961
vn -0.0501 -0.0155 0.9986
vn -0.0464 -0.0130 0.9988
vn -0.9951 -0.0906 0.0393
vn -0.9948 -0.0932 0.0401
vn -0.9956 -0.0883 0.0319
vn -0.9956 -0.0869 0.0362
vn -0.2660 0.9172 0.2964
vn -0.0052 0.9998 0.0185
vn 0.6361 0.7711 0.0258
vn -0.6486 0.7545 0.1001
vn -0.7636 0.5234 0.3779
vn -0.6385 0.7691 -0.0280
vn -0.0151 0.9994 0.0314
vn 0.2378 0.7196 0.6523
vn 0.8290 0.5087 0.2322
vn 0.6028 0.7908 0.1060
vn 0.6303 -0.7760 0.0224
vn 0.7237 -0.6894 0.0318
vn 0.0408 -0.9986 0.0329
vn 0.0569 -0.9978 0.0346
vn 0.1235 -0.9918 0.0317
vn -0.4520 0.6102 0.6506
vn 0.9937 0.1105 0.0160
vn 0.9951 -0.0977 0.0107
vn 0.9944 0.1050 0.0050
vn 0.5871 0.8078 -0.0536
vn 0.1545 -0.9872 0.0382
s off
f 38/1/1 35/2/1 20/3/1
f 15/4/2 16/5/2 17/6/2
f 34/7/3 43/8/3 42/9/3
f 20/3/4 19/10/4 41/11/4
f 42/9/4 41/11/4 34/7/4
f 24/12/4 13/13/4 14/14/4
f 38/1/5 37/15/5 35/2/5
f 19/10/6 34/7/6 41/11/6
f 41/11/4 24/12/4 20/3/4
f 24/12/4 14/14/4 20/3/4
f 20/3/4 14/14/4 38/1/4
f 8/16/7 15/4/7 11/17/7
f 26/18/2 9/19/2 11/17/2
f 23/20/8 12/21/8 11/17/8
f 9/19/2 8/16/2 11/17/2
f 17/6/7 23/20/7 11/17/7
f 11/17/7 15/4/7 17/6/7
f 35/22/9 37/23/9 36/24/9
f 12/25/10 23/26/10 29/27/10
f 36/24/11 37/23/11 29/27/11
f 29/27/12 23/26/12 36/24/12
s 1
f 4/28/13 39/29/14 33/30/15
f 18/31/16 6/32/17 44/33/18
f 39/29/14 4/28/13 21/34/19
f 1/35/20 3/36/21 5/37/22
f 31/38/23 10/39/24 27/40/25
f 2/41/26 27/40/25 28/42/27
f 1/43/20 5/44/22 7/45/28
f 32/46/29 3/36/21 33/47/15
f 7/48/28 4/49/13 1/50/20
f 6/51/17 7/45/28 5/44/22
f 32/46/29 30/52/30 40/53/31
f 10/54/24 31/55/23 30/52/30
f 44/56/18 5/44/22 25/57/32
f 2/41/26 28/42/27 22/58/33
f 1/50/20 4/49/13 3/59/21
f 25/60/32 3/36/21 40/53/31
f 18/31/16 7/61/28 6/32/17
f 25/60/32 5/37/22 3/36/21
f 32/46/29 40/53/31 3/36/21
f 33/30/15 3/62/21 4/28/13
f 31/38/23 27/40/25 2/41/26
f 18/31/16 4/63/13 7/61/28
f 32/46/29 10/54/24 30/52/30
f 44/56/18 6/51/17 5/44/22
f 4/28/13 18/64/16 21/34/19
