# Blender v2.79 (sub 0) OBJ File: ''
# www.blender.org
o Chassis-Lvl1-Base.006_Chassis-Lvl1_Cube.000_cell.001_Chassis-Lvl1-Base.006_Chassis-Lvl1_Cube.000_cell.000
v -0.599037 -0.855171 -0.299248
v -0.625844 -0.896058 0.226659
v -0.981723 -0.041496 -0.700110
v -0.341280 -0.281275 -0.833773
v -1.010071 0.225737 -0.738538
v 0.646753 0.236382 -0.739146
v 0.769692 -0.841124 -0.504745
v -0.876993 0.238029 -0.329350
v 0.646452 0.373722 -0.418560
v -0.914343 0.361526 -0.420058
v -0.133407 -0.804392 -0.025230
v 0.694830 -0.017285 -0.705508
v 0.813056 -0.296440 -0.457790
v 0.716796 -0.304043 -0.864778
v 0.792353 -0.713928 -0.593503
v 0.642310 0.777021 -0.375765
v -0.989864 0.453875 -0.631502
v 0.649050 0.262723 -0.333906
v 0.642387 0.626189 -0.284837
v -0.886118 0.611561 -0.287454
v 0.646446 0.468233 -0.632745
v 0.427222 0.248964 -0.331822
v 0.337851 0.068070 -0.265774
v -0.845879 0.097289 -0.260751
v 0.795232 -0.662982 0.782252
v 0.442054 0.196332 0.700720
v 0.422158 0.170890 0.702319
v -0.535576 0.073897 0.684766
v 0.017466 -0.779669 0.771027
v -0.448051 -0.856809 0.765606
v 0.812749 -0.281180 0.750710
v 0.812822 -0.280632 0.750654
v 0.703547 0.131091 0.713213
v 0.648892 0.324281 0.695545
v 0.452933 0.321040 0.690556
v -0.583619 -0.893487 0.352873
v -0.924862 0.764646 -0.375627
v -0.878194 0.243376 -0.331859
v -0.841329 0.083700 -0.249317
v -0.692860 -0.873115 0.022507
v -0.914324 0.362042 -0.419945
v -0.814856 -0.830499 -0.341645
v -1.012266 -0.290538 -0.844089
v 0.773101 -0.807594 0.793798
v 0.769841 -0.808136 0.793734
v 0.394734 0.103406 0.707849
v 0.394664 0.071801 0.709889
v -0.535049 0.073851 0.690937
v -0.451122 -0.857682 0.764886
v 0.017466 -0.779669 0.771027
v 0.650160 0.324122 0.695589
v 0.453100 0.321188 0.690541
v -0.924783 0.764031 -0.375507
v -0.886262 0.613599 -0.286132
v -0.857935 0.152374 -0.287115
v -0.781473 -0.830934 -0.240576
v -0.615889 -0.891303 0.254551
v -0.989642 0.456729 -0.632627
v -1.010129 0.226214 -0.739192
v -0.810838 -0.842342 -0.332479
v -0.981805 -0.039842 -0.703093
v -1.012266 -0.290538 -0.844089
vt 0.207509 0.567622
vt 0.213786 0.487222
vt 0.229268 0.558228
vt 0.602718 0.907605
vt 0.552742 0.864206
vt 0.660608 0.817325
vt 0.229852 0.805258
vt 0.023773 0.684384
vt 0.000000 0.492667
vt 0.032219 0.482713
vt 0.017117 0.805258
vt 0.234559 0.552534
vt 0.258705 0.496591
vt 0.262491 0.546778
vt 0.118098 0.469129
vt 0.477967 0.589100
vt 0.505188 0.533969
vt 0.638737 0.777446
vt 0.517860 0.511339
vt 0.580618 0.422343
vt 0.762122 0.562536
vt 0.451544 0.654458
vt 0.482297 0.863077
vt 0.436928 0.673832
vt 0.664413 0.913887
vt 0.673293 0.853037
vt 0.647837 0.795119
vt 0.742957 0.855912
vt 0.762122 0.896228
vt 0.430310 0.320109
vt 0.163550 0.146399
vt 0.421869 0.154619
vt 0.474192 0.267480
vt 0.534858 0.303592
vt 0.510529 0.357847
vt 0.094418 0.339280
vt 0.951837 0.118760
vt 0.987383 0.000000
vt 0.987383 0.351393
vt 0.082530 0.411796
vt 0.042249 0.327188
vt 0.769511 0.989792
vt 0.762122 0.740753
vt 0.816527 1.000000
vt 0.299732 0.526111
vt 0.302364 0.469129
vt 0.322142 0.469817
vt 0.566279 0.386835
vt 0.299866 0.861053
vt 0.562439 0.282662
vt 0.553939 0.018100
vt 0.629104 0.379599
vt 0.262491 0.549181
vt 0.418143 0.469129
vt 0.234132 0.455198
vt 0.205301 0.363808
vt 0.322188 0.870661
vt 0.390005 0.862764
vt 0.271941 0.853118
vt 0.390668 0.470207
vt 0.801118 0.355023
vt 0.698289 0.422343
vt 0.700780 0.316956
vt 0.006392 0.104056
vt 0.000283 0.038671
vt 0.404371 0.046830
vt 1.000000 0.435659
vt 0.769185 0.661331
vt 0.762122 0.422343
vt 0.419276 0.470205
vt 0.419276 0.872663
vt 0.436928 0.280721
vt 0.903735 0.001402
vt 0.951837 0.000000
vt 0.951837 0.264795
vt 0.436928 0.289704
vt 0.704462 0.006833
vt 0.832191 0.000000
vt 0.816527 0.739452
vt 0.415361 0.108690
vt 0.816527 0.902061
vt 0.853729 0.739452
vt 0.853729 0.911807
vt 1.000000 0.739452
vt 0.119792 0.469128
vt 0.832192 0.333401
vt 0.897633 0.000481
vt 0.832412 0.402444
vt 0.832191 0.000000
vt 0.897633 0.264477
vt 0.000000 0.142943
vt 0.004493 0.000000
vt 0.403590 0.007110
vt 0.897633 0.420706
vn -0.0268 0.0835 0.9961
vn -0.9490 -0.0590 0.3099
vn -0.0201 0.0805 0.9966
vn -0.0269 0.0835 0.9961
vn -0.0245 0.0777 0.9967
vn -0.0267 0.0835 0.9961
vn -0.0268 0.0834 0.9962
vn -0.9489 -0.0591 0.3101
vn -0.9465 -0.0631 0.3165
vn -0.9488 -0.0607 0.3100
vn -0.9489 -0.0590 0.3099
vn -0.9490 -0.0589 0.3098
vn -0.9489 -0.0591 0.3098
vn -0.9493 -0.0600 0.3086
vn -0.9487 -0.0591 0.3105
vn -0.9490 -0.0589 0.3099
vn 0.5275 -0.7660 -0.3672
vn -0.0294 -0.1014 -0.9944
vn 0.5118 -0.0024 -0.8591
vn 0.6064 0.0271 0.7947
vn 0.8473 0.0530 0.5284
vn 0.6778 0.3954 -0.6198
vn -0.0004 -0.9265 -0.3764
vn 0.0614 -0.9971 0.0439
vn 0.1413 -0.9896 -0.0279
vn -0.0035 -0.8419 -0.5395
vn -0.4056 0.7814 0.4742
vn -0.6214 0.7834 -0.0146
vn -0.2327 0.7523 0.6163
vn 0.7655 0.6050 0.2190
vn 0.6140 0.1712 -0.7705
vn 0.0026 0.5228 0.8524
vn 0.6188 0.7835 -0.0562
vn 0.7233 0.2962 -0.6238
vn 0.6605 -0.7503 0.0276
vn 0.0499 -0.9985 0.0215
vn -0.0013 0.0438 0.9990
vn -0.0009 0.0342 0.9994
vn 0.0219 0.7826 0.6220
vn 0.6768 -0.4248 -0.6012
vn 0.9838 0.1604 -0.0801
vn 0.0015 0.1879 -0.9822
vn -0.0013 0.1488 -0.9889
vn -0.0000 1.0000 -0.0061
vn 0.5550 0.8293 0.0643
vn -0.0089 0.9960 -0.0883
vn -0.6073 0.7937 -0.0348
vn 0.9953 0.0962 -0.0097
vn 0.0163 -0.0737 -0.9971
vn 0.1729 -0.9849 0.0031
vn -0.0046 0.5261 -0.8504
s off
f 47/1/1 33/2/1 27/3/1
f 59/4/2 61/5/2 38/6/2
f 47/1/3 48/7/3 29/8/3
f 29/8/4 45/9/4 25/10/4
f 48/7/5 30/11/5 29/8/5
f 26/12/1 27/3/1 33/2/1
f 34/13/6 35/14/6 26/12/6
f 31/15/1 33/2/1 47/1/1
f 29/8/4 25/10/4 31/15/4
f 34/13/1 26/12/1 33/2/1
f 47/1/7 29/8/7 31/15/7
f 40/16/8 57/17/8 39/18/8
f 36/19/9 30/20/9 48/21/9
f 36/19/10 48/21/10 57/17/10
f 56/22/8 40/16/8 39/18/8
f 62/23/11 60/24/11 61/5/11
f 58/25/12 59/4/12 41/26/12
f 61/5/13 60/24/13 39/18/13
f 57/17/14 48/21/14 39/18/14
f 55/27/12 38/6/12 61/5/12
f 56/22/15 39/18/15 60/24/15
f 59/4/16 38/6/16 41/26/16
f 54/28/12 37/29/12 58/25/12
f 39/18/12 55/27/12 61/5/12
f 41/26/12 54/28/12 58/25/12
s 1
f 7/30/17 4/31/18 14/32/19
f 19/33/20 9/34/21 21/35/22
f 7/30/17 1/36/23 4/31/18
f 11/37/24 1/38/23 7/39/17
f 1/36/23 2/40/25 42/41/26
f 23/42/27 46/43/28 22/44/29
f 22/45/29 18/46/30 9/47/21
f 21/35/22 9/34/21 6/48/31
f 22/45/29 9/47/21 8/49/32
f 18/50/30 51/51/33 12/52/34
f 18/50/30 6/48/31 9/34/21
f 22/45/29 8/49/32 23/53/27
f 44/54/35 50/55/36 11/56/24
f 10/57/37 9/47/21 20/58/38
f 11/56/24 2/40/25 1/36/23
f 24/59/39 23/53/27 8/49/32
f 19/60/20 20/58/38 9/47/21
f 15/61/40 14/62/19 13/63/41
f 9/47/21 10/57/37 8/49/32
f 3/64/42 5/65/43 6/66/31
f 14/62/19 12/52/34 13/63/41
f 23/67/27 28/68/44 46/69/28
f 20/58/38 16/70/45 53/71/46
f 14/32/19 15/72/40 7/30/17
f 52/73/47 51/74/33 18/75/30
f 16/76/45 19/33/20 21/35/22
f 51/51/33 32/77/48 12/52/34
f 13/63/41 32/77/48 15/61/40
f 12/52/34 32/77/48 13/63/41
f 32/77/48 44/78/35 15/61/40
f 12/52/34 6/48/31 18/50/30
f 46/43/28 52/79/47 22/44/29
f 12/80/34 3/64/42 6/66/31
f 3/81/42 4/82/18 43/83/49
f 20/58/38 19/60/20 16/70/45
f 23/67/27 24/84/39 28/68/44
f 49/85/50 11/56/24 50/55/36
f 15/61/40 44/78/35 7/86/17
f 21/87/22 53/88/46 16/89/45
f 52/73/47 18/75/30 22/90/29
f 4/31/18 42/41/26 43/91/49
f 44/54/35 11/56/24 7/30/17
f 6/66/31 17/92/51 21/93/22
f 4/31/18 12/80/34 14/32/19
f 49/85/50 2/40/25 11/56/24
f 21/87/22 17/94/51 53/88/46
f 4/31/18 1/36/23 42/41/26
f 6/66/31 5/65/43 17/92/51
f 4/31/18 3/64/42 12/80/34
