# Blender v2.79 (sub 0) OBJ File: 'Crystals.blend'
# www.blender.org
o SmallCrystal_Cone.028
v 0.910737 3.236892 -0.635582
v 1.062956 4.151105 -0.208499
v 1.268315 3.182421 -0.455148
v 1.401304 3.197836 -0.073755
v 1.231802 3.274108 0.285184
v 0.859101 3.366556 0.411406
v 0.501523 3.421027 0.230972
v 0.368534 3.405612 -0.150422
v 0.538036 3.329341 -0.509360
v 0.194522 -0.120584 -0.086644
v 0.439044 -0.157832 0.036742
v 0.529986 -0.147291 0.297550
v 0.414076 -0.095134 0.543003
v 0.159212 -0.031915 0.629317
v -0.085310 0.005333 0.505931
v -0.176252 -0.005208 0.245123
v -0.060342 -0.057365 -0.000329
v 1.109373 3.304343 -0.556113
v 1.183273 3.820051 0.041091
v 1.274451 3.779024 -0.151988
v 1.010567 3.800033 -0.454204
v 1.354656 3.284816 -0.275199
v 1.202913 3.770732 -0.357146
v 1.336400 3.330659 0.094967
v 0.810084 3.849762 -0.386307
v 1.065299 3.415018 0.337547
v 0.718907 3.890790 -0.193229
v 0.700159 3.488478 0.310441
v 0.790444 3.899082 0.011929
v 0.454875 3.508006 0.029527
v 0.982791 3.869781 0.108988
v 0.473132 3.462163 -0.340639
v 0.744233 3.377803 -0.583219
v 0.466607 1.532219 0.592287
v 0.335541 1.886830 1.652175
v 0.789759 1.252606 0.705873
v 0.931905 1.019289 1.108790
v 0.539220 0.777425 1.414198
v 0.184386 0.851885 1.502080
v -0.130119 1.171874 1.378675
v -0.107869 1.432259 1.007451
v 0.196514 1.434745 0.579037
v 0.301111 0.068509 -0.150212
v 0.497086 -0.051169 -0.019302
v 0.511962 -0.205241 0.194955
v 0.337025 -0.303456 0.367051
v 0.074752 -0.288280 0.396175
v -0.121223 -0.168602 0.265265
v -0.192187 -0.056710 0.125837
v -0.019924 0.037210 -0.050857
v 0.613697 1.366442 0.626120
v 0.626381 1.483874 1.672454
v 0.633287 1.583711 1.413399
v 0.536203 1.815322 1.105706
v 0.862554 1.156417 0.941787
v 0.660571 1.739373 1.188783
v 0.703067 1.023034 1.272094
v 0.281938 1.854577 1.107149
v 0.382322 0.907811 1.634166
v 0.134197 1.734364 1.305009
v 0.032103 1.052451 1.507354
v 0.122699 1.652040 1.555722
v -0.098428 1.334482 1.143422
v 0.369486 1.469602 1.758047
v 0.026647 1.453980 0.717133
v 0.300164 1.541850 0.610770
v -0.761681 2.247864 -0.473003
v -0.652478 2.969886 -0.158238
v -0.410056 2.009917 -0.571442
v 0.097736 2.068543 -0.484478
v 0.155404 2.257705 -0.159425
v -0.133681 2.634056 0.238336
v -0.465219 2.235603 0.538585
v -0.814762 2.122501 0.393770
v -0.937587 1.918555 0.065305
v -0.256919 -0.470516 -0.203067
v -0.016181 -0.416227 -0.327565
v 0.233514 -0.333532 -0.242617
v 0.345897 -0.270870 0.002018
v 0.255135 -0.264949 0.263034
v -0.043061 -0.316515 0.449454
v -0.235298 -0.401933 0.302584
v -0.405138 -0.461873 0.119871
v -0.616937 2.194238 -0.553752
v -0.250834 2.652860 -0.148369
v -0.807397 2.490167 -0.337260
v -0.166494 1.898108 -0.461085
v -0.535653 2.538518 -0.407628
v 0.098335 2.171732 -0.327701
v -0.827977 2.740186 -0.175425
v -0.019442 2.580126 -0.009169
v -0.745564 2.888551 -0.020104
v -0.270927 2.408055 0.368934
v -0.548780 2.887023 0.075678
v -0.689591 2.276921 0.477505
v -0.384503 2.820565 0.053457
v -0.954334 2.170639 0.236522
v -0.866290 2.116598 -0.212056
vt 0.047601 0.153432
vt 0.058299 0.061187
vt 0.080015 0.137580
vt 0.113857 0.150458
vt 0.093940 0.059587
vt 0.136194 0.128282
vt 0.276094 0.538210
vt 0.252953 0.624335
vt 0.242145 0.551279
vt 0.210047 0.534272
vt 0.217425 0.622217
vt 0.184077 0.549409
vt 0.828823 0.486373
vt 0.806824 0.577079
vt 0.794815 0.497997
vt 0.762658 0.482024
vt 0.771233 0.574740
vt 0.737387 0.503163
vt 0.348560 0.128285
vt 0.354462 0.046709
vt 0.380542 0.111823
vt 0.414371 0.125374
vt 0.389863 0.045143
vt 0.434115 0.111618
vt 0.251661 0.000000
vt 0.083125 0.658179
vt 0.050574 0.650373
vt 0.159957 0.134838
vt 0.159958 0.645463
vt 0.128433 0.656145
vt 0.434115 0.663646
vt 0.389112 0.665637
vt 0.296825 0.134903
vt 0.805093 0.000000
vt 0.850338 0.002974
vt 0.159958 0.534470
vt 0.217408 0.000135
vt 0.023087 0.133359
vt 0.032694 0.055047
vt 0.073048 0.000000
vt 0.364303 0.000000
vt 0.321769 0.116588
vt 0.745041 0.582637
vt 0.784190 0.638297
vt 0.850338 0.510588
vt 0.830966 0.588285
vt 0.228989 0.676235
vt 0.296825 0.556132
vt 0.118738 0.051185
vt 0.286445 0.936558
vt 0.257105 1.000000
vt 0.254900 0.918889
vt 0.434115 0.709970
vt 0.447463 0.603641
vt 0.464693 0.704649
vt 0.492022 0.710091
vt 0.489670 0.602410
vt 0.525442 0.686151
vt 0.577009 0.697311
vt 0.528669 0.592240
vt 0.599013 0.655996
vt 0.044807 0.824925
vt 0.025678 0.750343
vt 0.073334 0.813025
vt 0.695708 0.721595
vt 0.708817 0.644315
vt 0.740263 0.709760
vt 0.764714 0.702144
vt 0.750311 0.644868
vt 0.815439 0.714537
vt 0.843731 0.725604
vt 0.793454 0.638297
vt 0.850338 0.709127
vt 0.543064 0.920838
vt 0.320281 0.912163
vt 0.320281 0.676235
vt 0.187956 0.909150
vt 0.240848 0.683001
vt 0.218910 0.911595
vt 0.283353 0.688484
vt 0.810339 0.963939
vt 0.787964 0.973938
vt 0.677879 0.764837
vt 0.773174 0.986491
vt 0.603749 0.665893
vt 0.603749 0.895624
vt 0.309133 0.932724
vt 0.294821 0.996705
vt 0.111247 0.673588
vt 0.058021 0.696592
vt 0.076173 0.658179
vt 0.108028 0.711065
vt 0.083962 0.736233
vt 0.111247 0.804056
vt 0.009728 0.810094
vt 0.557276 0.575979
vt 0.000000 0.723457
vt 0.506178 0.532437
vt 0.230130 0.996520
vt 0.439304 0.596242
vt 0.583938 0.910898
vt 0.505070 0.919623
vt 0.850338 0.960360
vt 0.434115 0.103012
vt 0.447806 0.065098
vt 0.445852 0.116867
vt 0.466032 0.152929
vt 0.481995 0.068945
vt 0.504124 0.179855
vt 0.586439 0.139792
vt 0.546264 0.063975
vt 0.586439 0.084600
vt 0.990016 0.873690
vt 0.942598 0.907146
vt 0.974357 0.830456
vt 0.737387 0.412760
vt 0.664623 0.396042
vt 0.714744 0.370701
vt 0.889673 0.778808
vt 0.883521 0.913375
vt 0.859708 0.794934
vt 0.545701 0.165204
vt 0.502045 0.000000
vt 0.526667 0.526119
vt 0.679825 0.000000
vt 0.489532 0.530481
vt 0.444964 0.532437
vt 0.586439 0.374134
vt 0.646569 0.006720
vt 0.850338 0.777685
vt 0.914360 0.482003
vt 0.951373 0.478241
vt 0.990016 0.481311
vt 1.000000 0.080630
vt 1.000000 0.476010
vt 0.948334 0.472171
vt 0.923146 0.025624
vt 0.850338 0.091695
vt 0.635371 0.451303
vt 0.616422 0.411530
vt 0.656819 0.492849
vt 0.645708 0.529099
vt 0.673496 0.518956
vt 0.915026 0.794428
vt 0.919196 0.909791
vt 0.890694 0.937718
vt 0.879889 0.038868
vt 0.914186 0.000000
vt 0.549960 0.033701
vt 0.562033 0.150039
vt 0.952620 0.789372
vt 0.296825 0.002693
vt 0.000000 0.142018
vt 0.353734 0.670162
vt 0.159958 0.897972
vt 0.679434 0.733956
vt 0.737387 0.007105
vt 0.597091 0.402179
vt 0.956978 0.057674
vt 0.904210 0.478241
vn 0.2863 0.2474 -0.9256
vn 0.8438 0.1781 -0.5062
vn 0.9549 0.2332 0.1838
vn 0.5546 0.3802 0.7402
vn -0.1227 0.5332 0.8370
vn -0.6802 0.6024 0.4176
vn -0.7913 0.5474 -0.2724
vn -0.3910 0.4003 -0.8288
vn 0.8747 -0.1778 0.4508
vn -0.3377 -0.0813 -0.9377
vn 0.9121 -0.2717 -0.3071
vn 0.4099 -0.2317 -0.8822
vn -0.8928 0.0915 -0.4410
vn -0.9302 0.1853 0.3169
vn -0.4280 0.1453 0.8920
vn 0.3196 -0.0051 0.9475
vn -0.0346 0.3119 -0.9495
vn -0.2031 0.4010 -0.8933
vn -0.1279 0.5814 -0.8035
vn -0.6292 0.4745 -0.6156
vn -0.7000 0.5557 -0.4486
vn -0.5602 0.7159 -0.4167
vn -0.8073 0.5877 0.0530
vn -0.7334 0.6397 0.2299
vn -0.5893 0.7890 0.1736
vn -0.4646 0.5853 0.6645
vn -0.2838 0.6039 0.7448
vn -0.1982 0.7579 0.6215
vn 0.1982 0.4686 0.8609
vn 0.3855 0.4692 0.7945
vn 0.3841 0.6408 0.6648
vn 0.7928 0.3061 0.5270
vn 0.8824 0.3146 0.3498
vn 0.8164 0.5062 0.2779
vn 0.9710 0.1929 -0.1416
vn 0.9159 0.2306 -0.3287
vn 0.8455 0.4331 -0.3123
vn 0.6282 0.1953 -0.7531
vn 0.4663 0.2664 -0.8436
vn 0.4544 0.4643 -0.7603
vn 0.7231 0.5587 -0.4061
vn 0.9183 0.3737 -0.1310
vn 0.5744 -0.1321 0.8079
vn 0.6669 -0.3270 0.6695
vn -0.3308 -0.2749 0.9027
vn -0.8965 0.4116 0.1638
vn -0.6308 0.7389 -0.2370
vn -0.5699 0.6857 -0.4529
vn 0.6940 -0.5681 0.4424
vn -0.1083 0.4224 -0.8999
vn 0.9499 -0.0409 -0.3098
vn 0.5474 0.3286 -0.7697
vn -0.8792 0.2786 -0.3865
vn -0.9939 0.0665 -0.0880
vn -0.6916 -0.4675 0.5505
vn 0.0310 -0.6974 0.7160
vn -0.0029 0.8759 -0.4826
vn 0.1269 0.8413 -0.5254
vn 0.1518 0.9857 -0.0733
vn -0.3573 0.7584 -0.5451
vn -0.7483 0.6415 -0.1690
vn -0.6194 0.7850 0.0145
vn -0.8681 0.3724 0.3281
vn -0.8780 0.4653 0.1125
vn -0.7638 0.6228 0.1695
vn -0.6085 0.0280 0.7931
vn -0.6201 0.0305 0.7839
vn -0.5507 0.1629 0.8186
vn -0.5051 -0.1968 0.8403
vn 0.3197 -0.1971 0.9268
vn 0.2925 0.2575 0.9209
vn 0.8324 -0.2780 0.4794
vn 0.9920 0.1065 0.0675
vn 0.7808 0.5757 0.2427
vn 0.8865 0.4626 0.0118
vn 0.9407 0.2145 0.2629
vn 0.7910 0.4537 0.4105
vn 0.6195 0.6296 -0.4689
vn 0.6648 0.5960 -0.4504
vn 0.4879 0.8704 0.0653
vn 0.7231 -0.5456 0.4236
vn 0.9631 -0.1825 -0.1981
vn 0.6407 0.2583 -0.7230
vn -0.3033 0.4581 -0.8356
vn -0.7563 0.3626 -0.5446
vn -0.9250 -0.1535 0.3476
vn -0.6707 -0.4766 0.5684
vn -0.3205 0.4162 -0.8509
vn 0.5177 0.3631 -0.7747
vn 0.5463 0.5785 -0.6057
vn -0.1704 0.5686 0.8048
vn -0.9771 0.0712 -0.2004
vn -0.6121 0.4180 0.6713
vn 0.3031 0.5372 -0.7872
vn 0.9762 0.0602 -0.2083
vn -0.8988 -0.2130 -0.3831
vn 0.3316 -0.0329 -0.9428
vn -0.4251 -0.1586 -0.8911
vn -0.7016 -0.1409 0.6984
vn -0.5546 -0.1568 0.8172
vn 0.5222 0.0567 0.8510
vn 0.8533 0.1188 0.5078
vn -0.9323 0.0261 -0.3606
vn -0.9688 0.0734 -0.2366
vn -0.5031 0.4400 -0.7438
vn -0.9270 0.3320 0.1747
vn -0.7774 0.6065 -0.1668
vn -0.7797 0.3507 0.5188
vn -0.3560 0.5699 0.7406
vn -0.1882 0.8965 0.4010
vn 0.3482 0.6281 0.6959
vn 0.3882 0.9093 0.1500
vn 0.5576 0.8265 0.0773
vn 0.4696 0.8065 -0.3592
vn 0.6063 0.7610 -0.2308
vn 0.5896 0.6206 -0.5170
vn 0.2213 0.3363 -0.9154
vn -0.2973 0.4317 -0.8516
vn -0.2966 0.4165 -0.8594
vn -0.0515 0.7292 0.6823
vn 0.6544 0.6305 -0.4175
vn 0.8846 -0.1348 0.4464
vn -0.3290 -0.0381 -0.9436
vn 0.9221 -0.2287 -0.3123
vn 0.4193 -0.1887 -0.8880
vn -0.8846 0.1348 -0.4464
vn -0.9221 0.2287 0.3123
vn -0.4193 0.1887 0.8880
vn 0.3290 0.0381 0.9436
vn 0.5798 0.0822 0.8106
vn -0.0828 0.3559 -0.9309
vn 0.9279 0.0156 -0.3725
vn 0.5561 0.3239 -0.7654
vn -0.5601 0.3710 -0.7407
vn -0.9982 -0.0179 0.0565
vn -0.7268 -0.5622 0.3945
vn 0.0388 -0.6990 0.7140
vn -0.0673 -0.8786 0.4728
vn -0.9771 0.0718 -0.2004
vn -0.1032 0.0235 -0.9944
vn 0.9078 0.0091 -0.4194
vn 0.3442 0.7837 -0.5171
vn -0.8910 -0.2085 -0.4033
vn -0.8681 -0.2060 -0.4516
vn 0.4024 -0.0267 -0.9151
vn -0.0226 -0.1014 -0.9946
vn -0.3643 -0.1588 -0.9176
vn -0.5521 -0.5604 -0.6174
vn -0.8636 -0.2147 0.4562
vn -0.7407 -0.4104 0.5318
vn -0.3558 -0.0913 0.9301
vn -0.2976 -0.2573 0.9194
vn 0.6067 0.0881 0.7900
vn 0.6093 0.0887 0.7880
vn 0.9412 0.0917 0.3252
vn 0.8843 0.3220 0.3380
vn 0.0480 0.5417 0.8392
vn 0.5170 0.6372 -0.5716
s off
f 1/1/1 21/2/1 18/3/1
f 3/4/2 23/5/2 22/6/2
f 4/7/3 20/8/3 24/9/3
f 5/10/4 19/11/4 26/12/4
f 6/13/5 31/14/5 28/15/5
f 7/16/6 29/17/6 30/18/6
f 8/19/7 27/20/7 32/21/7
f 9/22/8 25/23/8 33/24/8
f 5/10/9 13/25/9 4/7/9
f 1/1/10 10/26/10 17/27/10
f 4/28/11 12/29/11 11/30/11
f 3/4/12 11/30/12 1/1/12
f 9/22/13 17/31/13 8/19/13
f 8/19/14 16/32/14 7/33/14
f 7/16/15 15/34/15 14/35/15
f 6/36/16 14/37/16 13/25/16
f 33/38/17 21/2/17 1/1/17
f 33/38/18 25/39/18 21/2/18
f 25/39/19 2/40/19 21/2/19
f 32/21/20 25/23/20 9/22/20
f 32/21/21 27/20/21 25/23/21
f 27/20/22 2/41/22 25/23/22
f 30/42/23 27/20/23 8/19/23
f 30/18/24 29/17/24 27/43/24
f 29/17/25 2/44/25 27/43/25
f 28/15/26 29/17/26 7/16/26
f 28/15/27 31/14/27 29/17/27
f 31/14/28 2/44/28 29/17/28
f 26/45/29 31/14/29 6/13/29
f 26/45/30 19/46/30 31/14/30
f 19/46/31 2/44/31 31/14/31
f 24/9/32 19/11/32 5/10/32
f 24/9/33 20/8/33 19/11/33
f 20/8/34 2/47/34 19/11/34
f 22/48/35 20/8/35 4/7/35
f 22/6/36 23/5/36 20/49/36
f 23/5/37 2/40/37 20/49/37
f 18/3/38 23/5/38 3/4/38
f 18/3/39 21/2/39 23/5/39
f 21/2/40 2/40/40 23/5/40
f 34/50/41 54/51/41 51/52/41
f 36/53/42 56/54/42 55/55/42
f 37/56/43 53/57/43 57/58/43
f 38/59/44 52/60/44 59/61/44
f 39/62/45 64/63/45 61/64/45
f 40/65/46 62/66/46 63/67/46
f 41/68/47 60/69/47 65/70/47
f 42/71/48 58/72/48 66/73/48
f 37/56/49 38/59/49 45/74/49
f 42/75/50 34/50/50 50/76/50
f 55/77/51 44/78/51 36/79/51
f 51/52/52 43/80/52 34/50/52
f 65/70/53 49/81/53 41/68/53
f 63/67/54 48/82/54 40/65/54
f 39/83/55 40/65/55 47/84/55
f 39/85/56 47/86/56 38/59/56
f 66/87/57 54/51/57 34/50/57
f 66/87/58 58/88/58 54/51/58
f 58/89/59 35/90/59 54/91/59
f 65/70/60 58/72/60 42/71/60
f 65/70/61 60/69/61 58/72/61
f 60/92/62 35/90/62 58/89/62
f 63/67/63 60/69/63 41/68/63
f 63/67/64 62/66/64 60/69/64
f 62/93/65 35/90/65 60/92/65
f 61/64/66 62/93/66 40/94/66
f 61/64/67 64/63/67 62/93/67
f 64/63/68 35/90/68 62/93/68
f 59/95/69 64/63/69 39/62/69
f 59/61/70 52/60/70 64/96/70
f 52/97/71 35/90/71 64/63/71
f 57/58/72 52/60/72 38/59/72
f 57/58/73 53/57/73 52/60/73
f 53/57/74 35/98/74 52/60/74
f 55/55/75 53/57/75 37/56/75
f 55/55/76 56/54/76 53/57/76
f 56/54/77 35/98/77 53/57/77
f 51/52/78 56/99/78 36/79/78
f 51/52/79 54/51/79 56/99/79
f 54/100/80 35/98/80 56/54/80
f 45/74/81 38/59/81 46/101/81
f 44/102/82 37/56/82 45/74/82
f 43/80/83 36/79/83 44/78/83
f 50/76/84 34/50/84 43/80/84
f 49/81/85 42/71/85 50/103/85
f 48/82/86 41/68/86 49/81/86
f 47/84/87 40/65/87 48/82/87
f 67/104/88 86/105/88 84/106/88
f 69/107/89 88/108/89 87/109/89
f 71/110/90 85/111/90 91/112/90
f 72/113/91 96/114/91 93/115/91
f 97/116/92 98/117/92 75/118/92
f 74/119/93 92/120/93 97/121/93
f 70/122/94 88/108/94 68/123/94
f 71/110/95 79/124/95 70/122/95
f 98/117/96 76/125/96 75/118/96
f 87/109/97 78/126/97 77/127/97
f 69/128/98 77/129/98 76/125/98
f 75/130/99 83/131/99 82/132/99
f 74/119/100 82/132/100 81/133/100
f 73/134/101 81/135/101 80/136/101
f 72/137/102 80/136/102 71/138/102
f 98/117/103 86/139/103 67/140/103
f 98/117/104 90/141/104 86/139/104
f 90/141/105 68/142/105 86/139/105
f 97/116/106 92/143/106 90/141/106
f 92/143/107 68/142/107 90/141/107
f 95/144/108 92/120/108 74/119/108
f 95/144/109 94/145/109 92/120/109
f 94/145/110 68/146/110 92/120/110
f 93/115/111 96/114/111 94/145/111
f 96/114/112 68/146/112 94/145/112
f 91/147/113 96/148/113 72/137/113
f 91/112/114 85/111/114 96/149/114
f 85/111/115 68/123/115 96/149/115
f 89/150/116 85/111/116 71/110/116
f 84/106/117 88/108/117 69/107/117
f 84/106/118 86/105/118 88/108/118
f 86/105/119 68/123/119 88/108/119
f 93/115/120 95/144/120 73/151/120
f 70/122/121 85/111/121 89/150/121
f 12/152/9 4/7/9 13/25/9
f 24/9/122 5/10/122 4/7/122
f 17/27/10 9/153/10 1/1/10
f 33/38/123 1/1/123 9/153/123
f 11/30/11 3/4/11 4/28/11
f 22/6/124 4/28/124 3/4/124
f 10/26/12 1/1/12 11/30/12
f 18/3/125 3/4/125 1/1/125
f 16/32/13 8/19/13 17/31/13
f 32/21/126 9/22/126 8/19/126
f 15/154/14 7/33/14 16/32/14
f 30/42/127 8/19/127 7/33/127
f 14/35/15 6/13/15 7/16/15
f 28/15/128 7/16/128 6/13/128
f 13/25/16 5/10/16 6/36/16
f 26/12/129 6/36/129 5/10/129
f 37/56/130 57/58/130 38/59/130
f 42/75/131 66/87/131 34/50/131
f 55/77/132 37/155/132 44/78/132
f 51/52/133 36/79/133 43/80/133
f 65/70/134 42/71/134 49/81/134
f 63/67/135 41/68/135 48/82/135
f 39/83/136 61/156/136 40/65/136
f 46/101/137 38/59/137 47/86/137
f 59/61/138 39/85/138 38/59/138
f 97/116/139 90/141/139 98/117/139
f 70/122/140 87/109/140 88/108/140
f 78/126/141 70/122/141 79/124/141
f 89/150/142 71/110/142 70/122/142
f 83/157/143 75/118/143 76/125/143
f 98/117/144 67/140/144 76/125/144
f 77/127/145 69/107/145 87/109/145
f 87/109/146 70/122/146 78/126/146
f 76/125/147 67/140/147 69/128/147
f 84/158/148 69/128/148 67/140/148
f 82/132/149 74/119/149 75/130/149
f 97/121/150 75/130/150 74/119/150
f 81/133/151 73/151/151 74/119/151
f 95/144/152 74/119/152 73/151/152
f 80/136/153 72/137/153 93/159/153
f 93/159/154 73/134/154 80/136/154
f 79/160/155 71/138/155 80/136/155
f 91/147/156 72/137/156 71/138/156
f 93/115/157 94/145/157 95/144/157
f 70/122/158 68/123/158 85/111/158
