# Blender v2.79 (sub 0) OBJ File: 'obstacles.blend'
# www.blender.org
o Cube.001_Cube.002
v -0.900776 -0.835765 -0.901411
v -0.966385 0.590599 -0.807579
v 0.914177 -0.829003 -0.911400
v 0.919172 0.750203 -0.860955
v -0.906059 -0.827569 0.908928
v -1.075062 0.811638 0.860792
v 0.911724 -0.833197 0.905951
v 0.924938 0.882145 0.884420
v 0.007188 -0.875000 -0.935346
v -0.940593 -0.014593 -0.919232
v 0.102267 0.657261 -1.024458
v 0.949123 0.025981 -0.979168
v 0.943403 -0.874614 0.002154
v 1.010941 0.688404 -0.157811
v 0.934407 0.000820 0.924937
v 0.007188 -0.875000 0.939654
v 0.007188 0.751166 1.002154
v -0.884249 0.110336 0.846218
v -0.931597 -0.873430 0.003003
v -1.075062 0.851618 0.056492
v 0.924938 0.989127 0.537701
v -0.907786 0.046225 0.106667
v -0.037656 0.092588 0.887254
v 0.996907 0.003084 0.002154
v 0.007188 0.008764 -1.103019
v -0.799860 1.086769 -0.672868
v 0.850317 1.136107 -0.830141
v -0.897288 1.289880 0.727285
v 0.852346 1.596604 0.891830
v -0.040460 1.534219 -0.698642
v 0.952834 1.144156 0.007671
v 0.007188 1.652333 0.851738
v -0.720057 1.509150 0.172844
v 0.106248 2.002397 0.000130
v -0.932588 -0.873398 0.500864
v 0.943403 -0.874614 0.502154
v -1.075062 0.658428 0.356330
v -1.011018 0.012815 0.491840
v 0.996907 0.003084 0.502154
v 0.945336 1.374691 0.369454
v -0.909317 1.356773 0.428481
v -0.009262 1.941504 0.431721
v -0.493455 -0.875417 -0.933349
v -0.533937 0.856781 0.949184
v -0.533937 0.724491 -0.869993
v -0.494445 -0.873475 0.940770
v -0.500364 0.056632 0.868894
v -0.497953 -0.003334 -0.981865
v -0.458839 1.397052 1.077327
v -0.562376 1.189431 -0.833393
v -0.523821 1.707514 0.002154
v -0.459290 1.651257 0.323373
v 0.546906 0.741038 -0.985822
v 0.506545 -0.874807 0.939654
v 0.508102 -0.873986 -0.936716
v 0.466063 0.763503 1.002154
v 0.534699 -0.057377 1.080415
v 0.514500 0.008116 -1.008802
v 0.518051 1.382063 -0.647292
v 0.466063 1.681599 0.780291
v 0.518574 1.828688 -0.076801
v 0.641778 1.936841 0.393103
v 0.994762 -0.890627 -0.424324
v -1.075062 0.729435 -0.324711
v 0.924938 0.678084 -0.613377
v -0.931597 -0.875339 -0.495141
v -1.003093 -0.002716 -0.476205
v 0.996907 0.009658 -0.508802
v -0.826857 1.249496 -0.335370
v 0.970949 1.480110 -0.615518
v -0.035765 1.884527 -0.290023
v -0.488760 1.602432 -0.379394
v 0.558163 1.531969 -0.432554
vt 0.273494 0.230229
vt 0.347241 0.357532
vt 0.268979 0.362956
vt 0.614508 0.356434
vt 0.686710 0.196312
vt 0.690646 0.358335
vt 0.445587 0.847585
vt 0.372902 0.715640
vt 0.441441 0.700936
vt 0.246470 0.837128
vt 0.304137 0.726755
vt 0.326637 0.837212
vt 0.624671 0.817853
vt 0.703954 0.966207
vt 0.634976 0.987081
vt 0.146928 0.682846
vt 0.216916 0.606564
vt 0.216158 0.703858
vt 0.193573 0.247867
vt 0.265826 0.102345
vt 0.415696 0.227958
vt 0.378196 0.142816
vt 0.418495 0.080788
vt 0.326637 0.987679
vt 0.253396 0.996668
vt 0.073703 1.000000
vt 0.141439 0.829602
vt 0.163522 0.998159
vt 0.093563 0.719406
vt 0.071749 0.837913
vt 0.357725 0.543783
vt 0.431391 0.530123
vt 0.627282 0.666245
vt 0.521659 0.523629
vt 0.611545 0.517472
vt 0.525249 0.701703
vt 0.683962 0.511357
vt 0.611017 0.517472
vt 0.443910 0.516940
vt 0.524300 0.354489
vt 0.520808 0.515528
vt 0.432140 0.351295
vt 0.498108 0.228055
vt 0.342105 0.508809
vt 0.269021 0.518874
vt 0.086226 0.366566
vt 0.178644 0.520272
vt 0.088313 0.521539
vt 0.177834 0.367657
vt 0.307830 0.613807
vt 0.224609 0.539156
vt 0.097739 0.532577
vt 0.124597 0.560010
vt 0.078449 0.590305
vt 0.795588 0.099746
vt 0.859263 0.202829
vt 0.785103 0.209043
vt 0.956485 0.102818
vt 1.000000 0.209471
vt 0.914232 0.224604
vt 0.624568 0.175318
vt 0.529597 0.144859
vt 0.595741 0.103913
vt 0.078049 0.231595
vt 0.028657 0.159734
vt 0.071983 0.146695
vt 0.024834 0.603596
vt 0.541924 0.821283
vt 0.466312 0.945053
vt 0.690646 0.064956
vt 0.736620 0.103469
vt 0.722736 0.177309
vt 0.813251 0.266924
vt 0.754135 0.307113
vt 0.690646 0.233356
vt 0.007856 0.820398
vt 0.000000 0.992904
vt 0.384528 0.932458
vt 0.347241 0.846429
vt 0.165014 0.078326
vt 0.867203 0.288440
vt 0.082718 0.055220
vt 0.163605 0.000000
vt 0.000000 0.254422
vt 0.006130 0.367361
vt 0.014629 0.514242
vt 0.722439 0.030071
vt 0.347241 0.082378
vt 0.271935 0.067235
vt 0.516084 0.017718
vt 0.601537 0.000000
vt 0.699256 0.672664
vt 0.684838 0.520227
vt 0.326933 0.152587
vt 0.340133 0.222956
vt 0.552336 0.987081
vt 0.896508 0.000000
vt 0.881906 0.122781
vt 0.155270 0.521539
vt 0.347241 0.346345
vt 0.356102 0.503524
vt 0.278500 0.634981
vt 0.708205 0.834441
vt 0.371295 0.213737
vt 1.000000 0.103600
vt 0.001981 0.693155
vt 0.804003 0.320052
vt 0.823663 0.009805
vt 0.992960 0.033414
vt 0.938702 0.283159
vn 0.1053 0.2413 -0.9647
vn 0.6979 0.0078 -0.7161
vn 0.1019 -0.0349 -0.9942
vn 0.9973 -0.0112 0.0724
vn 0.7839 0.0660 0.6174
vn 0.7703 0.0184 0.6373
vn -0.2181 -0.0628 0.9739
vn -0.6066 -0.0426 0.7938
vn -0.0551 -0.0227 0.9982
vn -0.9983 -0.0566 -0.0124
vn -0.7078 0.1904 -0.6802
vn -0.6902 0.0274 -0.7230
vn 0.0679 0.0684 0.9953
vn 0.5542 0.4697 0.6872
vn 0.0035 0.6145 0.7889
vn -0.9852 0.1682 -0.0325
vn -0.8018 0.5453 -0.2443
vn -0.9838 0.1366 -0.1161
vn -0.0222 0.2059 -0.9783
vn 0.0518 0.6297 -0.7751
vn 0.9924 0.0666 -0.1032
vn 0.4747 0.2985 -0.8280
vn 0.6444 0.6976 -0.3132
vn -0.6999 -0.0766 -0.7101
vn -0.9959 -0.0807 -0.0408
vn -0.9990 -0.0443 -0.0004
vn -0.9945 -0.0967 -0.0399
vn -0.9994 -0.0143 0.0310
vn -0.9995 -0.0312 -0.0011
vn -0.9976 -0.0590 0.0357
vn -0.6721 0.0140 0.7403
vn -0.0314 0.0768 0.9965
vn 0.0432 0.0151 0.9989
vn -0.0698 -0.0129 0.9975
vn 0.0472 -0.1711 0.9841
vn -0.1388 -0.0305 0.9898
vn 0.7306 -0.1149 0.6731
vn 0.9973 -0.0608 0.0408
vn 0.9990 -0.0309 -0.0309
vn 0.9995 -0.0302 0.0086
vn 0.9962 -0.0607 0.0615
vn 0.9972 0.0132 -0.0739
vn 0.9937 0.0942 -0.0612
vn 0.6874 -0.0692 -0.7230
vn 0.0328 -0.0816 -0.9961
vn -0.1683 0.0313 -0.9852
vn -0.0107 -0.1079 -0.9941
vn -0.0424 -0.0557 -0.9975
vn -0.0347 -0.0283 -0.9990
vn -0.4101 0.4133 -0.8130
vn -0.5341 0.7309 -0.4248
vn -0.5181 0.8092 0.2769
vn -0.7143 0.6995 -0.0219
vn -0.8047 0.5930 0.0278
vn 0.5016 0.8606 0.0878
vn -0.0425 0.9822 -0.1828
vn -0.2711 0.8986 0.3449
vn 0.3750 0.8396 -0.3930
vn 0.0014 0.6275 -0.7786
vn -0.1096 0.8748 -0.4719
vn 0.9960 0.0580 0.0679
vn 0.9646 0.2619 -0.0298
vn 0.9639 0.2585 -0.0631
vn -0.2559 0.1444 -0.9558
vn -0.6901 0.4584 -0.5600
vn -0.7314 0.5111 0.4514
vn -0.0011 -0.0490 0.9988
vn -0.2636 0.4234 0.8667
vn -0.0643 0.6348 0.7699
vn -0.7857 0.1204 0.6067
vn -0.6016 0.7973 -0.0477
vn 0.5537 0.7239 -0.4115
vn 0.8191 0.1618 -0.5502
s 1
f 53/1/1 12/2/2 58/3/3
f 39/4/4 8/5/5 15/6/6
f 44/7/7 18/8/8 47/9/9
f 67/10/10 2/11/11 10/12/12
f 56/13/13 29/14/14 60/15/15
f 20/16/16 69/17/17 64/18/18
f 11/19/19 59/20/20 53/1/1
f 65/21/21 27/22/22 70/23/23
f 67/10/10 1/24/24 66/25/25
f 35/26/26 22/27/27 19/28/28
f 37/29/29 22/27/27 38/30/30
f 47/9/9 5/31/31 46/32/32
f 57/33/33 16/34/34 54/35/35
f 56/13/13 23/36/36 57/33/33
f 39/4/4 7/37/37 36/38/38
f 63/39/39 24/40/40 13/41/41
f 68/42/42 14/43/43 24/40/40
f 58/3/3 3/44/44 55/45/45
f 48/46/46 9/47/47 43/48/48
f 48/46/46 11/19/19 25/49/49
f 50/50/50 69/17/17 72/51/51
f 52/52/52 33/53/53 41/54/54
f 62/55/55 34/56/56 42/57/57
f 73/58/58 30/59/59 71/60/60
f 21/61/61 31/62/62 40/63/63
f 45/64/64 26/65/65 50/66/50
f 37/29/29 28/67/66 41/54/54
f 17/68/67 49/69/68 44/7/7
f 20/16/16 41/54/54 33/53/53
f 21/61/61 29/70/14 8/5/5
f 60/71/15 42/57/57 32/72/69
f 52/73/52 28/74/66 49/75/68
f 24/40/40 36/38/38 13/41/41
f 18/76/8 37/29/29 38/30/30
f 5/77/31 38/30/30 35/26/26
f 14/43/43 39/4/4 24/40/40
f 32/72/69 52/73/52 49/75/68
f 44/7/7 28/78/66 6/79/70
f 11/19/19 50/66/50 30/80/59
f 42/57/57 51/81/71 52/73/52
f 30/80/59 72/82/51 71/83/60
f 2/84/11 48/46/46 10/85/12
f 1/86/24 48/46/46 43/48/48
f 16/34/34 47/9/9 46/32/32
f 17/68/67 47/9/9 23/36/36
f 29/87/14 62/55/55 60/71/15
f 70/88/23 59/20/20 73/89/58
f 40/63/63 61/90/72 62/91/55
f 9/47/47 58/3/3 55/45/45
f 15/92/6 56/13/13 57/33/33
f 7/93/37 57/33/33 54/35/35
f 53/1/1 27/94/22 4/95/73
f 56/13/13 32/96/69 17/68/67
f 11/19/19 58/3/3 25/49/49
f 31/97/62 73/58/58 61/98/72
f 71/60/60 51/81/71 34/56/56
f 61/98/72 71/60/60 34/56/56
f 51/99/71 69/17/17 33/53/53
f 12/100/2 65/21/21 68/42/42
f 3/101/44 68/42/42 63/39/39
f 19/28/28 67/10/10 66/25/25
f 65/21/21 31/62/62 14/43/43
f 64/18/18 26/102/65 2/11/11
f 22/27/27 64/18/18 67/10/10
f 53/1/1 4/95/73 12/2/2
f 39/4/4 21/61/61 8/5/5
f 44/7/7 6/79/70 18/8/8
f 67/10/10 64/18/18 2/11/11
f 56/13/13 8/103/5 29/14/14
f 20/16/16 33/53/53 69/17/17
f 11/19/19 30/80/59 59/20/20
f 65/21/21 4/104/73 27/22/22
f 67/10/10 10/12/12 1/24/24
f 35/26/26 38/30/30 22/27/27
f 37/29/29 20/16/16 22/27/27
f 47/9/9 18/8/8 5/31/31
f 57/33/33 23/36/36 16/34/34
f 56/13/13 17/68/67 23/36/36
f 39/4/4 15/6/6 7/37/37
f 63/39/39 68/42/42 24/40/40
f 68/42/42 65/21/21 14/43/43
f 58/3/3 12/2/2 3/44/44
f 48/46/46 25/49/49 9/47/47
f 48/46/46 45/64/64 11/19/19
f 50/50/50 26/102/65 69/17/17
f 52/52/52 51/99/71 33/53/53
f 62/55/55 61/98/72 34/56/56
f 73/58/58 59/105/20 30/59/59
f 21/61/61 14/43/43 31/62/62
f 45/64/64 2/84/11 26/65/65
f 37/29/29 6/106/70 28/67/66
f 17/68/67 32/96/69 49/69/68
f 20/16/16 37/29/29 41/54/54
f 21/61/61 40/63/63 29/70/14
f 60/71/15 62/55/55 42/57/57
f 52/73/52 41/107/54 28/74/66
f 24/40/40 39/4/4 36/38/38
f 18/76/8 6/106/70 37/29/29
f 5/77/31 18/76/8 38/30/30
f 14/43/43 21/61/61 39/4/4
f 32/72/69 42/57/57 52/73/52
f 44/7/7 49/69/68 28/78/66
f 11/19/19 45/64/64 50/66/50
f 42/57/57 34/56/56 51/81/71
f 30/80/59 50/66/50 72/82/51
f 2/84/11 45/64/64 48/46/46
f 1/86/24 10/85/12 48/46/46
f 16/34/34 23/36/36 47/9/9
f 17/68/67 44/7/7 47/9/9
f 29/87/14 40/108/63 62/55/55
f 70/88/23 27/94/22 59/20/20
f 40/63/63 31/62/62 61/90/72
f 9/47/47 25/49/49 58/3/3
f 15/92/6 8/103/5 56/13/13
f 7/93/37 15/92/6 57/33/33
f 53/1/1 59/20/20 27/94/22
f 56/13/13 60/15/15 32/96/69
f 11/19/19 53/1/1 58/3/3
f 31/97/62 70/109/23 73/58/58
f 71/60/60 72/110/51 51/81/71
f 61/98/72 73/58/58 71/60/60
f 51/99/71 72/51/51 69/17/17
f 12/100/2 4/104/73 65/21/21
f 3/101/44 12/100/2 68/42/42
f 19/28/28 22/27/27 67/10/10
f 65/21/21 70/23/23 31/62/62
f 64/18/18 69/17/17 26/102/65
f 22/27/27 20/16/16 64/18/18
