# Blender v2.79 (sub 0) OBJ File: 'obstacles.blend'
# www.blender.org
o Cube_Cube.001
v -0.903564 -0.835766 0.907964
v -0.809733 0.839434 0.973573
v -0.913554 -0.829003 -0.906989
v -0.863109 0.999037 -0.911984
v 0.906774 -0.827570 0.913247
v 0.858638 1.060473 1.082250
v 0.903797 -0.833197 -0.904536
v 0.882267 1.006562 -0.917750
v -0.937500 -0.875000 0.000000
v -0.921385 -0.014593 0.947781
v -1.089100 1.012736 0.046382
v -0.981322 0.025981 -0.941935
v 0.000000 -0.874614 -0.936215
v 0.000000 1.024675 -0.917750
v 0.922783 0.000820 -0.927219
v 0.937500 -0.875000 0.000000
v 1.000000 1.000000 0.000000
v 0.844065 0.110336 0.891437
v 0.000849 -0.873430 0.938785
v 0.054339 1.100452 1.082250
v 0.500000 1.024675 -0.917750
v 0.104513 0.046225 0.914973
v 0.885100 0.092588 0.044844
v 0.000000 0.003084 -0.989719
v -1.105172 0.008764 0.000000
v -0.675021 1.637759 0.807048
v -0.832294 1.687097 -0.843129
v 0.725131 1.840870 0.904476
v 0.713828 2.280940 -0.817997
v -0.834543 2.191838 -0.018113
v 0.032178 1.846225 -0.945646
v 0.849585 2.203324 0.000000
v 0.170690 2.060140 0.727244
v -0.002024 2.553388 -0.099060
v 0.498711 -0.873398 0.939776
v 0.500000 -0.874614 -0.936215
v 0.496368 0.978358 1.082250
v 0.489686 0.012815 1.018206
v 0.500000 0.003084 -0.989719
v 0.331753 2.227838 -0.938148
v 0.426328 1.907764 0.916505
v 0.349585 2.465833 0.016450
v -0.935502 -0.875417 0.500643
v 1.071447 1.052293 0.541125
v -0.872147 0.973325 0.541125
v 0.938616 -0.873475 0.501633
v 1.008931 0.012197 0.507551
v -0.984018 -0.003334 0.505141
v 0.917271 2.001337 0.493044
v -0.835547 1.740422 0.569564
v 0.000000 2.258505 0.531009
v 0.383428 2.300004 0.466478
v -1.112393 1.031441 -0.496716
v 0.937500 -0.874807 -0.499357
v -0.938869 -0.873986 -0.500914
v 1.000000 1.012337 -0.458875
v 1.078261 -0.057377 -0.527511
v -1.010955 0.008115 -0.507312
v -0.862732 2.039697 -0.510863
v 0.778137 2.232590 -0.458875
v 0.018802 2.193053 -0.511386
v 0.390949 2.487831 -0.634591
v -0.426478 -0.890627 -0.987574
v -0.326865 0.978269 1.082250
v -0.500000 1.024675 -0.917750
v -0.497295 -0.875340 0.938785
v -0.478358 -0.002716 1.010281
v -0.510955 0.009658 -0.989719
v -0.337524 1.800486 0.834045
v -0.519915 1.897796 -0.963761
v -0.381046 2.524386 0.042953
v -0.381548 2.153423 0.495947
v -0.443594 2.251811 -0.550975
vt 0.743505 0.646082
vt 0.667744 0.803757
vt 0.667695 0.646814
vt 0.926149 0.364285
vt 1.000000 0.205669
vt 1.000000 0.367321
vt 0.093632 0.310577
vt 0.031992 0.160380
vt 0.098222 0.143676
vt 0.427042 0.138500
vt 0.369329 0.273651
vt 0.349211 0.137434
vt 0.349211 0.301631
vt 0.271292 0.499396
vt 0.268565 0.302920
vt 0.521147 0.313960
vt 0.451169 0.429484
vt 0.454536 0.294347
vt 0.833693 0.809687
vt 0.731521 0.972806
vt 0.738649 0.809657
vt 0.758774 0.193831
vt 0.705463 0.085321
vt 0.761398 0.053644
vt 0.351604 0.006703
vt 0.422748 0.000000
vt 0.596638 0.000488
vt 0.528088 0.147841
vt 0.509714 0.000402
vt 0.598255 0.294521
vt 0.596111 0.141054
vt 0.026535 0.009660
vt 0.098241 0.001628
vt 0.278650 0.130870
vt 0.185876 0.000676
vt 0.273111 0.000000
vt 0.179689 0.156231
vt 0.990841 0.501004
vt 0.920021 0.505070
vt 0.758100 0.501701
vt 0.838845 0.361054
vt 0.832717 0.501839
vt 0.749675 0.356698
vt 0.846077 0.197062
vt 0.679303 0.510278
vt 0.750316 0.505070
vt 0.920455 0.649795
vt 0.837768 0.507581
vt 0.925173 0.510190
vt 0.831531 0.648315
vt 0.362151 0.423673
vt 0.441047 0.490889
vt 0.574441 0.514912
vt 0.539197 0.472676
vt 0.585211 0.445574
vt 0.153428 0.583211
vt 0.067404 0.654427
vt 0.058147 0.608163
vt 0.162178 0.722743
vt 0.087932 0.799237
vt 0.048747 0.717099
vt 0.933381 0.200293
vt 0.857448 0.065470
vt 0.912443 0.006165
vt 0.921500 0.807310
vt 0.965031 0.916485
vt 0.922065 0.930717
vt 0.637250 0.435111
vt 0.188384 0.301589
vt 0.104076 0.463271
vt 0.979618 0.000000
vt 0.150382 0.540743
vt 0.084490 0.543687
vt 0.667695 0.466862
vt 0.657048 0.158583
vt 0.667695 0.008286
vt 0.190788 0.495172
vt 0.111384 0.512494
vt 0.032765 0.438557
vt 0.000000 0.313176
vt 0.816778 1.000000
vt 0.000000 0.684527
vt 0.005949 0.622727
vt 0.358012 0.504507
vt 0.437821 0.556877
vt 0.998138 0.788512
vt 0.998138 0.650722
vt 0.996214 0.518909
vt 0.199641 0.538566
vt 0.255924 0.739067
vt 0.175336 0.796987
vt 0.222336 0.595667
vt 0.161673 0.656309
vt 0.349211 0.140028
vt 0.344096 0.006190
vt 0.675806 0.914668
vt 0.257993 0.658117
vt 0.507981 0.507252
vt 0.502908 0.563677
vt 0.695196 0.195593
vt 0.667695 0.350994
vt 0.673546 0.488590
vt 0.391959 0.403793
vt 0.334368 0.506808
vt 0.661541 0.307722
vt 0.190387 0.538566
vt 0.256944 0.799237
vn -0.9875 -0.0663 -0.1424
vn -0.5188 0.0630 -0.8525
vn -0.7306 0.0140 -0.6826
vn 0.0604 -0.0003 -0.9982
vn 0.6242 0.1069 -0.7739
vn 0.6342 0.0123 -0.7731
vn 0.9908 0.0489 0.1260
vn 0.6831 -0.0270 0.7298
vn 0.9977 -0.0110 0.0673
vn -0.0089 -0.0469 0.9988
vn -0.6989 0.1278 0.7036
vn -0.7182 0.0116 0.6957
vn 0.8281 0.5552 -0.0775
vn 0.9912 0.0755 -0.1081
vn -0.0285 0.0942 0.9951
vn -0.2083 0.4844 0.8497
vn -0.1064 0.0803 0.9911
vn -0.9762 0.1041 0.1902
vn -0.7690 0.5617 -0.3051
vn -0.9686 0.0753 -0.2369
vn -0.0308 0.0389 -0.9987
vn -0.6697 0.2167 -0.7103
vn -0.2161 0.4169 -0.8828
vn -0.7101 -0.0766 0.6999
vn -0.0408 -0.0807 0.9959
vn -0.0004 -0.0443 0.9990
vn -0.0312 -0.0646 0.9974
vn 0.0310 -0.0143 0.9994
vn 0.0116 -0.0072 0.9999
vn 0.0184 -0.0505 0.9985
vn 0.7036 -0.0575 0.7082
vn 0.9960 -0.0793 0.0401
vn 0.9991 0.0051 -0.0414
vn 0.9977 -0.0633 0.0250
vn 0.9841 -0.1711 -0.0472
vn 0.9999 0.0030 0.0080
vn 0.6731 -0.1149 -0.7306
vn 0.0408 -0.0608 -0.9973
vn -0.0309 -0.0309 -0.9990
vn 0.0089 0.0150 -0.9998
vn 0.0615 -0.0607 -0.9962
vn -0.0533 0.0187 -0.9984
vn 0.0001 0.0183 -0.9998
vn -0.7230 -0.0692 -0.6874
vn -0.9961 -0.0816 -0.0328
vn -0.9833 -0.0081 0.1818
vn -0.9941 -0.1079 0.0107
vn -0.9975 -0.0557 0.0424
vn -0.9935 -0.1067 0.0396
vn -0.7849 0.3740 0.4939
vn -0.3841 0.6776 0.6272
vn 0.2049 0.8576 0.4716
vn -0.1081 0.6095 0.7854
vn -0.0141 0.5296 0.8481
vn -0.0135 0.9409 -0.3383
vn -0.0284 0.9983 -0.0515
vn 0.2936 0.9316 0.2143
vn -0.2019 0.8298 -0.5202
vn -0.7790 0.6175 0.1092
vn -0.3328 0.9312 0.1488
vn 0.0192 0.0477 -0.9987
vn -0.0767 0.2777 -0.9576
vn -0.1896 0.4686 -0.8628
vn -0.9411 0.1008 0.3228
vn -0.5485 0.3872 0.7411
vn 0.4664 0.4920 0.7351
vn 0.9981 -0.0024 -0.0608
vn 0.8063 0.5116 0.2969
vn 0.6401 0.5153 -0.5698
vn 0.7970 0.6027 0.0394
vn 0.5475 0.0644 0.8343
vn -0.0903 0.7821 0.6166
vn -0.2762 0.7407 -0.6124
s 1
f 58/1/1 4/2/2 12/3/3
f 39/4/4 8/5/5 15/6/6
f 44/7/7 18/8/8 47/9/9
f 67/10/10 2/11/11 10/12/12
f 8/13/5 60/14/13 56/15/14
f 20/16/15 69/17/16 64/18/17
f 11/19/18 59/20/19 53/21/20
f 65/22/21 27/23/22 70/24/23
f 67/10/10 1/25/24 66/26/25
f 35/27/26 22/28/27 19/29/28
f 37/30/29 22/28/27 38/31/30
f 47/9/9 5/32/31 46/33/32
f 57/34/33 16/35/34 54/36/35
f 56/15/14 23/37/36 57/34/33
f 39/4/4 7/38/37 36/39/38
f 63/40/39 24/41/40 13/42/41
f 68/43/42 14/44/43 24/41/40
f 58/1/1 3/45/44 55/46/45
f 48/47/46 9/48/47 43/49/48
f 48/47/46 11/19/18 25/50/49
f 50/51/50 69/17/16 72/52/51
f 52/53/52 33/54/53 41/55/54
f 62/56/55 34/57/56 42/58/57
f 73/59/58 30/60/59 71/61/60
f 21/62/61 31/63/62 40/64/63
f 45/65/64 26/66/65 50/67/50
f 37/30/29 28/68/66 41/55/54
f 17/69/67 49/70/68 44/7/7
f 20/16/15 41/55/54 33/54/53
f 21/62/61 29/71/69 8/5/5
f 60/72/13 42/58/57 32/73/70
f 49/74/68 41/55/54 28/68/66
f 24/41/40 36/39/38 13/42/41
f 18/75/8 37/30/29 38/31/30
f 5/76/31 38/31/30 35/27/26
f 14/44/43 39/4/4 24/41/40
f 32/77/70 52/78/52 49/70/68
f 44/7/7 28/79/66 6/80/71
f 11/19/18 50/67/50 30/81/59
f 42/58/57 51/82/72 52/83/52
f 30/84/59 72/52/51 71/85/60
f 2/86/11 48/47/46 10/87/12
f 1/88/24 48/47/46 43/49/48
f 16/35/34 47/9/9 46/33/32
f 23/37/36 44/7/7 47/9/9
f 29/89/69 62/56/55 60/72/13
f 70/90/23 59/91/19 73/59/58
f 40/92/63 61/93/73 62/56/55
f 9/48/47 58/1/1 55/46/45
f 15/94/6 56/15/14 57/34/33
f 7/95/37 57/34/33 54/36/35
f 53/21/20 27/96/22 4/2/2
f 56/15/14 32/77/70 17/69/67
f 25/50/49 53/21/20 58/1/1
f 31/97/62 73/59/58 61/93/73
f 71/85/60 51/98/72 34/99/56
f 73/59/58 34/57/56 61/93/73
f 51/98/72 69/17/16 33/54/53
f 4/100/2 68/43/42 12/101/3
f 3/102/44 68/43/42 63/40/39
f 19/29/28 67/10/10 66/26/25
f 65/22/21 31/63/62 14/44/43
f 64/18/17 26/103/65 2/11/11
f 22/28/27 64/18/17 67/10/10
f 58/1/1 53/21/20 4/2/2
f 39/4/4 21/62/61 8/5/5
f 44/7/7 6/80/71 18/8/8
f 67/10/10 64/18/17 2/11/11
f 8/13/5 29/104/69 60/14/13
f 20/16/15 33/54/53 69/17/16
f 11/19/18 30/81/59 59/20/19
f 65/22/21 4/100/2 27/23/22
f 67/10/10 10/12/12 1/25/24
f 35/27/26 38/31/30 22/28/27
f 37/30/29 20/16/15 22/28/27
f 47/9/9 18/8/8 5/32/31
f 57/34/33 23/37/36 16/35/34
f 56/15/14 17/69/67 23/37/36
f 39/4/4 15/6/6 7/38/37
f 63/40/39 68/43/42 24/41/40
f 68/43/42 65/22/21 14/44/43
f 58/1/1 12/3/3 3/45/44
f 48/47/46 25/50/49 9/48/47
f 48/47/46 45/65/64 11/19/18
f 50/51/50 26/103/65 69/17/16
f 52/53/52 51/98/72 33/54/53
f 62/56/55 61/93/73 34/57/56
f 73/59/58 59/91/19 30/60/59
f 21/62/61 14/44/43 31/63/62
f 45/65/64 2/86/11 26/66/65
f 37/30/29 6/105/71 28/68/66
f 17/69/67 32/77/70 49/70/68
f 20/16/15 37/30/29 41/55/54
f 21/62/61 40/64/63 29/71/69
f 60/72/13 62/56/55 42/58/57
f 49/74/68 52/53/52 41/55/54
f 24/41/40 39/4/4 36/39/38
f 18/75/8 6/105/71 37/30/29
f 5/76/31 18/75/8 38/31/30
f 14/44/43 21/62/61 39/4/4
f 32/77/70 42/106/57 52/78/52
f 44/7/7 49/70/68 28/79/66
f 11/19/18 45/65/64 50/67/50
f 42/58/57 34/57/56 51/82/72
f 30/84/59 50/51/50 72/52/51
f 2/86/11 45/65/64 48/47/46
f 1/88/24 10/87/12 48/47/46
f 16/35/34 23/37/36 47/9/9
f 23/37/36 17/69/67 44/7/7
f 29/89/69 40/92/63 62/56/55
f 70/90/23 27/107/22 59/91/19
f 40/92/63 31/97/62 61/93/73
f 9/48/47 25/50/49 58/1/1
f 15/94/6 8/13/5 56/15/14
f 7/95/37 15/94/6 57/34/33
f 53/21/20 59/20/19 27/96/22
f 56/15/14 60/14/13 32/77/70
f 25/50/49 11/19/18 53/21/20
f 31/97/62 70/90/23 73/59/58
f 71/85/60 72/52/51 51/98/72
f 73/59/58 71/61/60 34/57/56
f 51/98/72 72/52/51 69/17/16
f 4/100/2 65/22/21 68/43/42
f 3/102/44 12/101/3 68/43/42
f 19/29/28 22/28/27 67/10/10
f 65/22/21 70/24/23 31/63/62
f 64/18/17 69/17/16 26/103/65
f 22/28/27 20/16/15 64/18/17
