# Blender v2.79 (sub 0) OBJ File: 'Crystals.blend'
# www.blender.org
mtllib smallCrystal1.mtl
o SmallCrystal_Cone.028
v 0.910737 3.236892 -0.635582
v 1.062956 4.151105 -0.208499
v 1.268315 3.182421 -0.455148
v 1.401304 3.197836 -0.073755
v 1.231802 3.274108 0.285184
v 0.859101 3.366556 0.411406
v 0.501523 3.421027 0.230972
v 0.368534 3.405612 -0.150422
v 0.538036 3.329341 -0.509360
v 0.194522 -0.120584 -0.086644
v 0.439044 -0.157832 0.036742
v 0.529986 -0.147291 0.297550
v 0.414076 -0.095134 0.543003
v 0.159212 -0.031915 0.629317
v -0.085310 0.005333 0.505931
v -0.176252 -0.005208 0.245123
v -0.060342 -0.057365 -0.000329
v 1.109373 3.304343 -0.556113
v 1.183273 3.820051 0.041091
v 1.274451 3.779024 -0.151988
v 1.010567 3.800033 -0.454204
v 1.354656 3.284816 -0.275199
v 1.202913 3.770732 -0.357146
v 1.336400 3.330659 0.094967
v 0.810084 3.849762 -0.386307
v 1.065299 3.415018 0.337547
v 0.718907 3.890790 -0.193229
v 0.700159 3.488478 0.310441
v 0.790444 3.899082 0.011929
v 0.454875 3.508006 0.029527
v 0.982791 3.869781 0.108988
v 0.473132 3.462163 -0.340639
v 0.744233 3.377803 -0.583219
v 0.466607 1.532219 0.592287
v 0.335541 1.886830 1.652175
v 0.789759 1.252606 0.705873
v 0.931905 1.019289 1.108790
v 0.539220 0.777425 1.414198
v 0.184386 0.851885 1.502080
v -0.130119 1.171874 1.378675
v -0.107869 1.432259 1.007451
v 0.196514 1.434745 0.579037
v 0.301111 0.068509 -0.150212
v 0.497086 -0.051169 -0.019302
v 0.511962 -0.205241 0.194955
v 0.337025 -0.303456 0.367051
v 0.074752 -0.288280 0.396175
v -0.121223 -0.168602 0.265265
v -0.192187 -0.056710 0.125837
v -0.019924 0.037210 -0.050857
v 0.613697 1.366442 0.626120
v 0.626381 1.483874 1.672454
v 0.633287 1.583711 1.413399
v 0.536203 1.815322 1.105706
v 0.862554 1.156417 0.941787
v 0.660571 1.739373 1.188783
v 0.703067 1.023034 1.272094
v 0.281938 1.854577 1.107149
v 0.382322 0.907811 1.634166
v 0.134197 1.734364 1.305009
v 0.032103 1.052451 1.507354
v 0.122699 1.652040 1.555722
v -0.098428 1.334482 1.143422
v 0.369486 1.469602 1.758047
v 0.026647 1.453980 0.717133
v 0.300164 1.541850 0.610770
v -0.761681 2.247864 -0.473003
v -0.652478 2.969886 -0.158238
v -0.410056 2.009917 -0.571442
v 0.097736 2.068543 -0.484478
v 0.155404 2.257705 -0.159425
v -0.133681 2.634056 0.238336
v -0.465219 2.235603 0.538585
v -0.814762 2.122501 0.393770
v -0.937587 1.918555 0.065305
v -0.256919 -0.470516 -0.203067
v -0.016181 -0.416227 -0.327565
v 0.233514 -0.333532 -0.242617
v 0.345897 -0.270870 0.002018
v 0.255135 -0.264949 0.263034
v -0.043061 -0.316515 0.449454
v -0.235298 -0.401933 0.302584
v -0.405138 -0.461873 0.119871
v -0.616937 2.194238 -0.553752
v -0.250834 2.652860 -0.148369
v -0.807397 2.490167 -0.337260
v -0.166494 1.898108 -0.461085
v -0.535653 2.538518 -0.407628
v 0.098335 2.171732 -0.327701
v -0.827977 2.740186 -0.175425
v -0.019442 2.580126 -0.009169
v -0.745564 2.888551 -0.020104
v -0.270927 2.408055 0.368934
v -0.548780 2.887023 0.075678
v -0.689591 2.276921 0.477505
v -0.384503 2.820565 0.053457
v -0.954334 2.170639 0.236522
v -0.866290 2.116598 -0.212056
vt 0.382960 0.646324
vt 0.392474 0.857846
vt 0.335676 0.689022
vt 0.753659 0.661213
vt 0.706971 0.865855
vt 0.689929 0.686435
vt 0.632035 0.646323
vt 0.641548 0.857845
vt 0.584750 0.689022
vt 0.839660 0.352708
vt 0.849173 0.141186
vt 0.897554 0.312596
vt 0.961284 0.337819
vt 0.914597 0.133177
vt 1.000000 0.284591
vt 0.210211 0.659919
vt 0.167352 0.865705
vt 0.146967 0.686764
vt 0.088338 0.648142
vt 0.101795 0.859371
vt 0.041861 0.692039
vt 0.504585 0.661213
vt 0.457897 0.865855
vt 0.440854 0.686436
vt 0.543301 0.666386
vt 0.648526 0.013720
vt 0.460131 0.000000
vt 0.543301 0.010182
vt 0.709205 0.000000
vt 0.792375 0.010182
vt 0.294227 0.666387
vt 0.399452 0.013720
vt 0.000000 0.670469
vt 0.093026 0.015268
vt 0.153434 0.000000
vt 0.236774 0.008053
vt 0.294227 0.034710
vt 1.000000 0.988850
vt 0.916830 0.999032
vt 0.412932 0.999032
vt 0.543301 0.714441
vt 0.054276 0.871380
vt 0.124882 1.000000
vt 0.249911 0.712144
vt 0.212546 0.886674
vt 0.869631 0.000000
vt 0.792375 0.310010
vt 0.593816 0.868638
vt 0.662006 0.999032
vt 0.792375 0.714440
vt 0.344742 0.868638
vt 0.782310 0.971892
vt 0.828490 0.781720
vt 0.828490 1.000000
vt 0.782310 0.494594
vt 0.782310 0.721833
vt 0.712902 0.525466
vt 0.000000 0.334388
vt 0.082066 0.128609
vt 0.065088 0.294258
vt 0.113285 0.317862
vt 0.085866 0.090095
vt 0.157682 0.234466
vt 0.212995 0.279054
vt 0.158566 0.072769
vt 0.254629 0.230528
vt 0.512596 0.569609
vt 0.449180 0.742642
vt 0.433320 0.554908
vt 0.387015 0.544445
vt 0.383084 0.704495
vt 0.323992 0.496179
vt 0.945311 0.394557
vt 0.980500 0.613624
vt 0.926415 0.428384
vt 0.120808 0.840506
vt 0.880229 0.437755
vt 0.875697 0.000000
vt 0.696425 0.003448
vt 0.832117 0.439195
vt 0.786145 0.006342
vt 0.511080 0.002283
vt 0.560284 0.016631
vt 0.298882 0.233113
vt 0.245156 0.811538
vt 0.909910 0.632387
vt 1.000000 0.781720
vt 1.000000 0.420956
vt 0.318526 0.700711
vt 0.419247 0.838554
vt 0.560284 0.589051
vt 0.523178 0.773559
vt 0.165115 0.000000
vt 0.628009 0.564483
vt 0.637438 0.767552
vt 0.560284 0.533130
vt 0.708560 0.733726
vt 0.731137 0.857458
vt 0.649895 0.530577
vt 0.876574 0.658200
vt 0.782310 0.463866
vt 0.171395 0.822281
vt 0.623135 0.014121
vt 0.754641 0.000000
vt 0.298882 0.477366
vt 0.455716 0.000000
vt 0.298882 0.814570
vt 0.556912 0.209634
vt 0.578018 0.125110
vt 0.579903 0.251648
vt 0.608766 0.331592
vt 0.640470 0.156084
vt 0.661054 0.384951
vt 0.788154 0.303746
vt 0.733121 0.140019
vt 0.788154 0.178432
vt 1.000000 0.663339
vt 0.930999 0.736888
vt 0.970836 0.576993
vt 0.528926 0.690846
vt 0.414301 0.662437
vt 0.491539 0.607235
vt 0.833656 0.482233
vt 0.841577 0.755484
vt 0.788154 0.519913
vt 0.736339 0.377490
vt 0.670407 0.000000
vt 0.067732 0.213864
vt 0.148816 0.856843
vt 0.000000 0.265702
vt 0.437549 0.000000
vt 0.652333 0.885260
vt 0.581815 0.881213
vt 0.292955 0.611075
vt 0.386913 0.009204
vt 0.527518 0.012774
vt 0.556912 0.031760
vt 0.937878 0.000644
vt 1.000000 0.000000
vt 0.292954 0.176654
vt 0.292955 0.843368
vt 0.219210 0.849520
vt 0.182253 0.077948
vt 0.371140 0.776562
vt 0.339822 0.696140
vt 0.406604 0.859410
vt 0.607280 0.039507
vt 0.434443 0.907709
vt 0.391740 0.928456
vt 0.876810 0.508674
vt 0.896767 0.743339
vt 0.854066 0.805816
vt 0.011549 0.944058
vt 0.053039 1.000000
vt 0.000000 0.982590
vt 0.113750 0.101948
vt 0.158862 0.000000
vt 0.731178 0.057320
vt 0.053039 0.865974
vt 0.756220 0.334946
vt 0.933819 0.494359
vt 0.294227 0.698900
vt 0.102891 0.865974
vt 0.035042 0.234910
vt 0.309817 0.674289
vt 0.556912 0.675819
vt 0.230770 0.137639
vn 0.2863 0.2474 -0.9256
vn 0.8438 0.1781 -0.5062
vn 0.9549 0.2332 0.1838
vn 0.5546 0.3802 0.7402
vn -0.1227 0.5332 0.8370
vn -0.6802 0.6024 0.4176
vn -0.7913 0.5474 -0.2724
vn -0.3910 0.4003 -0.8288
vn 0.8747 -0.1778 0.4508
vn -0.3377 -0.0813 -0.9377
vn 0.9121 -0.2717 -0.3071
vn 0.4099 -0.2317 -0.8822
vn -0.8928 0.0915 -0.4410
vn -0.9302 0.1853 0.3169
vn -0.4280 0.1453 0.8920
vn 0.3196 -0.0051 0.9475
vn -0.0346 0.3119 -0.9495
vn -0.2031 0.4010 -0.8933
vn -0.1279 0.5814 -0.8035
vn -0.6292 0.4745 -0.6156
vn -0.7000 0.5557 -0.4486
vn -0.5602 0.7159 -0.4167
vn -0.8073 0.5877 0.0530
vn -0.7334 0.6397 0.2299
vn -0.5893 0.7890 0.1736
vn -0.4646 0.5853 0.6645
vn -0.2838 0.6039 0.7448
vn -0.1982 0.7579 0.6215
vn 0.1982 0.4686 0.8609
vn 0.3855 0.4692 0.7945
vn 0.3841 0.6408 0.6648
vn 0.7928 0.3061 0.5270
vn 0.8824 0.3146 0.3498
vn 0.8164 0.5062 0.2779
vn 0.9710 0.1929 -0.1416
vn 0.9159 0.2306 -0.3287
vn 0.8455 0.4331 -0.3123
vn 0.6282 0.1953 -0.7531
vn 0.4663 0.2664 -0.8436
vn 0.4544 0.4643 -0.7603
vn 0.7231 0.5587 -0.4061
vn 0.9183 0.3737 -0.1310
vn 0.5744 -0.1321 0.8079
vn 0.6669 -0.3270 0.6695
vn -0.3308 -0.2749 0.9027
vn -0.8965 0.4116 0.1638
vn -0.6308 0.7389 -0.2370
vn -0.5699 0.6857 -0.4529
vn 0.6940 -0.5681 0.4424
vn -0.1083 0.4224 -0.8999
vn 0.9499 -0.0409 -0.3098
vn 0.5474 0.3286 -0.7697
vn -0.8792 0.2786 -0.3865
vn -0.9939 0.0665 -0.0880
vn -0.6916 -0.4675 0.5505
vn 0.0310 -0.6974 0.7160
vn -0.0029 0.8759 -0.4826
vn 0.1269 0.8413 -0.5254
vn 0.1518 0.9857 -0.0733
vn -0.3573 0.7584 -0.5451
vn -0.7483 0.6415 -0.1690
vn -0.6194 0.7850 0.0145
vn -0.8681 0.3724 0.3281
vn -0.8780 0.4653 0.1125
vn -0.7638 0.6228 0.1695
vn -0.6085 0.0280 0.7931
vn -0.6201 0.0305 0.7839
vn -0.5507 0.1629 0.8186
vn -0.5051 -0.1968 0.8403
vn 0.3197 -0.1971 0.9268
vn 0.2925 0.2575 0.9209
vn 0.8324 -0.2780 0.4794
vn 0.9920 0.1065 0.0675
vn 0.7808 0.5757 0.2427
vn 0.8865 0.4626 0.0118
vn 0.9407 0.2145 0.2629
vn 0.7910 0.4537 0.4105
vn 0.6195 0.6296 -0.4689
vn 0.6648 0.5960 -0.4504
vn 0.4879 0.8704 0.0653
vn 0.7231 -0.5456 0.4236
vn 0.9631 -0.1825 -0.1981
vn 0.6407 0.2583 -0.7230
vn -0.3033 0.4581 -0.8356
vn -0.7563 0.3626 -0.5446
vn -0.9250 -0.1535 0.3476
vn -0.6707 -0.4766 0.5684
vn -0.3205 0.4162 -0.8509
vn 0.5177 0.3631 -0.7747
vn 0.5463 0.5785 -0.6057
vn -0.1704 0.5686 0.8048
vn -0.9771 0.0712 -0.2004
vn -0.6121 0.4180 0.6713
vn 0.3031 0.5372 -0.7872
vn 0.9762 0.0602 -0.2083
vn -0.8988 -0.2130 -0.3831
vn 0.3316 -0.0329 -0.9428
vn -0.4251 -0.1586 -0.8911
vn -0.7016 -0.1409 0.6984
vn -0.5546 -0.1568 0.8172
vn 0.5222 0.0567 0.8510
vn 0.8533 0.1188 0.5078
vn -0.9323 0.0261 -0.3606
vn -0.9688 0.0734 -0.2366
vn -0.5031 0.4400 -0.7438
vn -0.9270 0.3320 0.1747
vn -0.7774 0.6065 -0.1668
vn -0.7797 0.3507 0.5188
vn -0.3560 0.5699 0.7406
vn -0.1882 0.8965 0.4010
vn 0.3482 0.6281 0.6959
vn 0.3882 0.9093 0.1500
vn 0.5576 0.8265 0.0773
vn 0.4696 0.8065 -0.3592
vn 0.6063 0.7610 -0.2308
vn 0.5896 0.6206 -0.5170
vn 0.2213 0.3363 -0.9154
vn -0.2973 0.4317 -0.8516
vn -0.2966 0.4165 -0.8594
vn -0.0515 0.7292 0.6823
vn 0.6544 0.6305 -0.4175
vn 0.8846 -0.1348 0.4464
vn -0.3290 -0.0381 -0.9436
vn 0.9221 -0.2287 -0.3123
vn 0.4193 -0.1887 -0.8880
vn -0.8846 0.1348 -0.4464
vn -0.9221 0.2287 0.3123
vn -0.4193 0.1887 0.8880
vn 0.3290 0.0381 0.9436
vn 0.5798 0.0822 0.8106
vn -0.0828 0.3559 -0.9309
vn 0.9279 0.0156 -0.3725
vn 0.5561 0.3239 -0.7654
vn -0.5601 0.3710 -0.7407
vn -0.9982 -0.0179 0.0565
vn -0.7268 -0.5622 0.3945
vn 0.0388 -0.6990 0.7140
vn -0.0673 -0.8786 0.4728
vn -0.9771 0.0718 -0.2004
vn -0.1032 0.0235 -0.9944
vn 0.9078 0.0091 -0.4194
vn 0.3442 0.7837 -0.5171
vn -0.8910 -0.2085 -0.4033
vn -0.8681 -0.2060 -0.4516
vn 0.4024 -0.0267 -0.9151
vn -0.0226 -0.1014 -0.9946
vn -0.3643 -0.1588 -0.9176
vn -0.5521 -0.5604 -0.6174
vn -0.8636 -0.2147 0.4562
vn -0.7407 -0.4104 0.5318
vn -0.3558 -0.0913 0.9301
vn -0.2976 -0.2573 0.9194
vn 0.6067 0.0881 0.7900
vn 0.6093 0.0887 0.7880
vn 0.9412 0.0917 0.3252
vn 0.8843 0.3220 0.3380
vn 0.0480 0.5417 0.8392
vn 0.5170 0.6372 -0.5716
usemtl Material.001
s off
f 1/1/1 21/2/1 18/3/1
f 3/4/2 23/5/2 22/6/2
f 4/7/3 20/8/3 24/9/3
f 5/10/4 19/11/4 26/12/4
f 6/13/5 31/14/5 28/15/5
f 7/16/6 29/17/6 30/18/6
f 8/19/7 27/20/7 32/21/7
f 9/22/8 25/23/8 33/24/8
f 5/25/9 13/26/9 4/7/9
f 1/1/10 10/27/10 17/28/10
f 4/7/11 12/29/11 11/30/11
f 3/31/12 11/32/12 1/1/12
f 9/33/13 17/34/13 8/19/13
f 8/19/14 16/35/14 7/16/14
f 7/16/15 15/36/15 14/37/15
f 6/13/16 14/38/16 13/39/16
f 33/24/17 21/2/17 1/1/17
f 33/24/18 25/23/18 21/2/18
f 25/23/19 2/40/19 21/2/19
f 32/41/20 25/23/20 9/22/20
f 32/21/21 27/20/21 25/42/21
f 27/20/22 2/43/22 25/42/22
f 30/18/23 27/20/23 8/19/23
f 30/18/24 29/17/24 27/20/24
f 29/17/25 2/43/25 27/20/25
f 28/44/26 29/17/26 7/16/26
f 28/44/27 31/45/27 29/17/27
f 31/45/28 2/43/28 29/17/28
f 26/12/29 31/14/29 6/13/29
f 26/12/30 19/11/30 31/14/30
f 19/11/31 2/46/31 31/14/31
f 24/47/32 19/11/32 5/10/32
f 24/9/33 20/8/33 19/48/33
f 20/8/34 2/49/34 19/48/34
f 22/6/35 20/8/35 4/7/35
f 22/6/36 23/5/36 20/8/36
f 23/5/37 2/49/37 20/8/37
f 18/50/38 23/5/38 3/4/38
f 18/3/39 21/2/39 23/51/39
f 21/2/40 2/40/40 23/51/40
f 34/52/41 54/53/41 51/54/41
f 36/55/42 56/56/42 55/57/42
f 37/58/43 53/59/43 57/60/43
f 38/61/44 52/62/44 59/63/44
f 39/64/45 64/65/45 61/66/45
f 40/67/46 62/68/46 63/69/46
f 41/70/47 60/71/47 65/72/47
f 42/73/48 58/74/48 66/75/48
f 37/58/49 38/61/49 45/76/49
f 42/73/50 34/77/50 50/78/50
f 55/57/51 44/79/51 36/55/51
f 51/80/52 43/81/52 34/77/52
f 65/72/53 49/82/53 41/70/53
f 63/69/54 48/83/54 40/67/54
f 39/64/55 40/84/55 47/85/55
f 39/64/56 47/85/56 38/61/56
f 66/75/57 54/86/57 34/77/57
f 66/75/58 58/74/58 54/86/58
f 58/74/59 35/87/59 54/86/59
f 65/88/60 58/74/60 42/73/60
f 65/72/61 60/71/61 58/89/61
f 60/71/62 35/90/62 58/89/62
f 63/69/63 60/71/63 41/70/63
f 63/69/64 62/68/64 60/71/64
f 62/68/65 35/90/65 60/71/65
f 61/91/66 62/68/66 40/67/66
f 61/91/67 64/92/67 62/68/67
f 64/92/68 35/90/68 62/68/68
f 59/63/69 64/65/69 39/64/69
f 59/63/70 52/62/70 64/65/70
f 52/62/71 35/93/71 64/65/71
f 57/94/72 52/95/72 38/96/72
f 57/94/73 53/97/73 52/95/73
f 53/97/74 35/98/74 52/95/74
f 55/57/75 53/97/75 37/99/75
f 55/57/76 56/56/76 53/97/76
f 56/56/77 35/98/77 53/97/77
f 51/80/78 56/100/78 36/101/78
f 51/80/79 54/86/79 56/100/79
f 54/86/80 35/87/80 56/100/80
f 45/76/81 38/61/81 46/102/81
f 44/79/82 37/99/82 45/103/82
f 43/104/83 36/55/83 44/79/83
f 50/78/84 34/77/84 43/81/84
f 49/82/85 42/105/85 50/106/85
f 48/83/86 41/70/86 49/82/86
f 47/85/87 40/84/87 48/107/87
f 67/108/88 86/109/88 84/110/88
f 69/111/89 88/112/89 87/113/89
f 71/114/90 85/115/90 91/116/90
f 72/117/91 96/118/91 93/119/91
f 97/120/92 98/121/92 75/122/92
f 74/123/93 92/124/93 97/125/93
f 70/126/94 88/112/94 68/127/94
f 71/128/95 79/129/95 70/130/95
f 98/121/96 76/131/96 75/122/96
f 87/113/97 78/132/97 77/133/97
f 69/134/98 77/135/98 76/131/98
f 75/122/99 83/136/99 82/137/99
f 74/123/100 82/138/100 81/139/100
f 73/140/101 81/141/101 80/142/101
f 72/143/102 80/142/102 71/128/102
f 98/121/103 86/144/103 67/145/103
f 98/121/104 90/146/104 86/144/104
f 90/147/105 68/127/105 86/109/105
f 97/120/106 92/148/106 90/146/106
f 92/148/107 68/149/107 90/146/107
f 95/150/108 92/124/108 74/123/108
f 95/150/109 94/151/109 92/124/109
f 94/151/110 68/152/110 92/124/110
f 93/119/111 96/118/111 94/151/111
f 96/153/112 68/154/112 94/155/112
f 91/156/113 96/157/113 72/143/113
f 91/116/114 85/115/114 96/158/114
f 85/159/115 68/154/115 96/153/115
f 89/160/116 85/115/116 71/114/116
f 84/110/117 88/112/117 69/111/117
f 84/110/118 86/109/118 88/112/118
f 86/109/119 68/127/119 88/112/119
f 93/119/120 95/150/120 73/161/120
f 70/126/121 85/115/121 89/160/121
f 12/29/9 4/7/9 13/26/9
f 24/9/122 5/25/122 4/7/122
f 17/28/10 9/22/10 1/1/10
f 33/24/123 1/1/123 9/22/123
f 11/30/11 3/4/11 4/7/11
f 22/6/124 4/7/124 3/4/124
f 10/27/12 1/1/12 11/32/12
f 18/3/125 3/31/125 1/1/125
f 16/35/13 8/19/13 17/34/13
f 32/21/126 9/33/126 8/19/126
f 15/36/14 7/16/14 16/35/14
f 30/18/127 8/19/127 7/16/127
f 14/37/15 6/162/15 7/16/15
f 28/44/128 7/16/128 6/162/128
f 13/39/16 5/10/16 6/13/16
f 26/12/129 6/13/129 5/10/129
f 37/58/130 57/60/130 38/61/130
f 42/73/131 66/75/131 34/77/131
f 55/57/132 37/99/132 44/79/132
f 51/80/133 36/101/133 43/81/133
f 65/72/134 42/105/134 49/82/134
f 63/69/135 41/70/135 48/83/135
f 39/64/136 61/66/136 40/84/136
f 46/102/137 38/61/137 47/85/137
f 59/63/138 39/64/138 38/61/138
f 97/120/139 90/146/139 98/121/139
f 70/126/140 87/113/140 88/112/140
f 78/163/141 70/130/141 79/129/141
f 89/164/142 71/128/142 70/130/142
f 83/136/143 75/122/143 76/131/143
f 98/121/144 67/145/144 76/131/144
f 77/133/145 69/111/145 87/113/145
f 87/113/146 70/126/146 78/132/146
f 76/131/147 67/145/147 69/134/147
f 84/165/148 69/134/148 67/145/148
f 82/137/149 74/166/149 75/122/149
f 97/120/150 75/122/150 74/166/150
f 81/139/151 73/161/151 74/123/151
f 95/150/152 74/123/152 73/161/152
f 80/142/153 72/143/153 93/167/153
f 93/167/154 73/140/154 80/142/154
f 79/129/155 71/128/155 80/142/155
f 91/156/156 72/143/156 71/128/156
f 93/119/157 94/151/157 95/150/157
f 70/126/158 68/127/158 85/115/158
