# Blender v2.79 (sub 0) OBJ File: ''
# www.blender.org
o Sphere
v 0.000000 0.923880 -0.382683
v 0.000000 0.707107 -0.707107
v 0.000000 0.382683 -0.923880
v 0.000000 -0.382684 -0.923880
v 0.000000 -0.707107 -0.707107
v 0.000000 -1.000000 -0.000000
v -0.000000 1.000000 -0.000000
v 0.191342 0.923880 -0.331414
v 0.353553 0.707107 -0.612372
v 0.461940 0.382683 -0.800103
v 0.500000 -0.000000 -0.866025
v 0.461940 -0.382684 -0.800103
v 0.353553 -0.707107 -0.612372
v 0.191342 -0.923880 -0.331414
v 0.331413 0.923880 -0.191342
v 0.612372 0.707107 -0.353553
v 0.800103 0.382683 -0.461940
v 0.866025 -0.000000 -0.500000
v 0.800103 -0.382684 -0.461940
v 0.612372 -0.707107 -0.353553
v 0.331413 -0.923880 -0.191342
v 0.382683 0.923880 -0.000000
v 0.707107 0.707107 -0.000000
v 0.923879 0.382683 -0.000000
v 1.000000 -0.000000 -0.000000
v 0.923879 -0.382684 -0.000000
v 0.707107 -0.707107 -0.000000
v 0.382683 -0.923880 -0.000000
v 0.331413 0.923880 0.191341
v 0.612372 0.707107 0.353553
v 0.800103 0.382683 0.461940
v 0.866025 -0.000000 0.500000
v 0.800103 -0.382684 0.461940
v 0.612372 -0.707107 0.353553
v 0.331413 -0.923880 0.191342
v 0.191342 0.923880 0.331413
v 0.353553 0.707107 0.612372
v 0.461940 0.382683 0.800103
v 0.500000 -0.000000 0.866025
v 0.461940 -0.382684 0.800103
v 0.353553 -0.707107 0.612372
v 0.191342 -0.923880 0.331413
v -0.000000 0.923880 0.382683
v -0.000000 0.707107 0.707106
v -0.000000 0.382683 0.923879
v -0.000000 -0.000000 1.000000
v -0.000000 -0.382684 0.923879
v -0.000000 -0.707107 0.707106
v -0.000000 -0.923880 0.382683
v -0.191342 0.923880 0.331413
v -0.353553 0.707107 0.612372
v -0.461940 0.382683 0.800103
v -0.500000 -0.000000 0.866025
v -0.461940 -0.382684 0.800103
v -0.353553 -0.707107 0.612372
v -0.191342 -0.923880 0.331413
v -0.331413 0.923880 0.191341
v -0.612372 0.707107 0.353553
v -0.800103 0.382683 0.461940
v -0.866025 -0.000000 0.500000
v -0.800103 -0.382684 0.461940
v -0.612372 -0.707107 0.353553
v -0.331413 -0.923880 0.191341
v -0.382683 0.923880 -0.000000
v -0.707107 0.707107 -0.000000
v -0.923879 0.382683 -0.000000
v -1.000000 -0.000000 -0.000000
v -0.923879 -0.382684 -0.000000
v -0.707107 -0.707107 -0.000000
v -0.382683 -0.923880 -0.000000
v -0.331413 0.923880 -0.191342
v -0.612372 0.707107 -0.353554
v -0.800103 0.382683 -0.461940
v -0.866025 -0.000000 -0.500000
v -0.800103 -0.382684 -0.461940
v -0.612372 -0.707107 -0.353554
v -0.331413 -0.923880 -0.191342
v -0.191342 0.923880 -0.331414
v -0.353553 0.707107 -0.612373
v -0.461940 0.382683 -0.800103
v -0.500000 -0.000000 -0.866025
v -0.461940 -0.382684 -0.800103
v -0.353553 -0.707107 -0.612373
v -0.191342 -0.923880 -0.331414
v 0.000000 -0.000000 -1.000000
v 0.000000 -0.923880 -0.382683
vt 0.248114 0.246598
vt 0.160988 0.210828
vt 0.248114 0.181730
vt 0.482963 0.319283
vt 0.395837 0.348381
vt 0.395837 0.283513
vt 0.790197 0.987907
vt 0.889694 0.869052
vt 0.876470 0.987907
vt 0.772329 0.740315
vt 0.889694 0.621295
vt 0.894338 0.740315
vt 0.321975 0.163733
vt 0.321975 0.283594
vt 0.321975 0.246517
vt 0.776973 0.869052
vt 0.790197 0.530111
vt 0.776973 0.621295
vt 1.000000 0.757417
vt 0.224768 0.125552
vt 0.278839 0.059931
vt 0.419182 0.227336
vt 0.987313 0.884852
vt 0.951185 0.542204
vt 0.987313 0.637095
vt 0.951185 1.000000
vt 0.365112 0.142715
vt 0.459618 0.194901
vt 0.666667 0.757417
vt 0.556361 0.621295
vt 0.653980 0.637095
vt 0.617851 1.000000
vt 0.556361 0.869052
vt 0.653980 0.884852
vt 0.184333 0.093118
vt 0.328983 0.078303
vt 0.439826 0.082784
vt 0.561004 0.740315
vt 0.204124 0.000000
vt 0.543137 0.987907
vt 0.443639 0.869052
vt 0.137642 0.093118
vt 0.506308 0.194901
vt 0.456864 0.530111
vt 0.543137 0.530111
vt 0.438996 0.740315
vt 0.117851 0.000000
vt 0.443639 0.621294
vt 0.546743 0.227335
vt 0.539323 0.000000
vt 0.600814 0.142715
vt 0.526099 0.082784
vt 0.333333 0.757417
vt 0.097207 0.125552
vt 0.043137 0.059930
vt 0.346020 0.637095
vt 0.382149 1.000000
vt 0.346020 0.884852
vt 0.073862 0.181730
vt 0.000000 0.163733
vt 0.643951 0.246517
vt 0.570089 0.283513
vt 0.000000 0.757417
vt 0.110306 0.869052
vt 0.012687 0.884852
vt 0.012687 0.637095
vt 0.123530 0.530111
vt 0.110306 0.621295
vt 0.123530 0.987907
vt 0.048816 1.000000
vt 0.105662 0.740315
vt 0.570089 0.348381
vt 0.223027 0.869052
vt 0.209803 0.530111
vt 0.223027 0.621295
vt 0.073862 0.246598
vt 0.209803 0.987907
vt 0.227671 0.740315
vt 0.000000 0.283594
vt 0.097207 0.302776
vt 0.546743 0.404559
vt 0.284518 1.000000
vt 0.333333 0.757417
vt 0.043137 0.387397
vt 0.600814 0.470181
vt 0.320647 0.884852
vt 0.320647 0.637095
vt 0.692766 0.469889
vt 0.754257 0.338940
vt 0.767481 0.457795
vt 0.643951 0.227306
vt 0.754257 0.091183
vt 0.749613 0.210203
vt 0.117851 0.447327
vt 0.506308 0.436993
vt 0.656637 0.354741
vt 0.104627 0.530111
vt 0.007008 0.451808
vt 0.137642 0.335210
vt 0.526099 0.530111
vt 0.459618 0.436993
vt 0.866978 0.338940
vt 0.767481 0.000000
vt 0.866978 0.091183
vt 0.184333 0.335210
vt 0.853754 0.457795
vt 0.871621 0.210203
vt 0.204124 0.447327
vt 0.964597 0.354741
vt 0.314968 0.451808
vt 0.217348 0.530111
vt 0.224768 0.302776
vt 0.419182 0.404559
vt 0.928468 0.469888
vt 0.977284 0.227306
vt 0.278839 0.387397
vt 0.365112 0.470181
vt 0.715482 1.000000
vt 0.679353 0.637095
vt 0.666667 0.757417
vt 0.321975 0.366378
vt 0.679353 0.884852
vt 0.715482 0.542205
vt 0.876470 0.530111
vt 0.426602 0.000000
vt 0.456864 0.987907
vt 0.636943 0.078303
vt 0.048816 0.542204
vt 0.643951 0.366378
vt 0.284518 0.542204
vt 0.656637 0.106984
vt 0.439826 0.530111
vt 0.853754 0.000000
vt 0.964597 0.106984
vn 0.0522 0.9794 -0.1948
vn 0.0522 -0.9794 -0.1948
vn 0.2175 -0.5423 -0.8116
vn 0.2542 0.1887 -0.9486
vn 0.1472 0.8224 -0.5495
vn 0.1472 -0.8224 -0.5495
vn 0.2542 -0.1887 -0.9486
vn 0.2175 0.5423 -0.8116
vn 0.6944 0.1887 -0.6944
vn 0.4023 0.8224 -0.4023
vn 0.4023 -0.8224 -0.4023
vn 0.6944 -0.1887 -0.6944
vn 0.5941 0.5423 -0.5941
vn 0.1426 0.9794 -0.1426
vn 0.1426 -0.9794 -0.1426
vn 0.5941 -0.5423 -0.5941
vn 0.5495 -0.8224 -0.1472
vn 0.9486 -0.1887 -0.2542
vn 0.8116 0.5423 -0.2175
vn 0.1948 0.9794 -0.0522
vn 0.1948 -0.9794 -0.0522
vn 0.8116 -0.5423 -0.2175
vn 0.9486 0.1887 -0.2542
vn 0.5495 0.8224 -0.1472
vn 0.8116 0.5423 0.2175
vn 0.1948 0.9794 0.0522
vn 0.1948 -0.9794 0.0522
vn 0.8116 -0.5423 0.2175
vn 0.9486 0.1887 0.2542
vn 0.5495 0.8224 0.1472
vn 0.5495 -0.8224 0.1472
vn 0.9486 -0.1887 0.2542
vn 0.1426 -0.9794 0.1426
vn 0.5941 -0.5423 0.5941
vn 0.6944 0.1887 0.6944
vn 0.4023 0.8224 0.4023
vn 0.4023 -0.8224 0.4023
vn 0.6944 -0.1887 0.6944
vn 0.5941 0.5423 0.5941
vn 0.1426 0.9794 0.1426
vn 0.1472 0.8224 0.5495
vn 0.1472 -0.8224 0.5495
vn 0.2542 -0.1887 0.9486
vn 0.2175 0.5423 0.8116
vn 0.0522 0.9794 0.1948
vn 0.0522 -0.9794 0.1948
vn 0.2175 -0.5423 0.8116
vn 0.2542 0.1887 0.9486
vn -0.1472 -0.8224 0.5495
vn -0.2542 -0.1887 0.9486
vn -0.2175 0.5423 0.8116
vn -0.0522 0.9794 0.1948
vn -0.0522 -0.9794 0.1948
vn -0.2175 -0.5423 0.8116
vn -0.2542 0.1887 0.9486
vn -0.1472 0.8224 0.5495
vn -0.1426 0.9794 0.1426
vn -0.1426 -0.9794 0.1426
vn -0.5941 -0.5423 0.5941
vn -0.6944 0.1887 0.6944
vn -0.4023 0.8224 0.4023
vn -0.4023 -0.8224 0.4023
vn -0.6944 -0.1887 0.6944
vn -0.5941 0.5423 0.5941
vn -0.8116 -0.5423 0.2175
vn -0.9486 0.1887 0.2542
vn -0.5495 0.8224 0.1472
vn -0.5495 -0.8224 0.1472
vn -0.9486 -0.1887 0.2542
vn -0.8116 0.5423 0.2175
vn -0.1948 0.9794 0.0522
vn -0.1948 -0.9794 0.0522
vn -0.5495 -0.8224 -0.1472
vn -0.9486 -0.1887 -0.2542
vn -0.8116 0.5423 -0.2175
vn -0.1948 0.9794 -0.0522
vn -0.1948 -0.9794 -0.0522
vn -0.8116 -0.5423 -0.2175
vn -0.9486 0.1887 -0.2542
vn -0.5495 0.8224 -0.1472
vn -0.6944 -0.1887 -0.6944
vn -0.5941 0.5423 -0.5941
vn -0.1426 0.9794 -0.1426
vn -0.1426 -0.9794 -0.1426
vn -0.5941 -0.5423 -0.5941
vn -0.6944 0.1887 -0.6944
vn -0.4023 0.8224 -0.4023
vn -0.4023 -0.8224 -0.4023
vn -0.0522 -0.9794 -0.1948
vn -0.2175 -0.5423 -0.8116
vn -0.2542 0.1887 -0.9486
vn -0.1472 0.8224 -0.5495
vn -0.1472 -0.8224 -0.5495
vn -0.2542 -0.1887 -0.9486
vn -0.2175 0.5423 -0.8116
vn -0.0522 0.9794 -0.1948
s off
f 1/1/1 7/2/1 8/3/1
f 6/4/2 86/5/2 14/6/2
f 5/7/3 12/8/3 13/9/3
f 85/10/4 10/11/4 11/12/4
f 1/1/5 9/13/5 2/14/5
f 86/5/6 13/15/6 14/6/6
f 85/10/7 12/8/7 4/16/7
f 2/17/8 10/11/8 3/18/8
f 10/11/9 18/19/9 11/12/9
f 9/13/10 15/20/10 16/21/10
f 13/15/11 21/22/11 14/6/11
f 11/12/12 19/23/12 12/8/12
f 10/11/13 16/24/13 17/25/13
f 8/3/14 7/2/14 15/20/14
f 6/4/15 14/6/15 21/22/15
f 13/9/16 19/23/16 20/26/16
f 20/27/17 28/28/17 21/22/17
f 18/29/18 26/30/18 19/31/18
f 16/32/19 24/33/19 17/34/19
f 15/20/20 7/2/20 22/35/20
f 6/4/21 21/22/21 28/28/21
f 19/36/22 27/37/22 20/27/22
f 17/34/23 25/38/23 18/29/23
f 15/20/24 23/39/24 16/21/24
f 23/40/25 31/41/25 24/33/25
f 22/35/26 7/2/26 29/42/26
f 6/4/27 28/28/27 35/43/27
f 26/30/28 34/44/28 27/45/28
f 24/33/29 32/46/29 25/38/29
f 23/39/30 29/42/30 30/47/30
f 27/37/31 35/43/31 28/28/31
f 26/30/32 32/46/32 33/48/32
f 6/4/33 35/43/33 42/49/33
f 33/50/34 41/51/34 34/52/34
f 31/41/35 39/53/35 32/46/35
f 30/47/36 36/54/36 37/55/36
f 35/43/37 41/51/37 42/49/37
f 32/46/38 40/56/38 33/48/38
f 31/41/39 37/57/39 38/58/39
f 29/42/40 7/2/40 36/54/40
f 37/55/41 43/59/41 44/60/41
f 42/49/42 48/61/42 49/62/42
f 39/63/43 47/64/43 40/65/43
f 38/66/44 44/67/44 45/68/44
f 36/54/45 7/2/45 43/59/45
f 6/4/46 42/49/46 49/62/46
f 40/65/47 48/69/47 41/70/47
f 38/66/48 46/71/48 39/63/48
f 48/61/49 56/72/49 49/62/49
f 46/71/50 54/73/50 47/64/50
f 45/68/51 51/74/51 52/75/51
f 43/59/52 7/2/52 50/76/52
f 6/4/53 49/62/53 56/72/53
f 47/64/54 55/77/54 48/69/54
f 45/68/55 53/78/55 46/71/55
f 43/59/56 51/79/56 44/60/56
f 50/76/57 7/2/57 57/80/57
f 6/4/58 56/72/58 63/81/58
f 54/73/59 62/82/59 55/77/59
f 52/75/60 60/83/60 53/78/60
f 51/79/61 57/80/61 58/84/61
f 56/72/62 62/85/62 63/81/62
f 53/78/63 61/86/63 54/73/63
f 51/74/64 59/87/64 52/75/64
f 62/88/65 68/89/65 69/90/65
f 60/91/66 66/92/66 67/93/66
f 57/80/67 65/94/67 58/84/67
f 62/85/68 70/95/68 63/81/68
f 60/91/69 68/89/69 61/96/69
f 58/84/70 66/97/70 59/98/70
f 57/80/71 7/2/71 64/99/71
f 6/4/72 63/81/72 70/95/72
f 69/100/73 77/101/73 70/95/73
f 67/93/74 75/102/74 68/89/74
f 65/103/75 73/104/75 66/92/75
f 64/99/76 7/2/76 71/105/76
f 6/4/77 70/95/77 77/101/77
f 68/89/78 76/106/78 69/90/78
f 67/93/79 73/104/79 74/107/79
f 65/94/80 71/105/80 72/108/80
f 74/107/81 82/109/81 75/102/81
f 72/108/82 80/110/82 73/111/82
f 71/105/83 7/2/83 78/112/83
f 6/4/84 77/101/84 84/113/84
f 76/106/85 82/109/85 83/114/85
f 73/104/86 81/115/86 74/107/86
f 71/105/87 79/116/87 72/108/87
f 77/101/88 83/117/88 84/113/88
f 6/4/89 84/113/89 86/5/89
f 83/118/90 4/16/90 5/7/90
f 80/119/91 85/10/91 81/120/91
f 78/112/92 2/14/92 79/116/92
f 84/113/93 5/121/93 86/5/93
f 81/120/94 4/16/94 82/122/94
f 79/123/95 3/18/95 80/119/95
f 78/112/96 7/2/96 1/1/96
f 5/7/3 4/16/3 12/8/3
f 85/10/4 3/18/4 10/11/4
f 1/1/5 8/3/5 9/13/5
f 86/5/6 5/121/6 13/15/6
f 85/10/7 11/12/7 12/8/7
f 2/17/8 9/124/8 10/11/8
f 10/11/9 17/25/9 18/19/9
f 9/13/10 8/3/10 15/20/10
f 13/15/11 20/27/11 21/22/11
f 11/12/12 18/19/12 19/23/12
f 10/11/13 9/124/13 16/24/13
f 13/9/16 12/8/16 19/23/16
f 20/27/17 27/37/17 28/28/17
f 18/29/18 25/38/18 26/30/18
f 16/32/19 23/40/19 24/33/19
f 19/36/22 26/125/22 27/37/22
f 17/34/23 24/33/23 25/38/23
f 15/20/24 22/35/24 23/39/24
f 23/40/25 30/126/25 31/41/25
f 26/30/28 33/48/28 34/44/28
f 24/33/29 31/41/29 32/46/29
f 23/39/30 22/35/30 29/42/30
f 27/37/31 34/52/31 35/43/31
f 26/30/32 25/38/32 32/46/32
f 33/50/34 40/127/34 41/51/34
f 31/41/35 38/58/35 39/53/35
f 30/47/36 29/42/36 36/54/36
f 35/43/37 34/52/37 41/51/37
f 32/46/38 39/53/38 40/56/38
f 31/41/39 30/126/39 37/57/39
f 37/55/41 36/54/41 43/59/41
f 42/49/42 41/51/42 48/61/42
f 39/63/43 46/71/43 47/64/43
f 38/66/44 37/128/44 44/67/44
f 40/65/47 47/64/47 48/69/47
f 38/66/48 45/68/48 46/71/48
f 48/61/49 55/129/49 56/72/49
f 46/71/50 53/78/50 54/73/50
f 45/68/51 44/67/51 51/74/51
f 47/64/54 54/73/54 55/77/54
f 45/68/55 52/75/55 53/78/55
f 43/59/56 50/76/56 51/79/56
f 54/73/59 61/86/59 62/82/59
f 52/75/60 59/87/60 60/83/60
f 51/79/61 50/76/61 57/80/61
f 56/72/62 55/129/62 62/85/62
f 53/78/63 60/83/63 61/86/63
f 51/74/64 58/130/64 59/87/64
f 62/88/65 61/96/65 68/89/65
f 60/91/66 59/131/66 66/92/66
f 57/80/67 64/99/67 65/94/67
f 62/85/68 69/100/68 70/95/68
f 60/91/69 67/93/69 68/89/69
f 58/84/70 65/94/70 66/97/70
f 69/100/73 76/132/73 77/101/73
f 67/93/74 74/107/74 75/102/74
f 65/103/75 72/133/75 73/104/75
f 68/89/78 75/102/78 76/106/78
f 67/93/79 66/92/79 73/104/79
f 65/94/80 64/99/80 71/105/80
f 74/107/81 81/115/81 82/109/81
f 72/108/82 79/116/82 80/110/82
f 76/106/85 75/102/85 82/109/85
f 73/104/86 80/134/86 81/115/86
f 71/105/87 78/112/87 79/116/87
f 77/101/88 76/132/88 83/117/88
f 83/118/90 82/122/90 4/16/90
f 80/119/91 3/18/91 85/10/91
f 78/112/92 1/1/92 2/14/92
f 84/113/93 83/117/93 5/121/93
f 81/120/94 85/10/94 4/16/94
f 79/123/95 2/17/95 3/18/95
