# Blender v2.79 (sub 0) OBJ File: 'obstacles.blend'
# www.blender.org
o Cube.004_Cube.005
v -2.943202 -0.426982 4.066929
v -1.787829 8.231892 3.051205
v -2.916224 -0.856240 -3.940755
v -2.460275 8.262890 -3.149937
v 3.601440 -0.640398 3.896353
v 3.018478 9.452209 2.125659
v 3.588341 -0.898347 -3.834506
v 1.709471 8.665527 -3.716854
v -5.055107 -0.572038 0.914752
v -2.258161 7.217632 3.576856
v -3.846222 9.523050 0.338167
v -2.886526 6.790161 -3.338660
v 0.623571 -0.416470 -4.911602
v -0.357171 8.043358 -4.300115
v 2.200669 6.790022 -4.086998
v 5.113110 -0.959514 0.440304
v 3.292739 9.803513 -0.520182
v 3.269377 7.718849 2.760421
v 0.275525 -0.405447 4.778628
v 0.725375 9.216266 3.266594
v 0.967956 8.161686 -4.620418
v 0.684424 7.404437 4.175507
v 4.937559 8.324993 -0.298585
v -0.119909 6.512433 -5.599599
v -4.683332 7.865290 0.470725
v -1.393302 9.013039 2.654940
v -2.377072 9.721798 -3.032118
v 3.131042 10.138753 1.884055
v 1.438580 9.418961 -3.361596
v -2.818942 10.058591 0.150649
v -0.258454 9.538577 -4.095364
v 2.303445 10.802699 -0.603991
v 0.608093 9.630999 2.367060
v -0.067754 10.849857 -0.356556
v 2.446681 -1.138074 4.884934
v 2.325861 -1.277671 -5.114369
v 2.318666 9.313755 3.040850
v 2.094523 7.750192 4.125372
v 1.166482 6.230076 -4.564499
v 0.963321 8.834548 -3.622193
v 1.667552 10.337569 2.367900
v 1.463617 10.864567 -0.566613
v -4.420671 -0.913524 2.785332
v 3.529551 10.217653 1.655116
v -2.648453 8.679946 2.416995
v 4.466735 -0.990247 2.944923
v 3.683839 7.897610 2.043045
v -3.052148 7.078629 2.691712
v 2.964397 10.417190 1.302695
v -1.855887 9.143263 2.097504
v 0.447592 10.363515 1.685241
v 1.983150 10.867879 1.445483
v -3.756445 9.420296 -2.166422
v 4.282232 -0.832419 -2.513509
v -4.320599 -0.549565 -2.742226
v 2.785138 8.524996 -2.837589
v 3.132732 7.175435 -2.844079
v -3.569923 6.796690 -2.138048
v -2.719301 10.004635 -2.096507
v 1.845124 10.280656 -2.997506
v -0.391953 10.028794 -2.483451
v 0.946636 10.279283 -2.992572
v -1.785732 -1.131541 -4.702910
v -0.596040 8.432710 3.358061
v -1.739007 8.441213 -4.187613
v -1.300551 -0.770452 4.736942
v -0.730914 7.103218 4.062019
v -1.562830 6.508441 -3.991690
v -0.479754 10.075401 2.722031
v -1.332718 9.322516 -3.624849
v -1.619581 10.916915 -0.132663
v -1.043719 9.563575 1.860952
v -1.578154 10.055076 -2.465047
v -2.624779 4.161954 -3.341962
v -2.729614 1.691378 -3.566514
v 2.812717 4.397158 -4.643868
v 3.081437 1.712124 -3.919483
v 3.313193 4.851994 3.023226
v 3.350479 2.026953 3.465172
v -2.717311 2.034877 3.781973
v -2.691772 4.864104 3.708115
v 0.507488 4.925699 5.216766
v 0.517846 2.007442 4.486783
v 4.877036 5.176225 -0.156341
v 5.113733 2.084657 0.099380
v 0.057869 4.110061 -4.962561
v 0.288950 1.880329 -5.456346
v -5.309613 5.025890 0.529290
v -5.485620 2.141735 0.603113
v 1.519362 4.270195 -5.224156
v 1.784935 1.609684 -4.966910
v 2.083770 4.918457 4.329789
v 2.142619 1.898105 4.183869
v -4.363009 5.371522 2.838681
v -3.996880 1.959065 2.853291
v 4.523915 5.191713 2.255366
v 4.171242 2.019593 2.458097
v -3.768457 4.443415 -2.170714
v -3.864406 1.848884 -2.352721
v 3.810915 4.565438 -2.868515
v 4.393969 1.933785 -2.598035
v -1.345775 4.036464 -4.334769
v -1.371894 1.595204 -4.388691
v -0.976054 4.717890 4.650968
v -1.161403 2.021692 4.359370
v -3.370683 8.942197 1.491193
v 4.891901 -0.415061 1.546985
v -3.883330 7.234779 1.687626
v -2.246783 10.192860 1.216769
v -4.912645 -1.128179 1.662947
v 4.279040 9.928251 0.512249
v 4.533574 8.078935 0.775085
v 3.141241 10.505098 0.472281
v 0.367136 10.510263 0.667745
v 1.915821 11.348868 0.468145
v -1.018973 9.625135 0.941018
v 4.632328 2.139912 1.302845
v 4.848185 5.189275 1.031494
v -4.758335 1.935638 1.764448
v -5.207464 5.278557 1.774931
v -4.726401 -0.613499 -0.778355
v 3.722912 9.467239 -1.659131
v 4.236642 7.690574 -1.553421
v 2.252633 10.507161 -1.803817
v -0.158829 10.609851 -1.606330
v 1.022290 10.900857 -1.734970
v -3.679671 9.116519 -0.920043
v 4.846216 -1.404009 -1.148720
v -4.244538 7.221534 -0.840462
v -2.769974 10.188600 -1.044105
v -1.691541 10.950979 -1.328089
v -4.457771 1.928592 -0.852252
v -4.739712 4.943794 -0.843866
v 4.952751 1.911582 -1.268692
v 5.643410 5.254015 -1.488876
vt 0.131164 0.642841
vt 0.190693 0.577448
vt 0.190385 0.639628
vt 0.438540 0.616689
vt 0.501236 0.668975
vt 0.454760 0.693576
vt 0.559029 0.108038
vt 0.578992 0.042307
vt 0.595142 0.115940
vt 0.272854 0.334174
vt 0.214326 0.386187
vt 0.205321 0.340976
vt 0.546857 0.589790
vt 0.482306 0.556246
vt 0.502506 0.519426
vt 0.316183 0.426543
vt 0.261840 0.464025
vt 0.266383 0.393078
vt 0.919592 0.773382
vt 0.858454 0.750907
vt 0.906227 0.732194
vt 0.234435 0.528171
vt 0.244890 0.566461
vt 0.492270 0.100071
vt 0.448820 0.215718
vt 0.443513 0.088093
vt 0.184111 0.245021
vt 0.268984 0.233633
vt 0.381717 0.362445
vt 0.329171 0.346793
vt 0.679957 0.229385
vt 0.709706 0.121643
vt 0.750775 0.224901
vt 0.544998 0.222251
vt 0.602387 0.233093
vt 0.606327 0.543516
vt 0.688629 0.579250
vt 0.634326 0.614386
vt 0.414884 0.105861
vt 0.381717 0.211310
vt 0.518231 0.770503
vt 0.458231 0.778263
vt 0.250611 0.643569
vt 0.289265 0.574527
vt 0.344827 0.635663
vt 0.277390 0.742494
vt 0.337715 0.731575
vt 0.135425 0.739259
vt 0.207742 0.744467
vt 0.122266 0.425073
vt 0.046447 0.388323
vt 0.101811 0.354494
vt 0.765834 0.708328
vt 0.741005 0.734921
vt 0.719774 0.696232
vt 0.273727 0.484421
vt 0.334622 0.479363
vt 0.327166 0.508014
vt 0.877675 0.574395
vt 0.836524 0.635158
vt 0.823613 0.573556
vt 0.848718 0.697377
vt 0.898726 0.683703
vt 0.400430 0.616017
vt 0.461212 0.580958
vt 0.169360 0.408181
vt 0.222659 0.420973
vt 0.193176 0.430005
vt 0.621264 0.001001
vt 0.629293 0.047956
vt 0.618933 0.519136
vt 0.636156 0.482031
vt 0.679673 0.506848
vt 0.292735 0.449952
vt 0.485813 0.589967
vt 0.865351 0.528019
vt 0.813703 0.541136
vt 0.733531 0.581043
vt 0.703275 0.546191
vt 0.728046 0.543452
vt 0.047800 0.273959
vt 0.014743 0.273219
vt 0.673478 0.114124
vt 0.413972 0.779521
vt 0.381717 0.689085
vt 0.759261 0.524984
vt 0.549717 0.012029
vt 0.567757 0.014178
vt 0.162142 0.478502
vt 0.790095 0.633917
vt 0.772121 0.568228
vt 0.805855 0.742925
vt 0.803006 0.694582
vt 0.155109 0.341372
vt 0.103805 0.270400
vt 0.470916 0.517718
vt 0.984992 0.692081
vt 0.948683 0.667751
vt 0.996859 0.645720
vt 1.000000 0.597214
vt 0.933785 0.562854
vt 0.967151 0.559894
vt 0.492638 0.219401
vt 0.564398 0.644315
vt 0.062012 0.724114
vt 0.117007 0.537762
vt 0.183685 0.517865
vt 0.546528 0.500536
vt 0.078968 0.549066
vt 0.067410 0.629031
vt 0.932946 0.622163
vt 0.747888 0.645330
vt 0.890496 0.622663
vt 0.721490 0.651639
vt 0.598228 0.749880
vt 0.279677 0.513346
vt 0.300959 0.028109
vt 0.246208 0.127386
vt 0.240074 0.012222
vt 0.221462 0.845168
vt 0.238120 0.949529
vt 0.287570 0.841473
vt 0.296468 0.954388
vt 0.557071 0.871603
vt 0.645694 0.962810
vt 0.587656 0.975885
vt 0.081557 0.844500
vt 0.081003 0.948924
vt 0.148449 0.844906
vt 0.157416 0.944814
vt 0.506479 0.342743
vt 0.507893 0.448228
vt 0.559650 0.349663
vt 0.568797 0.474608
vt 0.106090 0.133588
vt 0.175160 0.130798
vt 0.164816 0.029522
vt 0.078929 0.018315
vt 0.616312 0.349178
vt 0.624676 0.459853
vt 0.671937 0.351323
vt 0.688637 0.478157
vt 0.418475 0.873255
vt 0.453480 0.960604
vt 0.484906 0.882543
vt 0.511859 1.000000
vt 0.052842 0.140213
vt 0.013844 0.045689
vt 0.034296 0.017780
vt 0.368985 0.911442
vt 0.405213 0.344082
vt 0.462081 0.467248
vt 0.410769 0.478157
vt 0.722792 0.340342
vt 0.364810 0.127000
vt 0.381717 0.000000
vt 0.450987 0.342846
vt 0.000000 0.723530
vt 0.009068 0.604975
vt 0.003352 0.841256
vt 0.765125 0.031585
vt 0.814708 0.070919
vt 0.750775 0.070919
vt 0.702834 0.578717
vt 0.816989 0.795142
vt 0.867999 0.795142
vt 0.706685 0.527462
vt 0.337829 0.239114
vt 0.690170 0.843604
vt 0.702834 0.974511
vt 0.636334 0.853499
vt 0.015362 0.948434
vt 0.801705 0.508698
vt 0.921381 0.528355
vt 0.949793 0.716714
vt 0.970327 0.758031
vt 0.311590 0.127487
vt 0.370699 0.433744
vt 0.080270 0.456739
vt 0.769731 0.744489
vt 0.403133 0.554772
vt 0.577837 0.478157
vt 0.702834 0.607996
vt 0.550863 0.000000
vt 0.489755 0.023091
vt 0.141889 0.508014
vt 0.000000 0.156643
vt 0.368985 0.820680
vt 0.805219 0.000000
vt 0.744734 0.484430
vt 0.695457 0.713637
vt 0.030985 0.533041
vt 0.844320 0.478157
vn -0.8482 0.1196 -0.5160
vn -0.6631 0.1267 -0.7377
vn -0.6661 0.1411 -0.7324
vn 0.2228 0.5466 -0.8071
vn 0.5954 0.2252 -0.7712
vn 0.4151 0.1076 -0.9033
vn 0.8006 0.2322 0.5523
vn 0.5604 0.3236 0.7623
vn 0.7516 0.2355 0.6161
vn -0.2611 0.3699 0.8916
vn -0.3664 0.4925 0.7894
vn -0.5091 0.3641 0.7798
vn 0.6569 0.3016 -0.6910
vn 0.2074 0.3749 -0.9035
vn 0.4059 0.6230 -0.6686
vn -0.0526 0.6042 0.7950
vn -0.2747 0.8326 0.4810
vn -0.2629 0.4446 0.8563
vn -0.8874 0.4425 -0.1287
vn -0.5909 0.7955 0.1343
vn -0.6381 0.7699 -0.0049
vn -0.3104 0.6294 -0.7124
vn -0.4751 0.2798 -0.8343
vn 0.8871 0.1207 0.4454
vn 0.9784 0.1004 0.1806
vn 0.9665 0.2302 -0.1135
vn -0.4653 0.1030 0.8791
vn -0.3916 0.0507 0.9187
vn 0.3713 0.2804 0.8852
vn -0.0492 0.3598 0.9317
vn 0.5436 0.0525 0.8377
vn 0.0756 0.0571 0.9955
vn 0.8207 0.1040 0.5618
vn 0.6523 0.0664 0.7551
vn 0.6952 0.5713 -0.4361
vn 0.8003 0.1814 -0.5714
vn 0.9687 0.1591 -0.1906
vn 0.6552 0.1364 -0.7430
vn 0.1493 0.1785 -0.9725
vn -0.5812 0.0733 -0.8104
vn -0.2069 0.3896 -0.8974
vn -0.0965 0.1349 -0.9861
vn -0.5402 0.0005 -0.8415
vn -0.2483 0.0249 -0.9683
vn -0.7915 0.0152 -0.6110
vn -0.6506 0.0374 -0.7585
vn -0.6153 0.5181 0.5941
vn -0.9291 0.3563 0.0986
vn -0.6763 0.3985 0.6196
vn -0.3471 0.9087 0.2321
vn -0.4290 0.6402 0.6372
vn -0.2865 0.8988 0.3318
vn 0.0081 0.7563 0.6541
vn 0.0976 0.9052 0.4136
vn 0.0038 0.9735 -0.2285
vn -0.0366 0.9759 0.2152
vn -0.0321 0.9901 -0.1364
vn -0.1499 0.9352 0.3207
vn -0.2190 0.9387 -0.2662
vn 0.1687 0.5406 -0.8242
vn -0.4864 0.5543 0.6753
vn -0.2815 0.7516 0.5965
vn 0.4435 0.5380 0.7168
vn 0.6246 0.7333 -0.2684
vn 0.5155 0.8506 -0.1032
vn 0.7927 0.6087 -0.0308
vn -0.0068 0.8202 0.5720
vn 0.4524 0.5010 -0.7378
vn 0.5054 0.8067 -0.3062
vn 0.4132 0.8615 -0.2951
vn 0.3562 0.5738 0.7374
vn 0.3383 0.9116 0.2333
vn -0.9112 0.1413 0.3869
vn -0.9878 0.0858 -0.1296
vn 0.5330 0.6482 0.5437
vn -0.2196 0.8190 0.5300
vn -0.3580 0.9002 0.2480
vn 0.0495 0.9971 0.0575
vn 0.0127 0.9339 0.3572
vn -0.6351 0.3622 0.6822
vn -0.6331 0.2152 0.7435
vn -0.0443 0.7642 -0.6434
vn -0.3541 0.6075 -0.7110
vn -0.0525 0.8392 -0.5413
vn -0.0465 0.5589 -0.8279
vn 0.9772 0.0981 0.1883
vn 0.7311 0.1938 -0.6541
vn -0.8658 0.0698 -0.4955
vn -0.8491 0.3949 -0.3508
vn -0.8668 0.2107 -0.4518
vn -0.1727 0.8726 -0.4569
vn -0.0993 0.9237 -0.3699
vn 0.7506 0.1035 -0.6526
vn 0.0069 0.1603 0.9870
vn -0.2304 0.0428 0.9721
vn -0.2094 0.1413 0.9676
vn -0.6144 0.1312 -0.7779
vn -0.5620 0.1658 -0.8104
vn -0.4591 0.0457 -0.8872
vn -0.3526 0.1598 -0.9220
vn 0.7088 0.0061 -0.7053
vn 0.8802 0.0098 -0.4746
vn 0.7782 0.1501 -0.6098
vn -0.8914 -0.0152 -0.4528
vn -0.9655 0.1314 -0.2248
vn -0.8419 0.1349 -0.5225
vn -0.8353 0.2111 -0.5077
vn 0.9309 0.0335 0.3637
vn 0.9516 0.0954 0.2921
vn 0.8468 0.0839 0.5252
vn 0.8454 0.1651 0.5079
vn -0.7061 0.0378 0.7071
vn -0.4706 0.0851 0.8782
vn -0.5059 0.1231 0.8537
vn -0.8200 0.0643 0.5687
vn 0.6629 0.1193 0.7391
vn 0.6577 0.2028 0.7254
vn 0.3405 0.0795 0.9369
vn 0.3182 0.2434 0.9162
vn -0.1723 -0.0698 -0.9825
vn -0.1206 -0.0360 -0.9920
vn 0.4174 -0.0474 -0.9075
vn 0.4128 0.1234 -0.9024
vn -0.8608 -0.0121 0.5087
vn -0.9991 0.0044 0.0416
vn -0.9461 0.0370 0.3218
vn 0.9629 -0.0132 -0.2695
vn 0.9999 -0.0099 -0.0077
vn 0.9617 -0.0407 -0.2711
vn 0.0685 -0.0084 0.9976
vn 0.9950 0.0367 0.0923
vn -0.9978 -0.0644 -0.0156
vn -0.6833 0.7173 0.1361
vn 0.8365 0.0426 -0.5463
vn -0.4030 0.8499 -0.3393
s 1
f 58/1/1 4/2/2 12/3/3
f 21/4/4 15/5/5 39/6/6
f 47/7/7 6/8/8 18/9/9
f 67/10/10 2/11/11 10/12/12
f 56/13/13 29/14/14 60/15/15
f 20/16/16 69/17/17 64/18/18
f 127/19/19 30/20/20 130/21/21
f 4/2/2 70/22/22 65/23/23
f 112/24/24 84/25/25 23/26/26
f 67/10/10 81/27/27 104/28/28
f 38/29/29 20/16/16 22/30/30
f 92/31/31 22/32/30 82/33/32
f 96/34/33 18/9/9 78/35/34
f 122/36/35 23/37/26 123/38/36
f 123/39/36 84/25/25 135/40/37
f 39/6/6 76/41/38 90/42/39
f 68/43/40 14/44/41 24/45/42
f 102/46/43 24/45/42 86/47/44
f 98/48/45 12/3/3 74/49/46
f 106/50/47 25/51/48 108/52/49
f 72/53/50 26/54/51 69/55/17
f 51/56/52 41/57/53 52/58/54
f 126/59/55 34/60/56 42/61/57
f 130/21/21 71/62/58 131/63/59
f 14/64/41 40/65/60 21/4/4
f 45/66/61 26/67/51 50/68/62
f 6/8/8 41/69/53 37/70/63
f 17/71/64 113/72/65 111/73/66
f 20/16/16 41/57/53 33/74/67
f 8/75/68 40/65/60 29/14/14
f 124/76/69 42/61/57 32/77/70
f 52/78/54 28/79/71 49/80/72
f 120/81/73 25/51/48 88/82/74
f 18/9/9 37/70/63 38/83/29
f 86/84/44 39/6/6 90/42/39
f 24/85/42 21/4/4 39/6/6
f 113/86/65 52/78/54 49/80/72
f 44/87/75 28/88/71 6/8/8
f 106/50/47 50/68/62 109/89/76
f 114/90/77 52/78/54 115/91/78
f 109/92/76 72/53/50 116/93/79
f 2/11/11 48/94/80 10/12/12
f 78/35/34 38/83/29 92/31/31
f 81/27/27 48/94/80 94/95/81
f 112/24/24 44/87/75 47/7/7
f 29/14/14 62/96/82 60/15/15
f 27/97/83 73/98/84 70/99/22
f 31/100/85 62/101/82 40/102/60
f 118/103/86 47/7/7 96/34/33
f 15/5/5 56/13/13 57/104/87
f 133/105/88 58/1/1 98/48/45
f 53/106/89 27/107/83 4/2/2
f 56/13/13 124/108/69 122/36/35
f 127/109/19 58/1/1 129/110/90
f 70/99/22 61/111/91 31/100/85
f 116/93/79 51/112/52 114/90/77
f 131/63/59 34/60/56 125/113/92
f 51/112/52 69/55/17 33/114/67
f 4/2/2 68/43/40 12/3/3
f 15/5/5 100/115/93 76/41/38
f 74/49/46 68/43/40 102/46/43
f 14/44/41 70/22/22 31/116/85
f 64/18/18 26/67/51 2/11/11
f 22/30/30 64/18/18 67/10/10
f 19/117/94 105/118/95 66/119/96
f 102/46/43 75/120/97 74/49/46
f 3/121/98 103/122/99 63/123/100
f 100/115/93 77/124/101 76/41/38
f 77/124/101 54/125/102 7/126/103
f 98/48/45 132/127/104 133/105/88
f 121/128/105 99/129/106 55/130/107
f 96/34/33 117/131/108 118/103/86
f 107/132/109 97/133/110 46/134/111
f 81/27/27 95/135/112 80/136/113
f 1/137/114 95/135/112 43/138/115
f 92/31/31 79/139/116 78/35/34
f 5/140/117 93/141/118 35/142/119
f 90/42/39 87/143/120 86/84/44
f 13/144/121 91/145/122 36/146/123
f 88/82/74 119/147/124 120/81/73
f 119/147/124 9/148/125 110/149/126
f 74/49/46 99/129/106 98/48/45
f 55/130/107 75/120/97 3/121/98
f 86/47/44 103/122/99 102/46/43
f 103/122/99 13/150/121 63/123/100
f 76/41/38 91/145/122 90/42/39
f 91/145/122 7/126/103 36/146/123
f 84/25/25 134/151/127 135/40/37
f 134/151/127 16/152/128 128/153/129
f 78/35/34 97/133/110 96/34/33
f 97/133/110 5/140/117 46/134/111
f 92/31/31 83/154/130 93/141/118
f 93/155/118 19/117/94 35/156/119
f 81/27/27 105/118/95 104/28/28
f 105/118/95 1/137/114 66/119/96
f 85/157/131 118/103/86 117/131/108
f 129/110/90 88/158/74 25/159/48
f 89/160/132 133/105/88 132/127/104
f 43/138/115 119/147/124 110/149/126
f 108/52/49 94/95/81 48/94/80
f 94/95/81 119/147/124 95/135/112
f 85/157/131 107/132/109 16/152/128
f 34/161/56 116/162/79 114/163/77
f 23/37/26 111/73/66 112/164/24
f 71/62/58 109/92/76 116/93/79
f 42/61/57 114/90/77 115/91/78
f 106/165/47 30/20/20 11/166/133
f 32/77/70 115/91/78 113/86/65
f 44/167/75 113/86/65 49/80/72
f 45/66/61 108/52/49 48/94/80
f 82/168/32 67/10/10 104/28/28
f 54/125/102 134/169/127 128/170/129
f 123/38/36 100/115/93 57/104/87
f 100/115/93 134/169/127 101/171/134
f 9/172/125 132/127/104 121/128/105
f 73/98/84 125/113/92 61/111/91
f 25/159/48 127/109/19 129/110/90
f 17/173/64 124/76/69 32/77/70
f 60/174/15 126/59/55 124/76/69
f 59/175/135 131/63/59 73/98/84
f 62/101/82 125/113/92 126/59/55
f 56/13/13 123/38/36 57/104/87
f 53/176/89 130/21/21 59/175/135
f 104/28/28 83/177/130 82/168/32
f 58/1/1 53/106/89 4/2/2
f 21/4/4 8/75/68 15/5/5
f 47/7/7 44/87/75 6/8/8
f 67/10/10 64/18/18 2/11/11
f 56/13/13 8/75/68 29/14/14
f 20/16/16 33/74/67 69/17/17
f 127/19/19 11/166/133 30/20/20
f 4/2/2 27/107/83 70/22/22
f 112/24/24 118/103/86 84/25/25
f 67/10/10 10/12/12 81/27/27
f 38/29/29 37/178/63 20/16/16
f 92/31/31 38/83/29 22/32/30
f 96/34/33 47/7/7 18/9/9
f 122/36/35 17/71/64 23/37/26
f 123/39/36 23/26/26 84/25/25
f 39/6/6 15/5/5 76/41/38
f 68/43/40 65/23/23 14/44/41
f 102/46/43 68/43/40 24/45/42
f 98/48/45 58/1/1 12/3/3
f 106/50/47 11/179/133 25/51/48
f 72/53/50 50/180/62 26/54/51
f 51/56/52 33/74/67 41/57/53
f 126/59/55 125/113/92 34/60/56
f 130/21/21 30/20/20 71/62/58
f 14/64/41 31/181/85 40/65/60
f 45/66/61 2/11/11 26/67/51
f 6/8/8 28/88/71 41/69/53
f 17/71/64 32/182/70 113/72/65
f 20/16/16 37/178/63 41/57/53
f 8/75/68 21/4/4 40/65/60
f 124/76/69 126/59/55 42/61/57
f 52/78/54 41/183/53 28/79/71
f 120/81/73 108/52/49 25/51/48
f 18/9/9 6/8/8 37/70/63
f 86/84/44 24/85/42 39/6/6
f 24/85/42 14/64/41 21/4/4
f 113/86/65 115/91/78 52/78/54
f 44/87/75 49/184/72 28/88/71
f 106/50/47 45/66/61 50/68/62
f 114/90/77 51/112/52 52/78/54
f 109/92/76 50/180/62 72/53/50
f 2/11/11 45/66/61 48/94/80
f 78/35/34 18/9/9 38/83/29
f 81/27/27 10/12/12 48/94/80
f 112/24/24 111/185/66 44/87/75
f 29/14/14 40/65/60 62/96/82
f 27/97/83 59/175/135 73/98/84
f 31/100/85 61/111/91 62/101/82
f 118/103/86 112/24/24 47/7/7
f 15/5/5 8/75/68 56/13/13
f 133/105/88 129/110/90 58/1/1
f 53/106/89 59/186/135 27/107/83
f 56/13/13 60/15/15 124/108/69
f 127/109/19 53/106/89 58/1/1
f 70/99/22 73/98/84 61/111/91
f 116/93/79 72/53/50 51/112/52
f 131/63/59 71/62/58 34/60/56
f 51/112/52 72/53/50 69/55/17
f 4/2/2 65/23/23 68/43/40
f 15/5/5 57/104/87 100/115/93
f 74/49/46 12/3/3 68/43/40
f 14/44/41 65/23/23 70/22/22
f 64/18/18 69/17/17 26/67/51
f 22/30/30 20/16/16 64/18/18
f 19/117/94 83/177/130 105/118/95
f 102/46/43 103/122/99 75/120/97
f 3/121/98 75/120/97 103/122/99
f 100/115/93 101/171/134 77/124/101
f 77/124/101 101/171/134 54/125/102
f 98/48/45 99/129/106 132/127/104
f 121/128/105 132/127/104 99/129/106
f 96/34/33 97/133/110 117/131/108
f 107/132/109 117/131/108 97/133/110
f 81/27/27 94/95/81 95/135/112
f 1/137/114 80/136/113 95/135/112
f 92/31/31 93/141/118 79/139/116
f 5/140/117 79/139/116 93/141/118
f 90/42/39 91/145/122 87/143/120
f 13/144/121 87/143/120 91/145/122
f 88/82/74 89/187/132 119/147/124
f 119/147/124 89/187/132 9/148/125
f 74/49/46 75/120/97 99/129/106
f 55/130/107 99/129/106 75/120/97
f 86/47/44 87/188/120 103/122/99
f 103/122/99 87/188/120 13/150/121
f 76/41/38 77/124/101 91/145/122
f 91/145/122 77/124/101 7/126/103
f 84/25/25 85/157/131 134/151/127
f 134/151/127 85/157/131 16/152/128
f 78/35/34 79/139/116 97/133/110
f 97/133/110 79/139/116 5/140/117
f 92/31/31 82/33/32 83/154/130
f 93/155/118 83/177/130 19/117/94
f 81/27/27 80/136/113 105/118/95
f 105/118/95 80/136/113 1/137/114
f 85/157/131 84/25/25 118/103/86
f 129/110/90 133/105/88 88/158/74
f 89/160/132 88/158/74 133/105/88
f 43/138/115 95/135/112 119/147/124
f 108/52/49 120/81/73 94/95/81
f 94/95/81 120/81/73 119/147/124
f 85/157/131 117/131/108 107/132/109
f 34/161/56 71/189/58 116/162/79
f 23/37/26 17/71/64 111/73/66
f 71/62/58 30/20/20 109/92/76
f 42/61/57 34/60/56 114/90/77
f 106/165/47 109/92/76 30/20/20
f 32/77/70 42/61/57 115/91/78
f 44/167/75 111/190/66 113/86/65
f 45/66/61 106/50/47 108/52/49
f 82/168/32 22/30/30 67/10/10
f 54/125/102 101/171/134 134/169/127
f 123/38/36 135/191/37 100/115/93
f 100/115/93 135/191/37 134/169/127
f 9/172/125 89/160/132 132/127/104
f 73/98/84 131/63/59 125/113/92
f 25/159/48 11/192/133 127/109/19
f 17/173/64 122/193/35 124/76/69
f 60/174/15 62/101/82 126/59/55
f 59/175/135 130/21/21 131/63/59
f 62/101/82 61/111/91 125/113/92
f 56/13/13 122/36/35 123/38/36
f 53/176/89 127/19/19 130/21/21
f 104/28/28 105/118/95 83/177/130
