# Blender v2.79 (sub 0) OBJ File: 'obstacles.blend'
# www.blender.org
o Cube_Cube.001
v -3.263129 -0.848800 4.095832
v -2.270676 6.879720 3.231679
v -3.115758 -0.785069 -4.042708
v -2.846506 6.947951 -3.884006
v 3.871414 -0.769445 4.106037
v 4.222332 6.976737 3.458452
v 3.643052 -1.049491 -4.035112
v 3.459828 6.957764 -3.918317
v -5.057252 -0.861776 0.407320
v -2.969005 4.910626 3.997067
v -4.592542 6.827278 -0.210302
v -3.043933 4.838498 -3.963066
v 0.354726 -0.953338 -4.981454
v 0.241625 7.146884 -4.736011
v 3.314534 4.952988 -4.440009
v 5.364755 -0.990223 0.472015
v 4.538502 6.788539 -0.068788
v 4.502545 5.259645 4.013362
v 0.270344 -0.803162 4.896812
v 0.283303 7.181072 4.145452
v 1.373326 7.001013 -4.618276
v 0.470650 4.575843 4.758752
v 4.901506 5.119249 -0.119182
v -0.508919 5.040137 -5.356133
v -5.040154 4.971833 -0.107579
v -3.010408 7.485872 3.150823
v -3.014210 8.193230 -3.560232
v 2.838891 8.402939 2.998100
v 2.671664 8.109534 -3.795137
v -3.706012 8.679960 -0.052138
v 0.019268 8.842539 -3.989739
v 2.952762 8.881754 -0.062907
v 0.620565 8.634406 3.089888
v 0.138093 11.340209 -0.194832
v 2.487781 -0.859402 4.861051
v 2.193668 -0.988857 -4.880169
v 2.467862 7.048748 3.938036
v 2.850935 4.914319 4.409573
v 1.356673 5.068561 -4.991073
v 1.281767 8.134544 -3.837219
v 1.531544 8.144896 3.317635
v 2.045426 9.650805 0.254554
v -4.590065 -0.911507 2.863638
v 4.358406 7.384018 2.435379
v -4.199522 6.578156 2.072989
v 4.733067 -0.854368 3.038890
v 4.621093 5.095167 2.211102
v -4.592705 5.021361 2.588976
v 3.753489 8.084990 2.165539
v -3.352762 8.252110 2.423893
v 0.773804 9.622450 2.733514
v 2.301585 8.839044 2.533010
v -3.920944 7.214674 -2.425510
v 4.493656 -1.040460 -2.637797
v -4.554453 -0.803011 -2.933043
v 4.117196 7.129446 -3.036758
v 4.566762 4.959577 -2.990403
v -4.716568 5.054332 -3.017297
v -3.602463 8.276484 -2.786745
v 2.970978 8.091834 -2.841780
v -0.041264 9.294850 -2.990344
v 1.395984 9.351601 -3.005720
v -1.865294 -0.948198 -4.783865
v -1.543285 6.920909 3.986556
v -1.828550 7.083631 -4.556714
v -1.410171 -0.881515 4.835628
v -1.124853 4.603429 4.319699
v -1.405477 4.876493 -4.592903
v -1.195140 8.318407 3.454383
v -1.368886 8.172131 -3.540991
v -1.967047 10.192972 0.016029
v -1.517099 9.266109 2.308000
v -1.760120 8.860037 -2.805444
v -3.137622 2.877465 -4.590096
v -3.063572 1.377562 -4.938074
v 3.592372 2.824186 -4.735880
v 3.936514 0.966635 -5.012954
v 4.063512 2.794182 3.730201
v 4.089603 1.328172 4.021669
v -2.899721 0.897578 3.838546
v -2.772519 2.837474 3.632942
v -0.127112 2.774003 4.719622
v 0.659190 1.041882 4.788264
v 5.337124 2.582895 -0.270277
v 5.339798 1.062964 -0.238750
v -0.014900 2.341964 -5.338995
v 0.351271 1.008860 -5.172469
v -4.713251 2.922167 -0.115817
v -4.958505 1.371998 -0.115809
v 2.398616 2.693146 -5.445795
v 1.743613 1.080409 -5.385567
v 2.571918 2.722405 4.428744
v 2.169047 1.007159 4.610741
v -3.862249 2.898547 2.446833
v -4.328124 1.188343 2.681036
v 4.608138 2.933011 2.330849
v 4.578251 1.113219 2.792326
v -4.570153 2.974258 -3.313658
v -4.325573 1.389135 -3.614698
v 4.529246 2.530933 -3.388368
v 4.589872 0.871241 -3.280113
v -2.075825 2.812604 -5.320870
v -1.801465 0.876672 -5.120880
v -1.219817 2.460313 4.748676
v -1.875386 1.147776 4.537596
v -4.193612 6.701674 1.473558
v 5.039382 -0.880991 1.675014
v -4.594668 5.036960 1.408259
v -3.474720 8.191393 1.192784
v -4.892532 -0.769907 1.510387
v 4.682266 7.091020 1.143608
v 4.966496 4.935259 1.358049
v 3.182436 8.708920 1.160045
v 0.239315 10.753826 1.410586
v 2.020169 10.181712 1.401264
v -1.658985 9.989520 1.148218
v 4.918953 1.050303 1.433734
v 4.837487 2.507560 1.167213
v -4.295128 1.056142 1.253790
v -4.573390 3.082153 1.284402
v -5.063766 -0.879755 -1.242730
v 4.376273 6.693580 -1.707725
v 4.602269 5.421757 -1.478262
v 3.458552 8.848794 -1.452367
v 0.138272 9.936972 -1.629988
v 2.148562 9.578362 -1.654505
v -4.422907 6.707660 -1.553240
v 4.985404 -1.024872 -1.153663
v -5.276446 4.990899 -1.588760
v -3.689517 8.857097 -1.475438
v -1.685916 10.420666 -1.500020
v -4.348002 1.205570 -1.893794
v -4.425058 2.898718 -1.589079
v 5.303866 0.741465 -1.856161
v 4.865550 2.811150 -1.914489
vt 0.743505 0.646082
vt 0.667744 0.803757
vt 0.667695 0.646814
vt 0.933381 0.200293
vt 1.000000 0.367321
vt 0.926149 0.364285
vt 0.098222 0.143676
vt 0.000000 0.313176
vt 0.031992 0.160380
vt 0.454536 0.294347
vt 0.349211 0.137434
vt 0.427042 0.138500
vt 0.349211 0.301631
vt 0.271292 0.499396
vt 0.268565 0.302920
vt 0.521147 0.313960
vt 0.451169 0.429484
vt 0.833693 0.809687
vt 0.774150 0.986403
vt 0.786171 0.809672
vt 0.695196 0.195593
vt 0.761398 0.053644
vt 0.758774 0.193831
vt 0.138956 0.149953
vt 0.182164 0.094009
vt 0.179689 0.156231
vt 0.350168 0.085142
vt 0.425325 0.083100
vt 0.598255 0.294521
vt 0.528088 0.147841
vt 0.596111 0.141054
vt 0.596322 0.084828
vt 0.520738 0.088865
vt 0.029809 0.100092
vt 0.098230 0.086857
vt 0.229170 0.143550
vt 0.188384 0.301589
vt 0.229299 0.086265
vt 0.923697 0.420599
vt 0.996336 0.420794
vt 0.838845 0.361054
vt 0.749675 0.356698
vt 0.753045 0.414699
vt 0.836394 0.417368
vt 0.746229 0.589677
vt 0.672338 0.592199
vt 0.875993 0.649055
vt 0.831531 0.648315
vt 0.362151 0.423673
vt 0.441047 0.490889
vt 0.574441 0.514912
vt 0.539197 0.472676
vt 0.585211 0.445574
vt 0.114538 0.655368
vt 0.058147 0.608163
vt 0.105787 0.595687
vt 0.131634 0.798112
vt 0.048747 0.717099
vt 0.105462 0.719921
vt 0.846077 0.197062
vt 0.912443 0.006165
vt 0.921500 0.807310
vt 0.965031 0.916485
vt 0.922065 0.930717
vt 0.637250 0.435111
vt 0.147432 0.479222
vt 0.141008 0.306083
vt 0.979618 0.000000
vt 1.000000 0.205669
vt 0.084490 0.543687
vt 0.117436 0.542215
vt 0.667695 0.466862
vt 0.878184 0.592987
vt 0.834026 0.592022
vt 0.661541 0.307722
vt 0.657048 0.158583
vt 0.111384 0.512494
vt 0.104076 0.463271
vt 0.032765 0.438557
vt 0.877596 0.808498
vt 0.869422 0.965359
vt 0.032048 0.615445
vt 0.000000 0.684527
vt 0.005949 0.622727
vt 0.360082 0.464090
vt 0.439434 0.523883
vt 0.998138 0.650722
vt 0.920455 0.649795
vt 0.661307 0.098464
vt 0.922342 0.593953
vt 0.997369 0.597997
vt 0.199641 0.538566
vt 0.153428 0.583211
vt 0.150382 0.540743
vt 0.256944 0.799237
vt 0.162178 0.722743
vt 0.255924 0.739067
vt 0.257993 0.658117
vt 0.222336 0.595667
vt 0.140197 0.090433
vt 0.278650 0.130870
vt 0.349211 0.140028
vt 0.790128 0.590849
vt 0.738649 0.809657
vt 0.675806 0.914668
vt 0.228475 0.302254
vt 0.231040 0.497284
vt 0.787518 0.647199
vt 0.161673 0.656309
vt 0.505444 0.535464
vt 0.507981 0.507252
vt 0.067404 0.654427
vt 0.667695 0.350994
vt 0.347165 0.086493
vt 0.276434 0.078522
vt 0.670036 0.406032
vt 0.857448 0.065470
vt 0.369329 0.273651
vt 0.391959 0.403793
vt 0.513389 0.029889
vt 0.422748 0.000000
vt 0.509714 0.000402
vt 0.672376 0.461071
vt 0.673546 0.488590
vt 0.756415 0.472701
vt 0.758100 0.501701
vt 0.345119 0.032958
vt 0.344096 0.006190
vt 0.274219 0.026174
vt 0.273111 0.000000
vt 0.792737 0.534500
vt 0.750316 0.505070
vt 0.794042 0.506326
vt 0.141438 0.030912
vt 0.142059 0.001152
vt 0.098237 0.030038
vt 0.098241 0.001628
vt 0.924230 0.538111
vt 0.996599 0.545272
vt 0.925173 0.510190
vt 0.996214 0.518909
vt 0.665566 0.038346
vt 0.667695 0.008286
vt 0.596533 0.028602
vt 0.596638 0.000488
vt 0.921246 0.476913
vt 0.833943 0.473682
vt 0.832717 0.501839
vt 0.920021 0.505070
vt 0.836521 0.535728
vt 0.880375 0.536919
vt 0.837768 0.507581
vt 0.881471 0.508885
vt 0.748954 0.533273
vt 0.679303 0.510278
vt 0.992673 0.474267
vt 0.990841 0.501004
vt 0.229429 0.028980
vt 0.229494 0.000338
vt 0.184639 0.031787
vt 0.185876 0.000676
vt 0.026535 0.009660
vt 0.423607 0.027700
vt 0.351125 0.032850
vt 0.351604 0.006703
vt 0.502908 0.563677
vt 0.358012 0.504507
vt 0.437821 0.556877
vt 0.033702 0.669477
vt 0.816778 1.000000
vt 0.190387 0.538566
vt 0.190788 0.495172
vt 0.093632 0.310577
vt 0.731521 0.972806
vt 0.334368 0.506808
vt 0.705463 0.085321
vt 0.087932 0.799237
vt 0.998138 0.788512
vt 0.150885 0.525530
vt 0.175336 0.796987
vt 0.676982 0.537585
vt 0.027626 0.039804
vn -0.8156 0.1248 -0.5650
vn -0.5294 0.2297 -0.8166
vn -0.4467 0.1579 -0.8806
vn 0.1893 0.3503 -0.9173
vn 0.5374 0.2019 -0.8188
vn 0.1878 0.1817 -0.9652
vn 0.9682 0.0465 0.2456
vn 0.6932 0.4032 0.5974
vn 0.7444 0.0782 0.6631
vn -0.3768 0.3244 0.8676
vn -0.4741 0.0665 0.8779
vn -0.2367 0.0962 0.9668
vn 0.5825 0.3536 -0.7318
vn 0.6710 0.6564 -0.3446
vn 0.8007 0.5204 -0.2966
vn 0.0016 0.3738 0.9275
vn -0.1887 0.5719 0.7983
vn -0.9456 0.3180 0.0687
vn -0.7489 0.6275 -0.2129
vn -0.9150 0.3539 -0.1936
vn -0.2247 0.6291 -0.7441
vn -0.3885 0.3936 -0.8331
vn 0.9774 0.0961 0.1884
vn 0.9962 0.0810 0.0302
vn 0.9772 0.1853 -0.1037
vn -0.5991 0.0406 0.7996
vn -0.2702 0.0968 0.9579
vn 0.1724 0.3911 0.9040
vn -0.0487 0.1067 0.9931
vn 0.2096 0.0919 0.9734
vn 0.2575 0.0289 0.9658
vn 0.0027 0.0688 0.9976
vn 0.7447 0.0254 0.6669
vn 0.9553 0.0201 0.2950
vn 0.9813 0.1525 -0.1169
vn 0.9264 0.3626 -0.1015
vn 0.9636 0.1208 -0.2386
vn 0.2015 0.1158 -0.9726
vn 0.6607 0.1903 -0.7262
vn -0.1567 0.1519 -0.9759
vn -0.5521 0.1827 -0.8135
vn -0.3148 0.1387 -0.9389
vn -0.0207 -0.0333 -0.9992
vn -0.9141 0.0141 -0.4052
vn -0.5859 0.2254 -0.7784
vn -0.9836 0.1138 0.1397
vn -0.9810 0.0897 0.1717
vn -0.6648 0.6356 0.3924
vn -0.3614 0.7229 0.5889
vn 0.4025 0.7053 0.5836
vn 0.0567 0.5225 0.8507
vn 0.1119 0.6055 0.7879
vn 0.2360 0.8565 -0.4589
vn 0.5806 0.7982 -0.1605
vn 0.4069 0.8903 -0.2045
vn -0.5607 0.8109 0.1675
vn -0.3431 0.8456 -0.4089
vn 0.0327 0.3943 -0.9184
vn 0.1818 0.5292 -0.8288
vn -0.8684 0.3281 0.3718
vn -0.4798 0.0847 0.8733
vn 0.3310 0.7427 0.5821
vn 0.7170 0.6950 0.0529
vn 0.9145 0.4035 -0.0289
vn 0.4801 0.6202 -0.6203
vn 0.6910 0.7201 0.0624
vn 0.7094 0.6850 -0.1657
vn 0.6444 0.7392 0.1956
vn -0.9429 -0.1163 0.3121
vn -0.9993 -0.0334 -0.0134
vn -0.9263 0.3472 0.1463
vn -0.7722 0.5901 0.2355
vn 0.5377 0.8337 0.1256
vn 0.0801 0.5739 0.8150
vn -0.5105 0.7599 0.4024
vn -0.8808 0.0744 0.4675
vn -0.8276 -0.0542 0.5586
vn 0.2683 0.8144 -0.5145
vn -0.4212 0.5127 -0.7481
vn -0.2465 0.7100 -0.6597
vn -0.1300 0.6586 -0.7411
vn 0.9685 0.0081 0.2488
vn 0.9240 0.1321 -0.3588
vn -0.9834 -0.1313 -0.1254
vn -0.8574 0.2950 -0.4216
vn 0.9372 0.3235 -0.1303
vn -0.9889 0.0676 -0.1325
vn -0.1368 0.8487 -0.5108
vn 0.0282 0.9029 0.4288
vn 0.1758 0.9751 -0.1350
vn 0.9245 0.0661 -0.3755
vn -0.5144 0.2280 0.8267
vn 0.0292 0.0704 0.9971
vn -0.2347 0.1129 0.9655
vn -0.0148 0.0618 0.9980
vn -0.5100 -0.1180 -0.8520
vn -0.5520 -0.2226 -0.8036
vn -0.1659 -0.1787 -0.9698
vn -0.3153 -0.1617 -0.9351
vn 0.6469 -0.1163 -0.7537
vn 0.7081 -0.3497 -0.6135
vn 0.9141 -0.0854 -0.3964
vn 0.8739 -0.2333 -0.4264
vn -0.9832 0.0713 -0.1683
vn -0.8927 0.0425 -0.4486
vn -0.9677 0.1632 -0.1920
vn 0.9683 0.0851 0.2347
vn 0.9666 0.0950 0.2380
vn 0.9414 0.0562 0.3324
vn 0.8936 0.1243 0.4313
vn -0.8787 0.2308 0.4177
vn -0.5708 0.1332 0.8102
vn -0.8349 0.1757 0.5216
vn -0.5320 0.2307 0.8147
vn 0.6892 0.0400 0.7234
vn 0.6254 0.0839 0.7757
vn 0.2143 0.0931 0.9723
vn 0.2820 0.1532 0.9471
vn 0.0248 -0.1281 -0.9914
vn -0.0856 -0.1218 -0.9888
vn -0.0364 -0.1568 -0.9869
vn 0.2042 -0.2937 -0.9338
vn -0.9951 0.0880 0.0435
vn -0.9627 0.1355 0.2343
vn -0.9751 0.1662 0.1469
vn -0.9578 0.2609 0.1208
vn -0.8833 -0.0660 -0.4642
vn 0.9648 -0.0500 -0.2582
vn 0.9629 -0.1822 -0.1991
vn 0.9958 -0.0019 0.0911
vn 0.9981 0.0285 0.0547
vn -0.3981 0.0531 0.9158
vn -0.7873 0.5815 0.2049
vn 0.8576 0.4643 0.2211
vn -0.7312 0.5093 -0.4537
s 1
f 58/1/1 4/2/2 12/3/3
f 21/4/4 15/5/5 39/6/6
f 47/7/7 6/8/8 18/9/9
f 64/10/10 10/11/11 67/12/12
f 8/13/13 60/14/14 56/15/15
f 20/16/16 69/17/17 64/10/10
f 11/18/18 130/19/19 127/20/20
f 4/21/2 70/22/21 65/23/22
f 112/24/23 84/25/24 23/26/25
f 67/12/12 81/27/26 104/28/27
f 37/29/28 22/30/29 38/31/30
f 92/32/31 22/30/29 82/33/32
f 47/7/7 78/34/33 96/35/34
f 123/36/35 17/37/36 23/26/25
f 135/38/37 23/26/25 84/25/24
f 90/39/38 15/5/5 76/40/39
f 65/23/22 24/41/40 68/42/41
f 102/43/42 24/41/40 86/44/43
f 98/45/44 12/3/3 74/46/45
f 108/47/46 11/18/18 25/48/47
f 50/49/48 69/17/17 72/50/49
f 52/51/50 33/52/51 41/53/52
f 125/54/53 42/55/54 126/56/55
f 130/57/19 71/58/56 131/59/57
f 14/60/58 40/61/59 21/4/4
f 45/62/60 26/63/61 50/64/48
f 37/29/28 28/65/62 41/53/52
f 17/37/36 113/66/63 111/67/64
f 20/16/16 41/53/52 33/52/51
f 21/4/4 29/68/65 8/69/13
f 126/56/55 32/70/66 124/71/67
f 52/51/50 28/65/62 49/72/68
f 120/73/69 25/48/47 88/74/70
f 6/75/8 38/31/30 18/76/9
f 86/44/43 39/6/6 90/39/38
f 14/60/58 39/6/6 24/41/40
f 113/66/63 52/77/50 49/78/68
f 6/8/8 49/78/68 28/79/62
f 106/80/71 50/64/48 109/81/72
f 115/82/73 51/83/74 52/84/50
f 109/85/72 72/50/49 116/86/75
f 10/87/11 45/62/60 48/88/76
f 78/89/33 38/31/30 92/32/31
f 10/87/11 94/90/77 81/91/26
f 111/67/64 47/7/7 112/24/23
f 29/92/65 62/93/78 60/94/14
f 27/95/79 73/96/80 70/97/21
f 31/98/81 62/93/78 40/99/59
f 112/24/23 96/35/34 118/100/82
f 8/13/13 57/101/83 15/102/5
f 133/103/84 58/1/1 98/45/44
f 53/104/85 27/105/79 4/2/2
f 122/106/86 60/14/14 124/107/67
f 127/20/20 58/1/1 129/108/87
f 70/97/21 61/109/88 31/98/81
f 114/110/89 72/50/49 51/111/74
f 131/59/57 34/112/90 125/54/53
f 72/50/49 33/52/51 51/111/74
f 4/21/2 68/42/41 12/113/3
f 76/114/39 57/101/83 100/115/91
f 74/116/45 68/42/41 102/43/42
f 14/60/58 70/22/21 31/117/81
f 2/118/92 69/17/17 26/119/61
f 20/16/16 67/12/12 22/30/29
f 83/120/93 66/121/94 19/122/95
f 102/43/42 75/123/96 74/116/45
f 3/124/97 103/125/98 63/126/99
f 100/115/91 77/127/100 76/114/39
f 7/128/101 101/129/102 54/130/103
f 98/45/44 132/131/104 133/103/84
f 132/131/104 55/132/105 121/133/106
f 96/35/34 117/134/107 118/100/82
f 107/135/108 97/136/109 46/137/110
f 81/91/26 95/138/111 80/139/112
f 80/139/112 43/140/113 1/141/114
f 92/32/31 79/142/115 78/89/33
f 5/143/116 93/144/117 35/145/118
f 86/44/43 91/146/119 87/147/120
f 13/148/121 91/146/119 36/149/122
f 120/73/69 89/150/123 119/151/124
f 119/151/124 9/152/125 110/153/126
f 74/46/45 99/154/127 98/45/44
f 99/154/127 3/155/97 55/132/105
f 86/44/43 103/125/98 102/43/42
f 103/125/98 13/148/121 63/126/99
f 90/39/38 77/156/100 91/146/119
f 36/149/122 77/156/100 7/157/101
f 84/25/24 134/158/128 135/38/37
f 128/159/129 85/160/130 16/161/131
f 78/34/33 97/136/109 96/35/34
f 97/136/109 5/162/116 46/137/110
f 92/32/31 83/120/93 93/144/117
f 35/145/118 83/120/93 19/122/95
f 81/27/26 105/163/132 104/28/27
f 66/121/94 80/164/112 1/165/114
f 85/160/130 118/100/82 117/134/107
f 129/108/87 88/74/70 25/48/47
f 89/150/123 133/103/84 132/131/104
f 95/138/111 110/153/126 43/140/113
f 48/88/76 120/73/69 94/90/77
f 94/90/77 119/151/124 95/138/111
f 16/161/131 117/134/107 107/135/108
f 34/166/90 116/86/75 114/110/89
f 17/37/36 112/24/23 23/26/25
f 30/167/133 116/86/75 71/168/56
f 42/55/54 114/169/89 115/82/73
f 11/18/18 109/81/72 30/170/133
f 42/171/54 113/66/63 32/172/66
f 111/67/64 49/78/68 44/173/134
f 45/62/60 108/47/46 48/88/76
f 82/33/32 67/12/12 104/28/27
f 54/130/103 134/158/128 128/159/129
f 57/101/83 135/38/37 100/115/91
f 101/129/102 135/38/37 134/158/128
f 89/150/123 121/133/106 9/152/125
f 61/109/88 131/59/57 125/54/53
f 25/48/47 127/20/20 129/108/87
f 17/37/36 124/107/67 32/172/66
f 60/94/14 126/56/55 124/71/67
f 73/96/80 130/57/19 131/59/57
f 62/93/78 125/54/53 126/56/55
f 57/101/83 122/106/86 123/36/35
f 53/104/85 130/19/19 59/174/135
f 104/28/27 83/120/93 82/33/32
f 58/1/1 53/104/85 4/2/2
f 21/4/4 8/69/13 15/5/5
f 47/7/7 44/173/134 6/8/8
f 64/10/10 2/118/92 10/11/11
f 8/13/13 29/175/65 60/14/14
f 20/16/16 33/52/51 69/17/17
f 11/18/18 30/170/133 130/19/19
f 4/21/2 27/176/79 70/22/21
f 112/24/23 118/100/82 84/25/24
f 67/12/12 10/11/11 81/27/26
f 37/29/28 20/16/16 22/30/29
f 92/32/31 38/31/30 22/30/29
f 47/7/7 18/9/9 78/34/33
f 123/36/35 122/106/86 17/37/36
f 135/38/37 123/36/35 23/26/25
f 90/39/38 39/6/6 15/5/5
f 65/23/22 14/60/58 24/41/40
f 102/43/42 68/42/41 24/41/40
f 98/45/44 58/1/1 12/3/3
f 108/47/46 106/80/71 11/18/18
f 50/49/48 26/119/61 69/17/17
f 52/51/50 51/111/74 33/52/51
f 125/54/53 34/112/90 42/55/54
f 130/57/19 30/177/133 71/58/56
f 14/60/58 31/117/81 40/61/59
f 45/62/60 2/178/92 26/63/61
f 37/29/28 6/75/8 28/65/62
f 17/37/36 32/172/66 113/66/63
f 20/16/16 37/29/28 41/53/52
f 21/4/4 40/61/59 29/68/65
f 126/56/55 42/55/54 32/70/66
f 52/51/50 41/53/52 28/65/62
f 120/73/69 108/47/46 25/48/47
f 6/75/8 37/29/28 38/31/30
f 86/44/43 24/41/40 39/6/6
f 14/60/58 21/4/4 39/6/6
f 113/66/63 115/179/73 52/77/50
f 6/8/8 44/173/134 49/78/68
f 106/80/71 45/62/60 50/64/48
f 115/82/73 114/169/89 51/83/74
f 109/85/72 50/49/48 72/50/49
f 10/87/11 2/178/92 45/62/60
f 78/89/33 18/76/9 38/31/30
f 10/87/11 48/88/76 94/90/77
f 111/67/64 44/173/134 47/7/7
f 29/92/65 40/99/59 62/93/78
f 27/95/79 59/180/135 73/96/80
f 31/98/81 61/109/88 62/93/78
f 112/24/23 47/7/7 96/35/34
f 8/13/13 56/15/15 57/101/83
f 133/103/84 129/108/87 58/1/1
f 53/104/85 59/174/135 27/105/79
f 122/106/86 56/15/15 60/14/14
f 127/20/20 53/104/85 58/1/1
f 70/97/21 73/96/80 61/109/88
f 114/110/89 116/86/75 72/50/49
f 131/59/57 71/58/56 34/112/90
f 72/50/49 69/17/17 33/52/51
f 4/21/2 65/23/22 68/42/41
f 76/114/39 15/102/5 57/101/83
f 74/116/45 12/113/3 68/42/41
f 14/60/58 65/23/22 70/22/21
f 2/118/92 64/10/10 69/17/17
f 20/16/16 64/10/10 67/12/12
f 83/120/93 105/163/132 66/121/94
f 102/43/42 103/125/98 75/123/96
f 3/124/97 75/123/96 103/125/98
f 100/115/91 101/129/102 77/127/100
f 7/128/101 77/127/100 101/129/102
f 98/45/44 99/154/127 132/131/104
f 132/131/104 99/154/127 55/132/105
f 96/35/34 97/136/109 117/134/107
f 107/135/108 117/134/107 97/136/109
f 81/91/26 94/90/77 95/138/111
f 80/139/112 95/138/111 43/140/113
f 92/32/31 93/144/117 79/142/115
f 5/143/116 79/142/115 93/144/117
f 86/44/43 90/39/38 91/146/119
f 13/148/121 87/147/120 91/146/119
f 120/73/69 88/74/70 89/150/123
f 119/151/124 89/150/123 9/152/125
f 74/46/45 75/181/96 99/154/127
f 99/154/127 75/181/96 3/155/97
f 86/44/43 87/147/120 103/125/98
f 103/125/98 87/147/120 13/148/121
f 90/39/38 76/40/39 77/156/100
f 36/149/122 91/146/119 77/156/100
f 84/25/24 85/160/130 134/158/128
f 128/159/129 134/158/128 85/160/130
f 78/34/33 79/182/115 97/136/109
f 97/136/109 79/182/115 5/162/116
f 92/32/31 82/33/32 83/120/93
f 35/145/118 93/144/117 83/120/93
f 81/27/26 80/164/112 105/163/132
f 66/121/94 105/163/132 80/164/112
f 85/160/130 84/25/24 118/100/82
f 129/108/87 133/103/84 88/74/70
f 89/150/123 88/74/70 133/103/84
f 95/138/111 119/151/124 110/153/126
f 48/88/76 108/47/46 120/73/69
f 94/90/77 120/73/69 119/151/124
f 16/161/131 85/160/130 117/134/107
f 34/166/90 71/168/56 116/86/75
f 17/37/36 111/67/64 112/24/23
f 30/167/133 109/85/72 116/86/75
f 42/55/54 34/112/90 114/169/89
f 11/18/18 106/80/71 109/81/72
f 42/171/54 115/179/73 113/66/63
f 111/67/64 113/66/63 49/78/68
f 45/62/60 106/80/71 108/47/46
f 82/33/32 22/30/29 67/12/12
f 54/130/103 101/129/102 134/158/128
f 57/101/83 123/36/35 135/38/37
f 101/129/102 100/115/91 135/38/37
f 89/150/123 132/131/104 121/133/106
f 61/109/88 73/96/80 131/59/57
f 25/48/47 11/18/18 127/20/20
f 17/37/36 122/106/86 124/107/67
f 60/94/14 62/93/78 126/56/55
f 73/96/80 59/180/135 130/57/19
f 62/93/78 61/109/88 125/54/53
f 57/101/83 56/15/15 122/106/86
f 53/104/85 127/20/20 130/19/19
f 104/28/27 105/163/132 83/120/93
